<svg id="Layer_1" data-name="Layer 1" xmlns="http://www.w3.org/2000/svg" viewBox="0 0 441.8 457.4"><defs><style>.cls-1{fill:#f5f5f5;}.cls-2{fill:#e0e0e0;}.cls-3{fill:#455a64;}.cls-4{fill:#ba68c8;}.cls-5{fill:#0053a5;}.cls-10,.cls-11,.cls-12,.cls-13,.cls-14,.cls-15,.cls-16,.cls-17,.cls-18,.cls-19,.cls-22,.cls-23,.cls-29,.cls-31,.cls-34,.cls-38,.cls-39,.cls-5,.cls-9{isolation:isolate;}.cls-10,.cls-23,.cls-5,.cls-9{opacity:0.7;}.cls-6{fill:#253d98;}.cls-7{fill:#37474f;}.cls-8{fill:#263238;}.cls-29,.cls-9{fill:#4b9ed7;}.cls-10{fill:#9cd1f1;}.cls-11{fill:#4a92ce;}.cls-11,.cls-12,.cls-39{opacity:0.4;}.cls-13,.cls-29,.cls-34{opacity:0.5;}.cls-14,.cls-16{opacity:0.6;}.cls-15,.cls-22{opacity:0.8;}.cls-16{fill:#7f9dd1;}.cls-17,.cls-22,.cls-24,.cls-39{fill:#fff;}.cls-17,.cls-18{opacity:0.1;}.cls-19,.cls-38{opacity:0.2;}.cls-20{fill:#a5c7e9;}.cls-21{fill:#61b5e5;}.cls-25{fill:#e6e6e6;}.cls-26{fill:#fafafa;}.cls-27{fill:#f0f0f0;}.cls-28{fill:#42b5e8;}.cls-30{fill:#1d5dab;}.cls-31{fill:#273b8b;opacity:0.3;}.cls-32{fill:#26246b;}.cls-33{fill:#4e96d1;}.cls-34{fill:#1661ae;}.cls-35{fill:#945959;}.cls-36{fill:#703838;}.cls-37{fill:#388aca;}.cls-38{fill:#497bbe;}</style></defs><g id="Floor"><ellipse class="cls-1" cx="220.9" cy="329.9" rx="220.9" ry="127.5"/></g><g id="Shadows"><path class="cls-2" d="M397,374.5,342.5,406c-4.7,2.7-13,2.4-18.4-.8l-51.8-29.9c-5.5-3.1-6-7.9-1.3-10.6l54.5-31.5c4.7-2.7,13-2.4,18.4.8l51.8,29.9c5.5,3.1,6.1,7.8,1.3,10.6Z" transform="translate(0 0.1)"/><path class="cls-2" d="M308.8,379c16.8,10.4,16.8,27.3,0,37.7s-44,10.4-60.8,0-16.8-27.3,0-37.7S292,368.6,308.8,379Z" transform="translate(0 0.1)"/><ellipse class="cls-2" cx="69.7" cy="367.4" rx="42" ry="24.2"/><path class="cls-2" d="M239.2,231.9,57.1,337a8.35,8.35,0,0,0,0,14.4l99.4,57.4a22.85,22.85,0,0,0,22.9,0L354.2,307.9a8.35,8.35,0,0,0,0-14.4L247.6,231.9a8.4,8.4,0,0,0-8.4,0Z" transform="translate(0 0.1)"/></g><g id="Desk"><path class="cls-3" d="M185.1,403.6a7.64,7.64,0,0,1-6.6,0c-1.8-1-1.8-2.8,0-3.8a7.64,7.64,0,0,1,6.6,0C187,400.8,187,402.5,185.1,403.6Z" transform="translate(0 0.1)"/><rect class="cls-3" x="177.2" y="297.4" width="9.3" height="104.3"/><path class="cls-3" d="M76,341a7.63,7.63,0,0,1-6.6,0c-1.8-1-1.8-2.8,0-3.8a7.64,7.64,0,0,1,6.6,0C77.8,338.2,77.8,339.9,76,341Z" transform="translate(0 0.1)"/><rect class="cls-3" x="68.1" y="234.8" width="9.3" height="104.3"/><path class="cls-3" d="M347.3,309a7.64,7.64,0,0,1-6.6,0c-1.8-1-1.8-2.8,0-3.8a7.64,7.64,0,0,1,6.6,0C349.1,306.2,349.1,308,347.3,309Z" transform="translate(0 0.1)"/><rect class="cls-3" x="339.4" y="202.8" width="9.3" height="104.3"/><path class="cls-3" d="M238.1,246.4a7,7,0,0,1-6.6,0c-1.8-1.1-1.8-2.8,0-3.8a7.31,7.31,0,0,1,6.6,0C240,243.6,240,245.3,238.1,246.4Z" transform="translate(0 0.1)"/><rect class="cls-3" x="230.2" y="140.2" width="9.3" height="104.3"/><polygon class="cls-4" points="44.7 236 44.7 242.1 167.9 313.3 167.9 307.1 44.7 236"/><polygon class="cls-5" points="44.7 236 44.7 242.1 167.9 313.3 167.9 307.1 44.7 236"/><polygon class="cls-4" points="366.6 192.4 167.9 307.1 167.9 313.3 366.6 198.6 366.6 192.4"/><polygon class="cls-5" points="366.6 192.4 167.9 307.1 167.9 313.3 366.6 198.6 366.6 192.4"/><polygon class="cls-6" points="243.3 121.3 44.7 236 167.9 307.1 366.6 192.4 243.3 121.3"/></g><g id="Papers"><path class="cls-7" d="M40.4,303.6v60.2h0c0,4.5,3,9.1,9,12.5,12,6.9,31.4,6.9,43.3,0,6-3.5,9-8,9-12.5h0V303.6Z" transform="translate(0 0.1)"/><ellipse class="cls-3" cx="71" cy="303.5" rx="30.7" ry="17.7"/><path class="cls-8" d="M92,311.7q-1.35,1.05-3,2.1a2.09,2.09,0,0,0-.6.4,28,28,0,0,1-4.3,1.9l-1.8.6c-1.4.4-2.8.7-4.3,1a23.28,23.28,0,0,1-3.8.4c-.5,0-1,.1-1.6.1H69.7c-1.2,0-2.4-.1-3.6-.2a35.4,35.4,0,0,1-4.5-.8,12.09,12.09,0,0,1-1.8-.5,29.43,29.43,0,0,1-6.8-2.8,19.49,19.49,0,0,1-2.6-1.8c-5.8-4.6-6.4-10.8-1.7-15.7A22.25,22.25,0,0,1,53,293a31.7,31.7,0,0,1,5.6-2.5,3.58,3.58,0,0,0,1.1-.4,30.05,30.05,0,0,1,3.2-.7c1.2-.2,2.3-.4,3.5-.5a41.47,41.47,0,0,1,6.1-.2,45.34,45.34,0,0,1,5.3.5h.3a28.75,28.75,0,0,1,4,.9,27.73,27.73,0,0,1,5.3,2,10.93,10.93,0,0,1,1.5.8,21,21,0,0,1,2.2,1.5,25.59,25.59,0,0,1,2.9,2.7c3.9,4.7,3.2,10.3-2,14.6Z" transform="translate(0 0.1)"/><path class="cls-4" d="M72,225.5v18.7h9.6V231.4c0,.1-3.6-5.2-9.6-5.9Z" transform="translate(0 0.1)"/><path class="cls-9" d="M72,225.5v18.7h9.6V231.4c0,.1-3.6-5.2-9.6-5.9Z" transform="translate(0 0.1)"/><path class="cls-4" d="M78,230.1v87.4a23.28,23.28,0,0,1-3.8.4c-.5,0-1,.1-1.6.1H69.7c-1.2,0-2.4-.1-3.6-.2a35.4,35.4,0,0,1-4.5-.8,12.09,12.09,0,0,1-1.8-.5V230.1Z" transform="translate(0 0.1)"/><path class="cls-10" d="M78,230.1v87.4a23.28,23.28,0,0,1-3.8.4c-.5,0-1,.1-1.6.1H69.7c-1.2,0-2.4-.1-3.6-.2a35.4,35.4,0,0,1-4.5-.8,12.09,12.09,0,0,1-1.8-.5V230.1Z" transform="translate(0 0.1)"/><path class="cls-4" d="M82.3,233.1v83.5c-1.4.4-2.8.7-4.3,1a23.28,23.28,0,0,1-3.8.4c-.5,0-1,.1-1.6.1V240.3a17.14,17.14,0,0,0,5.3-1.8,9.41,9.41,0,0,0,3.6-3.6,5.15,5.15,0,0,0,.8-1.8Z" transform="translate(0 0.1)"/><path class="cls-5" d="M82.3,233.1v83.5c-1.4.4-2.8.7-4.3,1a23.28,23.28,0,0,1-3.8.4c-.5,0-1,.1-1.6.1V240.3a17.14,17.14,0,0,0,5.3-1.8,9.41,9.41,0,0,0,3.6-3.6,5.15,5.15,0,0,0,.8-1.8Z" transform="translate(0 0.1)"/><path class="cls-4" d="M73.1,240.6a.37.37,0,0,1-.4-.4c-.1-.2.1-.5.4-.5a16,16,0,0,0,4.8-1.7c2.3-1.3,3.6-3.1,3.6-4.9s-1.3-3.6-3.6-4.9a17.76,17.76,0,0,0-8.9-2.1.54.54,0,0,1-.5-.5.47.47,0,0,1,.5-.5,19.78,19.78,0,0,1,9.4,2.2c2.6,1.5,4,3.5,4,5.7s-1.4,4.2-4,5.7a17.55,17.55,0,0,1-5.3,1.9Z" transform="translate(0 0.1)"/><path class="cls-5" d="M73.1,240.6a.37.37,0,0,1-.4-.4c-.1-.2.1-.5.4-.5a16,16,0,0,0,4.8-1.7c2.3-1.3,3.6-3.1,3.6-4.9s-1.3-3.6-3.6-4.9a17.76,17.76,0,0,0-8.9-2.1.54.54,0,0,1-.5-.5.47.47,0,0,1,.5-.5,19.78,19.78,0,0,1,9.4,2.2c2.6,1.5,4,3.5,4,5.7s-1.4,4.2-4,5.7a17.55,17.55,0,0,1-5.3,1.9Z" transform="translate(0 0.1)"/><path class="cls-4" d="M75.3,226.7c3.6,2.1,3.6,5.4,0,7.4a13.79,13.79,0,0,1-12.8,0c-3.5-2.1-3.5-5.4,0-7.4A13.79,13.79,0,0,1,75.3,226.7Z" transform="translate(0 0.1)"/><path class="cls-5" d="M75.3,226.7c3.6,2.1,3.6,5.4,0,7.4a13.79,13.79,0,0,1-12.8,0c-3.5-2.1-3.5-5.4,0-7.4A13.79,13.79,0,0,1,75.3,226.7Z" transform="translate(0 0.1)"/><path class="cls-4" d="M92.1,257.6l-2,13.9,7.1,1,1.4-9.4c-.1-.1-2.1-4.3-6.5-5.5Z" transform="translate(0 0.1)"/><path class="cls-9" d="M92.1,257.6l-2,13.9,7.1,1,1.4-9.4c-.1-.1-2.1-4.3-6.5-5.5Z" transform="translate(0 0.1)"/><path class="cls-4" d="M96,261.7l-.8,5.7-.1.4-.1.4-.6,3.9-3.2,22.3-2.9,19.7A28,28,0,0,1,84,316l-1.8.6c-1.4.4-2.8.7-4.3,1a23.28,23.28,0,0,1-3.8.4l3.8-26.3.3-2.4,4-27.4.3-2.1h0l9,1.3,4.5.6Z" transform="translate(0 0.1)"/><path class="cls-10" d="M96,261.7l-.8,5.7-.1.4-.1.4-.6,3.9-3.2,22.3-2.9,19.7A28,28,0,0,1,84,316l-1.8.6c-1.4.4-2.8.7-4.3,1a23.28,23.28,0,0,1-3.8.4l3.8-26.3.3-2.4,4-27.4.3-2.1h0l9,1.3,4.5.6Z" transform="translate(0 0.1)"/><path class="cls-4" d="M98.9,264.3l-4.8,32.8L92,311.6q-1.35,1-3,2.1a2.09,2.09,0,0,0-.6.4,28,28,0,0,1-4.3,1.9l3.4-23.8,3-20.6.4-2.9a12.06,12.06,0,0,0,4.2-.8,6.84,6.84,0,0,0,3-2.2,5.53,5.53,0,0,0,.8-1.4Z" transform="translate(0 0.1)"/><path class="cls-5" d="M98.9,264.3l-4.8,32.8L92,311.6q-1.35,1-3,2.1a2.09,2.09,0,0,0-.6.4,28,28,0,0,1-4.3,1.9l3.4-23.8,3-20.6.4-2.9a12.06,12.06,0,0,0,4.2-.8,6.84,6.84,0,0,0,3-2.2,5.53,5.53,0,0,0,.8-1.4Z" transform="translate(0 0.1)"/><path class="cls-4" d="M91.3,268.9a.27.27,0,0,1-.3-.3c0-.2.1-.4.3-.4a11.16,11.16,0,0,0,3.8-.8c1.8-.7,3-1.9,3.2-3.2s-.6-2.8-2.1-4a12.7,12.7,0,0,0-6.4-2.5c-.2,0-.3-.2-.3-.4s.2-.3.4-.3a14,14,0,0,1,6.7,2.7c1.8,1.4,2.6,3,2.4,4.6s-1.5,2.9-3.6,3.8a13,13,0,0,1-4.1.8Z" transform="translate(0 0.1)"/><path class="cls-5" d="M91.3,268.9a.27.27,0,0,1-.3-.3c0-.2.1-.4.3-.4a11.16,11.16,0,0,0,3.8-.8c1.8-.7,3-1.9,3.2-3.2s-.6-2.8-2.1-4a12.7,12.7,0,0,0-6.4-2.5c-.2,0-.3-.2-.3-.4s.2-.3.4-.3a14,14,0,0,1,6.7,2.7c1.8,1.4,2.6,3,2.4,4.6s-1.5,2.9-3.6,3.8a13,13,0,0,1-4.1.8Z" transform="translate(0 0.1)"/><path class="cls-4" d="M94.4,258.9c2.4,1.9,2.1,4.4-.8,5.5a10.72,10.72,0,0,1-9.5-1.4c-2.4-1.9-2.1-4.4.8-5.5A10.38,10.38,0,0,1,94.4,258.9Z" transform="translate(0 0.1)"/><path class="cls-5" d="M94.4,258.9c2.4,1.9,2.1,4.4-.8,5.5a10.72,10.72,0,0,1-9.5-1.4c-2.4-1.9-2.1-4.4.8-5.5A10.38,10.38,0,0,1,94.4,258.9Z" transform="translate(0 0.1)"/><path class="cls-4" d="M53.4,247.5l1.7,15.3,7.8-.9-1.1-10.4s-3.4-3.9-8.4-4Z" transform="translate(0 0.1)"/><path class="cls-9" d="M53.4,247.5l1.7,15.3,7.8-.9-1.1-10.4s-3.4-3.9-8.4-4Z" transform="translate(0 0.1)"/><path class="cls-4" d="M66.1,317.8a35.4,35.4,0,0,1-4.5-.8,12.09,12.09,0,0,1-1.8-.5,29.43,29.43,0,0,1-6.8-2.8,19.49,19.49,0,0,1-2.6-1.8l-1.7-15.7-4.8-43.9h0l10-1.1,4.9-.5h0l.7,6.3v.8l.3,2.4.2,1.9,3,27.1,3.1,28.6Z" transform="translate(0 0.1)"/><path class="cls-10" d="M66.1,317.8a35.4,35.4,0,0,1-4.5-.8,12.09,12.09,0,0,1-1.8-.5,29.43,29.43,0,0,1-6.8-2.8,19.49,19.49,0,0,1-2.6-1.8l-1.7-15.7-4.8-43.9h0l10-1.1,4.9-.5h0l.7,6.3v.8l.3,2.4.2,1.9,3,27.1,3.1,28.6Z" transform="translate(0 0.1)"/><path class="cls-4" d="M66.1,317.8a35.4,35.4,0,0,1-4.5-.8l-1.8-16.1-1.1-10.5-3-27.7-.3-3.2a11.74,11.74,0,0,0,4.2-2c.1-.1.2-.1.3-.2a6.52,6.52,0,0,0,2.3-3,4.09,4.09,0,0,0,.4-1.5l4,36.1,3.2,29.2-3.7-.3Z" transform="translate(0 0.1)"/><path class="cls-5" d="M66.1,317.8a35.4,35.4,0,0,1-4.5-.8l-1.8-16.1-1.1-10.5-3-27.7-.3-3.2a11.74,11.74,0,0,0,4.2-2c.1-.1.2-.1.3-.2a6.52,6.52,0,0,0,2.3-3,4.09,4.09,0,0,0,.4-1.5l4,36.1,3.2,29.2-3.7-.3Z" transform="translate(0 0.1)"/><path class="cls-4" d="M55.7,259.8c-.2,0-.3-.1-.4-.3a.37.37,0,0,1,.2-.5,12.29,12.29,0,0,0,3.8-1.9c1.8-1.3,2.6-2.8,2.5-4.3s-1.4-2.8-3.4-3.7a15.11,15.11,0,0,0-7.5-.9c-.2,0-.4-.1-.4-.3s.1-.4.3-.4a15.56,15.56,0,0,1,7.9,1c2.3,1,3.6,2.5,3.8,4.3s-.8,3.6-2.8,5a13.61,13.61,0,0,1-4,2Z" transform="translate(0 0.1)"/><path class="cls-5" d="M55.7,259.8c-.2,0-.3-.1-.4-.3a.37.37,0,0,1,.2-.5,12.29,12.29,0,0,0,3.8-1.9c1.8-1.3,2.6-2.8,2.5-4.3s-1.4-2.8-3.4-3.7a15.11,15.11,0,0,0-7.5-.9c-.2,0-.4-.1-.4-.3s.1-.4.3-.4a15.56,15.56,0,0,1,7.9,1c2.3,1,3.6,2.5,3.8,4.3s-.8,3.6-2.8,5a13.61,13.61,0,0,1-4,2Z" transform="translate(0 0.1)"/><path class="cls-4" d="M56.3,248.2c3.1,1.4,3.4,4.1.7,6.1a11.5,11.5,0,0,1-10.5,1.1c-3.1-1.4-3.4-4.1-.7-6.1A11.5,11.5,0,0,1,56.3,248.2Z" transform="translate(0 0.1)"/><path class="cls-5" d="M56.3,248.2c3.1,1.4,3.4,4.1.7,6.1a11.5,11.5,0,0,1-10.5,1.1c-3.1-1.4-3.4-4.1-.7-6.1A11.5,11.5,0,0,1,56.3,248.2Z" transform="translate(0 0.1)"/></g><g id="Palette"><path class="cls-8" d="M297.5,183.5l-12,6.9a3.52,3.52,0,0,1-3-.1l-40.8-23.5c-.9-.5-1-1.3-.2-1.7l12-6.9a3.52,3.52,0,0,1,3,.1l40.8,23.5C298.1,182.3,298.2,183.1,297.5,183.5Z" transform="translate(0 0.1)"/><polygon class="cls-4" points="262.7 165.1 253.5 170.5 245.9 166.1 255.1 160.8 262.7 165.1"/><polygon class="cls-11" points="272.7 170.9 263.5 176.2 255.9 171.9 265.1 166.5 272.7 170.9"/><polygon class="cls-11" points="282.7 176.7 273.5 182 265.9 177.6 275.1 172.3 282.7 176.7"/><polygon class="cls-11" points="292.7 182.5 283.5 187.8 275.9 183.4 285.1 178.1 292.7 182.5"/><polygon class="cls-12" points="262.7 165.1 253.5 170.5 245.9 166.1 255.1 160.8 262.7 165.1"/><polygon class="cls-13" points="272.7 170.86 263.5 176.16 255.9 171.86 265.1 166.46 272.7 170.86"/><polygon class="cls-14" points="282.7 176.7 273.5 182 265.9 177.6 275.1 172.3 282.7 176.7"/><polygon class="cls-15" points="292.7 182.5 283.5 187.8 275.9 183.4 285.1 178.1 292.7 182.5"/><path class="cls-7" d="M299.8,170.8l-10.1,9.4a3.4,3.4,0,0,1-3,.5l-44.9-14c-1-.3-1.2-1-.6-1.6l10.1-9.4a3.25,3.25,0,0,1,2.9-.5l44.9,14c1.1.3,1.3,1,.7,1.6Z" transform="translate(0 0.1)"/><polygon class="cls-4" points="261.8 160.6 254 167.8 245.6 165.2 253.4 158 261.8 160.6"/><polygon class="cls-16" points="272.8 164 265 171.2 256.6 168.6 264.5 161.4 272.8 164"/><polygon class="cls-11" points="283.9 167.4 276.1 174.7 267.7 172 275.5 164.8 283.9 167.4"/><polygon class="cls-5" points="294.9 170.9 287.1 178.1 278.7 175.5 286.5 168.3 294.9 170.9"/><polygon class="cls-17" points="261.8 160.6 254 167.8 245.6 165.2 253.4 158 261.8 160.6"/><polygon class="cls-18" points="284.1 167.55 276.3 174.85 267.9 172.15 275.7 164.95 284.1 167.55"/><polygon class="cls-19" points="294.9 170.97 287.1 178.17 278.7 175.57 286.5 168.37 294.9 170.97"/><path class="cls-3" d="M299.4,158.8l-8,11.3a3.42,3.42,0,0,1-2.8,1.1l-46.9-4.4c-1-.1-1.4-.8-.9-1.5l8-11.3a3.42,3.42,0,0,1,2.8-1.1l46.8,4.4C299.5,157.4,299.9,158.1,299.4,158.8Z" transform="translate(0 0.1)"/><polygon class="cls-4" points="260.1 156.6 253.9 165.2 245.2 164.4 251.3 155.7 260.1 156.6"/><polygon class="cls-20" points="271.6 157.7 265.4 166.3 256.7 165.5 262.8 156.8 271.6 157.7"/><polygon class="cls-21" points="283.1 158.7 276.9 167.4 268.2 166.6 274.4 157.9 283.1 158.7"/><polygon class="cls-4" points="294.6 159.8 288.4 168.5 279.7 167.7 285.9 159 294.6 159.8"/><polygon class="cls-22" points="260.1 156.6 253.9 165.2 245.2 164.4 251.3 155.7 260.1 156.6"/><polygon class="cls-16" points="271.6 157.75 265.4 166.35 256.7 165.55 262.8 156.85 271.6 157.75"/><polygon class="cls-11" points="283.1 158.7 276.9 167.4 268.2 166.6 274.4 157.9 283.1 158.7"/><polygon class="cls-5" points="294.6 159.8 288.4 168.5 279.7 167.7 285.9 159 294.6 159.8"/><path class="cls-2" d="M239.3,169.4a4.08,4.08,0,0,1-3.9-2.9,3.81,3.81,0,0,1,.4-3.1,4.06,4.06,0,0,1,2.4-1.9,3.81,3.81,0,0,1,3.1.4,4.06,4.06,0,0,1,1.9,2.4l-.8.2a3.17,3.17,0,0,0-1.5-1.9,3.32,3.32,0,0,0-2.4-.3,3.17,3.17,0,0,0-1.9,1.5,3.32,3.32,0,0,0-.3,2.4,3.24,3.24,0,0,0,4,2.2,3.17,3.17,0,0,0,1.9-1.5l.7.4a4.15,4.15,0,0,1-2.4,1.9,3,3,0,0,1-1.2.2Z" transform="translate(0 0.1)"/></g><g id="Book"><path class="cls-4" d="M182.6,263.7l-33.9,19.5L106,258.5l33.9-19.6a3,3,0,0,1,2.9,0l39.8,23a1,1,0,0,1,0,1.8Z" transform="translate(0 0.1)"/><path class="cls-23" d="M182.6,263.7l-33.9,19.5L106,258.5l33.9-19.6a3,3,0,0,1,2.9,0l39.8,23a1,1,0,0,1,0,1.8Z" transform="translate(0 0.1)"/><path class="cls-24" d="M180.2,262.9l-31.5,18.2-39.8-23,31.6-18.2a2.62,2.62,0,0,1,2.7,0l37,21.4a.87.87,0,0,1,0,1.6Z" transform="translate(0 0.1)"/><polygon class="cls-5" points="148.7 281.2 148.7 277.7 180.7 259.2 180.7 262.2 148.7 281.2"/><polygon class="cls-2" points="148.7 281.2 148.7 277.7 108.9 254.7 108.9 258.3 148.7 281.2"/><path class="cls-4" d="M182.6,258l-33.9,19.5L106,252.9l33.9-19.6a3,3,0,0,1,2.9,0l39.8,23a1,1,0,0,1,0,1.7Z" transform="translate(0 0.1)"/><path class="cls-5" d="M182.6,258l-33.9,19.5L106,252.9l33.9-19.6a3,3,0,0,1,2.9,0l39.8,23a1,1,0,0,1,0,1.7Z" transform="translate(0 0.1)"/><path class="cls-24" d="M144.3,280.7a.64.64,0,0,1-.6,0,.84.84,0,0,1-.4-.7v-3.2a4.08,4.08,0,0,1,2.1-3.6l.1-.1c.2-.1.3,0,.4,0s.2.1.2.3a.7.7,0,1,0,1.4,0,1.65,1.65,0,0,0-.9-1.5,1.72,1.72,0,0,0-1.7,0l-.1.1a5.5,5.5,0,0,0-2.7,4.8V280a2.14,2.14,0,0,0,1.1,1.9,1.64,1.64,0,0,0,1,.2,1.92,1.92,0,0,0,1.2-.4,1.38,1.38,0,0,0,.3-.4l-1.4-.6Z" transform="translate(0 0.1)"/><path class="cls-24" d="M138,277a.64.64,0,0,1-.6,0,.84.84,0,0,1-.4-.7v-3.2a4.08,4.08,0,0,1,2.1-3.6l.1-.1c.2-.1.3,0,.4,0s.2.1.2.3a.7.7,0,0,0,1.4,0,1.65,1.65,0,0,0-.9-1.5,1.72,1.72,0,0,0-1.7,0l-.1.1a5.5,5.5,0,0,0-2.7,4.8v3.2a2.14,2.14,0,0,0,1.1,1.9,1.64,1.64,0,0,0,1,.2,1.92,1.92,0,0,0,1.2-.4,1.38,1.38,0,0,0,.3-.4L138,277Z" transform="translate(0 0.1)"/><path class="cls-24" d="M131.6,273.4a.64.64,0,0,1-.6,0,.84.84,0,0,1-.4-.7v-3.2a4.08,4.08,0,0,1,2.1-3.6l.1-.1c.2-.1.3,0,.4,0s.2.1.2.3a.7.7,0,0,0,1.4,0,1.65,1.65,0,0,0-.9-1.5,1.72,1.72,0,0,0-1.7,0l-.1.1a5.5,5.5,0,0,0-2.7,4.8v3.2a2.14,2.14,0,0,0,1.1,1.9,1.64,1.64,0,0,0,1,.2,1.92,1.92,0,0,0,1.2-.4,1.38,1.38,0,0,0,.3-.4l-1.4-.6Z" transform="translate(0 0.1)"/><path class="cls-24" d="M125.3,269.7a.64.64,0,0,1-.6,0,.84.84,0,0,1-.4-.7v-3.2a4.08,4.08,0,0,1,2.1-3.6l.1-.1c.2-.1.3,0,.4,0s.2.1.2.3a.7.7,0,0,0,1.4,0,1.65,1.65,0,0,0-.9-1.5,1.72,1.72,0,0,0-1.7,0l-.1.1a5.5,5.5,0,0,0-2.7,4.8V269a2.14,2.14,0,0,0,1.1,1.9,1.8,1.8,0,0,0,1,.2,1.92,1.92,0,0,0,1.2-.4,1.38,1.38,0,0,0,.3-.4l-1.4-.6Z" transform="translate(0 0.1)"/><path class="cls-24" d="M119,266a.64.64,0,0,1-.6,0,.84.84,0,0,1-.4-.7v-3.2a4.08,4.08,0,0,1,2.1-3.6l.1-.1c.2-.1.3,0,.4,0s.2.1.2.3a.7.7,0,1,0,1.4,0,1.65,1.65,0,0,0-.9-1.5,1.72,1.72,0,0,0-1.7,0l-.1.1a5.5,5.5,0,0,0-2.7,4.8v3.2a2.14,2.14,0,0,0,1.1,1.9,1.8,1.8,0,0,0,1,.2,1.92,1.92,0,0,0,1.2-.4,1.38,1.38,0,0,0,.3-.4L119,266Z" transform="translate(0 0.1)"/><path class="cls-24" d="M112.7,262.4a.64.64,0,0,1-.6,0,.84.84,0,0,1-.4-.7v-3.2a4.08,4.08,0,0,1,2.1-3.6l.1-.1c.2-.1.3,0,.4,0s.2.1.2.3a.7.7,0,0,0,1.4,0,1.65,1.65,0,0,0-.9-1.5,1.72,1.72,0,0,0-1.7,0l-.1.1a5.5,5.5,0,0,0-2.7,4.8v3.2a2.14,2.14,0,0,0,1.1,1.9,1.8,1.8,0,0,0,1,.2,1.92,1.92,0,0,0,1.2-.4,1.38,1.38,0,0,0,.3-.4l-1.4-.6Z" transform="translate(0 0.1)"/><polygon class="cls-25" points="186.9 249.3 150.4 270.4 102.7 242.9 139.3 221.8 186.9 249.3"/><polygon class="cls-26" points="189.1 248.6 150.8 266.6 105.6 235.2 143.9 217.2 189.1 248.6"/><path class="cls-6" d="M140.3,236.1a9.78,9.78,0,0,0-2.1,11.2c1.7,4,6,6.3,10.2,6.4a11.58,11.58,0,0,0,10.6-6,8.33,8.33,0,0,0,.6-6.2,9.94,9.94,0,0,0-3.9-5.1,15.09,15.09,0,0,0-8.1-2.4c-2.4-.1-5.4.2-7,2.2-.3.4.2,1,.6.6,1.4-1.6,3.7-1.9,5.7-1.9a15.41,15.41,0,0,1,7,1.4c3.7,1.8,6.3,5.9,4.9,10-1.3,3.8-5.2,6.3-9.1,6.6a11,11,0,0,1-10.1-4.7,9.25,9.25,0,0,1,1.4-11.5c.3-.4-.3-1-.7-.6Z" transform="translate(0 0.1)"/><path class="cls-6" d="M145.9,247.9a6.86,6.86,0,0,0,5.6-.8,5.52,5.52,0,0,0,2.4-4.9,4.93,4.93,0,0,0-1.1-2.9c-.3-.4-.9.2-.6.6a4.66,4.66,0,0,1-.2,5.7,6,6,0,0,1-5.9,1.6c-.5-.2-.7.6-.2.7Z" transform="translate(0 0.1)"/><path class="cls-6" d="M138.2,249.8a8.22,8.22,0,0,1-5.5-4.1c-.4-.8-.8-2.1-.1-2.9,1-1.2,2.6-.2,3.2.8a4.24,4.24,0,0,1,.6,1.4c0,.8-1.3-.4-1.6-.6a5.32,5.32,0,0,1-1.7-3.1c-.5-2.2.5-5.1,3-5.4,1-.1,2.4.2,2.7,1.3.2.6-.1,1.2-.8.8a2.37,2.37,0,0,1-.9-1.5,4.13,4.13,0,0,1,3.2-4.9,4.24,4.24,0,0,1,3.1.7c.3.2,1.2.9.8,1.4-.6.6-1.2-.4-1.3-.9a2.58,2.58,0,0,1,1.8-2.6,3.88,3.88,0,0,1,3.6.6,4.63,4.63,0,0,1,1.6,1.5c.5.8-.5,1.3-1.1.8-1.2-1,.1-2.4,1.2-2.6,1.5-.3,3,.7,4.1,1.5a13.43,13.43,0,0,1,3.2,3.1c.3.4,1,0,.7-.4a17.27,17.27,0,0,0-4.2-3.9c-1.5-.9-3.4-1.6-5-.6a2.31,2.31,0,0,0-.6,3.5c1,1,3.1.4,2.7-1.2a4.21,4.21,0,0,0-1.6-1.9,5.82,5.82,0,0,0-2.5-1.2,4,4,0,0,0-4.2,1.6c-.8,1.1-.8,3.3.8,3.7a1.35,1.35,0,0,0,1.6-.7c.4-.7-.2-1.4-.7-1.9a4.88,4.88,0,0,0-7.7,1.6,4.79,4.79,0,0,0,.3,4.5,1.82,1.82,0,0,0,1.9.8,1.34,1.34,0,0,0,.8-1.4c0-1.6-1.6-2.4-3-2.5a4.54,4.54,0,0,0-3.9,2.3,6.21,6.21,0,0,0-.2,5,5.71,5.71,0,0,0,1.3,2.1,4.74,4.74,0,0,0,2.1,1.6,1,1,0,0,0,1.3-1,4.31,4.31,0,0,0-.9-2.2c-.9-1.2-2.8-2.1-4.1-.9-1.1,1-.9,2.7-.3,3.9a7.82,7.82,0,0,0,3.7,3.7,11.72,11.72,0,0,0,2.4.9c.5.2.8-.5.2-.7Z" transform="translate(0 0.1)"/><path class="cls-6" d="M143.6,243.1l-.1.1h0l-.1.1-.1.1h0l-.1.1a.1.1,0,0,0-.1.1H143a.31.31,0,0,0-.2.1H142l-.1-.1h0l-.1-.1-.1-.1h0a.1.1,0,0,0-.1-.1v-.1h0V243h0v-.3h0v-.3h0a.1.1,0,0,1,.1-.1v-.1c0-.1.1,0,0,0l.1-.1.1-.1c-.1.1-.1,0,0,0a.1.1,0,0,0,.1-.1h.4c.1,0,.1,0,.2.1h0a.1.1,0,0,1,.1.1c.1,0,.1.1.2.1h0l.1.1c.1.1.1.1.2.1l.2.2.1.1h0v.1a.43.43,0,1,0,.7-.5,2.59,2.59,0,0,0-1.7-1.2,1.35,1.35,0,0,0-1.5.8,2.21,2.21,0,0,0,0,1.6,1.76,1.76,0,0,0,1.5.8,1.94,1.94,0,0,0,1.7-1,.47.47,0,0,0-.1-.6c-.2-.2-.4.2-.5.4Z" transform="translate(0 0.1)"/><path class="cls-6" d="M145.6,238.6a1.48,1.48,0,0,0,1.1,1.3,1.38,1.38,0,0,0,1.6-.5,1.81,1.81,0,0,0,.1-1.6,1.26,1.26,0,0,0-1.6-.6,1.8,1.8,0,0,0-.9.6,1.23,1.23,0,0,0-.2,1c0,.2.3.3.5.3a.55.55,0,0,0,.3-.5v0h0v-.2h0l.1-.1h0l.1-.1h0a995164323832.17,995164323832.17,0,0,0,.2-.2h.7l.1.1c-.1,0-.1-.1,0,0h0l.1.1v.1h0l.1.1h0v.2h0v.2h0v.2h0a.1.1,0,0,1-.1.1v.1h-1a.1.1,0,0,1-.1-.1c-.1-.1.1,0,0,0a.1.1,0,0,1-.1-.1l-.1-.1h0v-.1h0v-.2h0a.43.43,0,0,0-.4-.4c-.3.1-.5.2-.5.4Z" transform="translate(0 0.1)"/></g><g id="Device_1" data-name="Device 1"><path class="cls-2" d="M206.8,199.9l-16.2,9.2a8.94,8.94,0,0,1-3.5,1.1,8.29,8.29,0,0,1-4.8-1.1l-10.4-6-1.2-.7a8.07,8.07,0,0,1-4.1-7V165.5l24.3-13.9v30.6a7.05,7.05,0,0,0,3.5,6.1l12.3,7.1a2.52,2.52,0,0,1,.1,4.5Z" transform="translate(0 0.1)"/><path class="cls-25" d="M187.1,210.2a7.56,7.56,0,0,0,3.5-1.1l16.2-9.2a2.63,2.63,0,0,0,0-4.6l-8.4-4.9H187.1v19.8Z" transform="translate(0 0.1)"/><path class="cls-25" d="M206.5,193.4l.4.4a3.3,3.3,0,0,1,1.2,2.4v1.5h-1.6v-4.3Z" transform="translate(0 0.1)"/><path class="cls-27" d="M192.9,153.9v27.5a6.84,6.84,0,0,0,3.4,5.9l10.2,6.1a2.54,2.54,0,0,1,0,4.4l-1.2.7-14.5,8.3a8.14,8.14,0,0,1-8,0l-10.1-5.9a6.72,6.72,0,0,1-3.4-5.9V167.5l23.6-13.6Z" transform="translate(0 0.1)"/><path class="cls-25" d="M192.9,181.4V153.9l-23.6,13.4v27.5a6.84,6.84,0,0,0,3.4,5.9l23.2-13.6a6.84,6.84,0,0,1-3-5.7Z" transform="translate(0 0.1)"/><path class="cls-2" d="M118.3,215.3l-2.7,1.6v4.9a10.54,10.54,0,0,1-4.9-1.3l-.2-.1a5.18,5.18,0,0,1-2.4-3.4,2.77,2.77,0,0,1-.1-.9v-6.7l10.3,5.9Z" transform="translate(0 0.1)"/><path class="cls-7" d="M234.7,35.4l-.2-.1a9.47,9.47,0,0,0-4.9-1.3h0a3.17,3.17,0,0,0-1.6.4L112.6,100.8a9.45,9.45,0,0,0-4.7,8.1V209.5l10.4,6,109.7-63a9.45,9.45,0,0,0,4.7-8.1V39.9h4.7a5.43,5.43,0,0,0-2.7-4.5Z" transform="translate(0 0.1)"/><path class="cls-8" d="M108.9,104.6a10,10,0,0,0-1,4.2V209.4l10.4,6,3.9-2.2V112.8Z" transform="translate(0 0.1)"/><path class="cls-27" d="M112.6,212v6.7a3,3,0,0,0,4.6,2.6L232.6,155a9.45,9.45,0,0,0,4.7-8.1V140L112.6,212Z" transform="translate(0 0.1)"/><path class="cls-3" d="M237.3,39.7a3.14,3.14,0,0,0-4.6-2.7L117.3,103.4a9.45,9.45,0,0,0-4.7,8.1V212l124.7-72" transform="translate(0 0.1)"/><path class="cls-4" d="M230.6,44.3h0a3.26,3.26,0,0,0-1.5.3L120.6,107a8.14,8.14,0,0,0-4.1,7.1v85.7a3.59,3.59,0,0,0,.2,1.1h0a2.74,2.74,0,0,0,3.8,1.3L229,139.8a8.14,8.14,0,0,0,4.1-7.1V47a2.72,2.72,0,0,0-2.5-2.7Z" transform="translate(0 0.1)"/><path class="cls-6" d="M230.6,44.3h0a3.26,3.26,0,0,0-1.5.3L120.6,107a8.14,8.14,0,0,0-4.1,7.1v85.7a3.59,3.59,0,0,0,.2,1.1h0a2.74,2.74,0,0,0,3.8,1.3L229,139.8a8.14,8.14,0,0,0,4.1-7.1V47a2.72,2.72,0,0,0-2.5-2.7Z" transform="translate(0 0.1)"/></g><g id="Device_2" data-name="Device 2"><path class="cls-8" d="M276,217.4l-.9.5a6.23,6.23,0,0,0-1.2-.9l-33.1-19.1c-2.5-1.4-6.2-1.6-8.4-.4L174,231.2a1.38,1.38,0,0,0-.4.3l-1-.6v2.5h0a3.49,3.49,0,0,0,2,2.6l33.1,19.1c2.5,1.4,6.2,1.6,8.4.4l58.4-33.7a2.4,2.4,0,0,0,1.4-2.1h0l.1-2.3Z" transform="translate(0 0.1)"/><path class="cls-7" d="M274.5,219.4l-58.4,33.7c-2.1,1.2-5.9,1.1-8.4-.4l-33.1-19.1c-2.5-1.4-2.8-3.6-.6-4.9L232.4,195c2.1-1.2,5.9-1.1,8.4.4l33.1,19.1C276.4,216,276.7,218.2,274.5,219.4Z" transform="translate(0 0.1)"/><path class="cls-3" d="M267.5,218.2l-45.9,26.5a4.58,4.58,0,0,1-4.1-.2L188.9,228c-1.2-.7-1.3-1.8-.3-2.4l45.9-26.5a4.58,4.58,0,0,1,4.1.2l28.6,16.5c1.2.8,1.3,1.8.3,2.4Z" transform="translate(0 0.1)"/><path class="cls-8" d="M200,238.3c1.5.9,1.5,2.2,0,3.1a5.74,5.74,0,0,1-5.4,0c-1.5-.9-1.5-2.2,0-3.1A5.74,5.74,0,0,1,200,238.3Z" transform="translate(0 0.1)"/><path class="cls-8" d="M206.1,242.6l-4,2.3a1.82,1.82,0,0,1-1.6-.1h0c-.5-.3-.5-.7-.1-.9l4-2.3a1.82,1.82,0,0,1,1.6.1h0A.49.49,0,0,1,206.1,242.6Z" transform="translate(0 0.1)"/><path class="cls-8" d="M209.8,244.7l-4,2.3a1.82,1.82,0,0,1-1.6-.1h0c-.5-.3-.5-.7-.1-.9l4-2.3a1.82,1.82,0,0,1,1.6.1h0C210.2,244.1,210.2,244.5,209.8,244.7Z" transform="translate(0 0.1)"/><path class="cls-8" d="M190.6,233.6l-4,2.3a1.82,1.82,0,0,1-1.6-.1h0c-.5-.3-.5-.7-.1-.9l4-2.3a1.82,1.82,0,0,1,1.6.1h0C190.9,233,191,233.4,190.6,233.6Z" transform="translate(0 0.1)"/><path class="cls-8" d="M194.3,235.8l-4,2.3a1.82,1.82,0,0,1-1.6-.1h0c-.5-.3-.5-.7-.1-.9l4-2.3a1.82,1.82,0,0,1,1.6.1h0C194.7,235.1,194.7,235.5,194.3,235.8Z" transform="translate(0 0.1)"/><path class="cls-7" d="M229.8,177.4l-6.8-.6-6.8.6,1.7,9.7v.1h0a2.75,2.75,0,0,0,1.4,1.7,8.27,8.27,0,0,0,7.2,0,2.78,2.78,0,0,0,1.5-1.8h0l1.8-9.7Z" transform="translate(0 0.1)"/><path class="cls-3" d="M227.8,174.3c2.7,1.5,2.7,4,0,5.6a10.8,10.8,0,0,1-9.6,0c-2.7-1.5-2.7-4,0-5.6A10.8,10.8,0,0,1,227.8,174.3Z" transform="translate(0 0.1)"/><path class="cls-8" d="M223,155.8a2,2,0,0,0-1.9,1.9v18.7a.94.94,0,0,0,.6.8,3.19,3.19,0,0,0,2.7,0,.94.94,0,0,0,.6-.8V157.7a2.05,2.05,0,0,0-2-1.9Z" transform="translate(0 0.1)"/></g><g id="Windows"><path class="cls-2" d="M172.5,26.2h0a1.82,1.82,0,0,0-1.1.3l-80.2,46a6.14,6.14,0,0,0-3.1,5.3V141a1.88,1.88,0,0,0,.2.8h0a1.94,1.94,0,0,0,2.8.9l80.1-46.1a6,6,0,0,0,3-5.3V28.2a1.72,1.72,0,0,0-1.7-2Z" transform="translate(0 0.1)"/><path class="cls-2" d="M172.5,27.1a1,1,0,0,1,.9,1V91.4a5.09,5.09,0,0,1-2.6,4.4L90.7,141.9a.9.9,0,0,1-.5.1.87.87,0,0,1-.9-.6.6.6,0,0,1-.1-.4V77.8a5.09,5.09,0,0,1,2.6-4.4l80.1-46.1a1.07,1.07,0,0,1,.6-.2m0-.9h0a2,2,0,0,0-1.1.3l-80.2,46a6.14,6.14,0,0,0-3.1,5.3V141a1.88,1.88,0,0,0,.2.8h0a2.09,2.09,0,0,0,1.8,1.2,1.93,1.93,0,0,0,1-.3l80.1-46.1a6,6,0,0,0,3-5.3V28.2a1.72,1.72,0,0,0-1.7-2Z" transform="translate(0 0.1)"/><polygon class="cls-2" points="89.1 142.8 91.9 144.8 91.9 140.2 89.1 142.8"/><polygon class="cls-2" points="173.4 26.6 176.2 28.6 172.7 31.1 173.4 26.6"/><path class="cls-24" d="M175.2,28.1h0a1.82,1.82,0,0,0-1.1.3L94,74.4a6.14,6.14,0,0,0-3.1,5.3V143a1.88,1.88,0,0,0,.2.8h0a1.94,1.94,0,0,0,2.8.9L174,98.6a6.14,6.14,0,0,0,3.1-5.3V30.1A2.06,2.06,0,0,0,175.2,28.1Z" transform="translate(0 0.1)"/><path class="cls-2" d="M175.2,29.1a1,1,0,0,1,.9,1V93.4a5.09,5.09,0,0,1-2.6,4.4L93.4,143.9a.9.9,0,0,1-.5.1.87.87,0,0,1-.9-.6.6.6,0,0,1-.1-.4V79.7a5.09,5.09,0,0,1,2.6-4.4l80.1-46.1c.1-.1.4-.1.6-.1m0-1h0a2,2,0,0,0-1.1.3L94,74.4a6.14,6.14,0,0,0-3.1,5.3V143a1.88,1.88,0,0,0,.2.8h0a2.09,2.09,0,0,0,1.8,1.2,1.93,1.93,0,0,0,1-.3L174,98.6a6.14,6.14,0,0,0,3.1-5.3V30.1a2.06,2.06,0,0,0-1.9-2Z" transform="translate(0 0.1)"/><path class="cls-4" d="M131.1,97.2a24.62,24.62,0,0,1,.2-2.6c-5.6,1.9-9.9-.8-10.8-6.8-6.3,5.1-11,14.2-11,21.9,0,8.8,6.2,12.3,13.7,7.9,4.4-2.5,8.3-7.2,10.8-12.3-1.8-1.7-2.9-4.4-2.9-8.1Z" transform="translate(0 0.1)"/><path class="cls-5" d="M131.1,97.2a24.62,24.62,0,0,1,.2-2.6c-5.6,1.9-9.9-.8-10.8-6.8-6.3,5.1-11,14.2-11,21.9,0,8.8,6.2,12.3,13.7,7.9,4.4-2.5,8.3-7.2,10.8-12.3-1.8-1.7-2.9-4.4-2.9-8.1Z" transform="translate(0 0.1)"/><path class="cls-9" d="M147.6,72.1a31.36,31.36,0,0,1-10.8,19.3,16.59,16.59,0,0,1,.2,2.4,26.75,26.75,0,0,1-2.9,11.4c2.5,2.3,6.4,2.4,10.8-.1,7.6-4.4,13.7-15,13.7-23.8,0-7.6-4.8-11.3-11-9.2Z" transform="translate(0 0.1)"/><path class="cls-9" d="M147.6,72.1a31.36,31.36,0,0,1-10.8,19.3,16.59,16.59,0,0,1,.2,2.4,26.75,26.75,0,0,1-2.9,11.4c2.5,2.3,6.4,2.4,10.8-.1,7.6-4.4,13.7-15,13.7-23.8,0-7.6-4.8-11.3-11-9.2Z" transform="translate(0 0.1)"/><path class="cls-28" d="M136.8,91.5a22.23,22.23,0,0,1-2.7,1.9,21.86,21.86,0,0,1-2.7,1.3,22.75,22.75,0,0,0-.2,2.6c0,3.7,1.1,6.4,2.9,8.1A27.48,27.48,0,0,0,137,94C136.9,93,136.9,92.2,136.8,91.5Z" transform="translate(0 0.1)"/><path class="cls-29" d="M137,91.93a22.23,22.23,0,0,1-2.7,1.9,21.86,21.86,0,0,1-2.7,1.3,22.75,22.75,0,0,0-.2,2.6c0,3.7,1.1,6.4,2.9,8.1a27.48,27.48,0,0,0,2.9-11.4C137.1,93.43,137.1,92.63,137,91.93Z" transform="translate(0 0.1)"/><path class="cls-6" d="M134,85.8c2.5-5.2,6.4-9.8,10.8-12.3a21.86,21.86,0,0,1,2.7-1.3,22.75,22.75,0,0,0,.2-2.6c0-8.8-6.1-12.3-13.7-7.9s-13.7,15-13.7,23.8a19.42,19.42,0,0,0,.2,2.4,22.23,22.23,0,0,1,2.7-1.9c4.4-2.6,8.3-2.5,10.8-.2Z" transform="translate(0 0.1)"/><path class="cls-30" d="M131.3,94.6a30.29,30.29,0,0,1,2.7-8.9c-2.5-2.3-6.4-2.4-10.8.1a22.23,22.23,0,0,0-2.7,1.9c.8,6.1,5.2,8.9,10.8,6.9Z" transform="translate(0 0.1)"/><path class="cls-31" d="M131.3,94.6a30.29,30.29,0,0,1,2.7-8.9c-2.5-2.3-6.4-2.4-10.8.1a22.23,22.23,0,0,0-2.7,1.9c.8,6.1,5.2,8.9,10.8,6.9Z" transform="translate(0 0.1)"/><path class="cls-28" d="M134,85.8a9,9,0,0,1,2.7,5.7,31.63,31.63,0,0,0,10.8-19.3,11.11,11.11,0,0,0-2.7,1.3c-4.4,2.4-8.3,7.1-10.8,12.3Z" transform="translate(0 0.1)"/><path class="cls-9" d="M134.2,86.23a9,9,0,0,1,2.7,5.7,31.63,31.63,0,0,0,10.8-19.3,11.11,11.11,0,0,0-2.7,1.3c-4.4,2.4-8.3,7.1-10.8,12.3Z" transform="translate(0 0.1)"/><path class="cls-32" d="M134,85.8a26.85,26.85,0,0,0-2.7,8.9,11.11,11.11,0,0,0,2.7-1.3,26.1,26.1,0,0,0,2.7-1.9A8.55,8.55,0,0,0,134,85.8Z" transform="translate(0 0.1)"/><path class="cls-2" d="M221.5,77.2h0a1.83,1.83,0,0,0-.9.2l-66.2,38.1a5,5,0,0,0-2.5,4.4v52.3c0,.2.1.5.1.7h0a1.61,1.61,0,0,0,2.3.8l66.2-38.1a5,5,0,0,0,2.5-4.4V78.8a1.63,1.63,0,0,0-1.5-1.6Z" transform="translate(0 0.1)"/><path class="cls-2" d="M221.4,78a.79.79,0,0,1,.8.8v52.3a4.36,4.36,0,0,1-2.1,3.7l-66.2,38.1a.6.6,0,0,1-.4.1,1,1,0,0,1-.8-.5.37.37,0,0,1-.1-.3V119.9a4.36,4.36,0,0,1,2.1-3.7l66.2-38.1a1.09,1.09,0,0,1,.5-.1m.1-.8h0a1.83,1.83,0,0,0-.9.2l-66.2,38.1a5,5,0,0,0-2.5,4.4v52.3c0,.2.1.5.1.7h0a1.75,1.75,0,0,0,1.5,1,1.88,1.88,0,0,0,.8-.2l66.2-38.1a5,5,0,0,0,2.5-4.4V78.8a1.56,1.56,0,0,0-1.5-1.6Z" transform="translate(0 0.1)"/><polygon class="cls-2" points="152.6 173.6 154.9 175.2 154.9 171.4 152.6 173.6"/><polygon class="cls-2" points="222.2 77.5 224.6 79.2 221.7 81.2 222.2 77.5"/><path class="cls-24" d="M223.8,78.8h0a1.83,1.83,0,0,0-.9.2l-66.2,38.1a5,5,0,0,0-2.5,4.4v52.3c0,.2.1.5.1.7h0a1.61,1.61,0,0,0,2.3.8l66.2-38.1a5,5,0,0,0,2.5-4.4V80.4a1.56,1.56,0,0,0-1.5-1.6Z" transform="translate(0 0.1)"/><path class="cls-2" d="M223.7,79.6a.79.79,0,0,1,.8.8v52.3a4.36,4.36,0,0,1-2.1,3.7l-66.2,38.1a.6.6,0,0,1-.4.1,1,1,0,0,1-.8-.5.37.37,0,0,1-.1-.3V121.5a4.36,4.36,0,0,1,2.1-3.7l66.2-38.1c.1-.1.4-.1.5-.1m0-.8h0a1.83,1.83,0,0,0-.9.2l-66.2,38a5,5,0,0,0-2.5,4.4v52.3c0,.2.1.5.1.7h0a1.75,1.75,0,0,0,1.5,1,1.88,1.88,0,0,0,.8-.2l66.2-38.1a5,5,0,0,0,2.5-4.4V80.4a1.44,1.44,0,0,0-1.5-1.6Z" transform="translate(0 0.1)"/><polygon class="cls-4" points="217 131.1 167.1 160 181.8 121.6 192 133.7 202.5 118.8 217 131.1"/><polygon class="cls-6" points="217 131.1 167.1 160 181.8 121.6 192 133.7 202.5 118.8 217 131.1"/><path class="cls-6" d="M199.7,107.1a10,10,0,0,1-4.6,7.9c-2.6,1.5-4.6.3-4.6-2.6a10,10,0,0,1,4.6-7.9C197.7,103,199.7,104.2,199.7,107.1Z" transform="translate(0 0.1)"/></g><g id="Character"><path class="cls-8" d="M319.8,258.6l15,79.7a2.38,2.38,0,0,0,2.4,2,2.42,2.42,0,0,0,2.4-2.8l-11-73.9-8.8-5Z" transform="translate(0 0.1)"/><path class="cls-3" d="M348.6,310.3l-15.3,93.1a2.83,2.83,0,0,1-2.9,2.4h0a2.92,2.92,0,0,1-2.9-3.2l10.7-96.1,10.4,3.8Z" transform="translate(0 0.1)"/><path class="cls-3" d="M295.9,279l-15.3,93.1a2.83,2.83,0,0,1-2.9,2.4h0a2.92,2.92,0,0,1-2.9-3.2l10.7-96.1,10.4,3.8Z" transform="translate(0 0.1)"/><path class="cls-8" d="M373,288.5l15.1,80.2a2.38,2.38,0,0,0,2.4,2,2.42,2.42,0,0,0,2.4-2.8l-11.1-74.4-8.8-5Z" transform="translate(0 0.1)"/><path class="cls-4" d="M323.1,252.5a21.52,21.52,0,0,0,12.6-17.4c2.4-24.4,11-74.8,40.2-58,36,20.7,23.1,80.8,17.9,100a25.57,25.57,0,0,1-6.6,11.5c-6.5,6.5-20,17.8-42.9,27.4a13,13,0,0,1-8.9.5c-11.4-3.2-41.1-13.2-55.9-32.1a5,5,0,0,1,.9-7.2c6-4.8,19.5-14.3,42.7-24.7Z" transform="translate(0 0.1)"/><path class="cls-6" d="M323.1,252.5a21.52,21.52,0,0,0,12.6-17.4c2.4-24.4,11-74.8,40.2-58,36,20.7,23.1,80.8,17.9,100a25.57,25.57,0,0,1-6.6,11.5c-6.5,6.5-20,17.8-42.9,27.4a13,13,0,0,1-8.9.5c-11.4-3.2-41.1-13.2-55.9-32.1a5,5,0,0,1,.9-7.2c6-4.8,19.5-14.3,42.7-24.7Z" transform="translate(0 0.1)"/><path class="cls-33" d="M278.5,281a5.21,5.21,0,0,0,1.1,3.5c.8,1,1.6,2,2.5,3h0l1.5,1.5h0l1.5,1.5h0a10.7,10.7,0,0,0,1.6,1.4h0a20,20,0,0,0,1.6,1.4h0c8.4,7.1,18.6,12.4,27.7,16.3h0c.6.2,1.1.5,1.7.7.1,0,.1,0,.2.1l1.5.6c.1,0,.2.1.3.1l1.5.6c.1,0,.2.1.3.1.5.2.9.3,1.4.5.1,0,.3.1.4.1.4.2.8.3,1.2.5a1.69,1.69,0,0,1,.5.2c.4.1.8.3,1.1.4s.3.1.5.2a4.87,4.87,0,0,1,1.1.4c.2.1.3.1.5.2s.6.2,1,.3c.2.1.4.1.5.2l.9.3c.2.1.4.1.6.2a1.88,1.88,0,0,0,.8.2c.2.1.4.1.6.2s.4.1.6.2.5.1.8.2c.1,0,.3.1.4.1.4.1.8.2,1.1.3a14.28,14.28,0,0,0,8.9-.5c22.9-9.6,36.4-20.9,42.9-27.4a26.11,26.11,0,0,0,6.6-11.5c5.2-19.3,18.1-79.3-17.9-100a17.38,17.38,0,0,0-1.9-1c-.1-.1-.3-.1-.4-.2a14.17,14.17,0,0,0-1.8-.8c-.1,0-.1,0-.2-.1-.6-.2-1.1-.4-1.7-.6a.35.35,0,0,1-.2-.1,13.64,13.64,0,0,0-1.7-.4H368a13.73,13.73,0,0,0-3.5-.2h-.1a18.81,18.81,0,0,0-3.3.5h0c5.8-2.5,12.8-2.4,19.7,1.6,36,20.7,23.1,80.8,17.9,100l-.9,3.3a31.27,31.27,0,0,1-11.2,16.8l-9.3,7.1h0a147.6,147.6,0,0,1-32.9,18.7,13,13,0,0,1-8.9.5c-11.4-3.2-41.1-13.2-55.9-32.1a4.89,4.89,0,0,1-1.1-2.8h0V281Z" transform="translate(0 0.1)"/><path class="cls-34" d="M278.5,281a5.21,5.21,0,0,0,1.1,3.5c.8,1,1.6,2,2.5,3h0l1.5,1.5h0l1.5,1.5h0a10.7,10.7,0,0,0,1.6,1.4h0a20,20,0,0,0,1.6,1.4h0c8.4,7.1,18.6,12.4,27.7,16.3h0c.6.2,1.1.5,1.7.7.1,0,.1,0,.2.1l1.5.6c.1,0,.2.1.3.1l1.5.6c.1,0,.2.1.3.1.5.2.9.3,1.4.5.1,0,.3.1.4.1.4.2.8.3,1.2.5a1.69,1.69,0,0,1,.5.2c.4.1.8.3,1.1.4s.3.1.5.2a4.87,4.87,0,0,1,1.1.4c.2.1.3.1.5.2s.6.2,1,.3c.2.1.4.1.5.2l.9.3c.2.1.4.1.6.2a1.88,1.88,0,0,0,.8.2c.2.1.4.1.6.2s.4.1.6.2.5.1.8.2c.1,0,.3.1.4.1.4.1.8.2,1.1.3a14.28,14.28,0,0,0,8.9-.5c22.9-9.6,36.4-20.9,42.9-27.4a26.11,26.11,0,0,0,6.6-11.5c5.2-19.3,18.1-79.3-17.9-100a17.38,17.38,0,0,0-1.9-1c-.1-.1-.3-.1-.4-.2a14.17,14.17,0,0,0-1.8-.8c-.1,0-.1,0-.2-.1-.6-.2-1.1-.4-1.7-.6a.35.35,0,0,1-.2-.1,13.64,13.64,0,0,0-1.7-.4H368a13.73,13.73,0,0,0-3.5-.2h-.1a18.81,18.81,0,0,0-3.3.5h0c5.8-2.5,12.8-2.4,19.7,1.6,36,20.7,23.1,80.8,17.9,100l-.9,3.3a31.27,31.27,0,0,1-11.2,16.8l-9.3,7.1h0a147.6,147.6,0,0,1-32.9,18.7,13,13,0,0,1-8.9.5c-11.4-3.2-41.1-13.2-55.9-32.1a4.89,4.89,0,0,1-1.1-2.8h0V281Z" transform="translate(0 0.1)"/><path class="cls-8" d="M388,137.4s8-8.3,17.1-3.1,4.8,22,2.2,26.7-7.5,21.8,6.8,18.4c0,0-4.9,7-15,5.1s-12.1-14.1-9.4-24.2-1.6-14.7-1.6-14.7l-.1-8.2Z" transform="translate(0 0.1)"/><path class="cls-35" d="M346.2,178s-10.6-1.1-14.8.8-30.9,39.8-30.9,39.8,10,3.2,26.2-10.2S346.2,178,346.2,178Z" transform="translate(0 0.1)"/><path class="cls-4" d="M381.5,216.8l1.3-29-13.4-6.7L353.5,178h-7.2s-14.1,12-18.4,23.6,5.5,20.2,5.5,20.2c0,9.8-5.5,20.4-5.5,20.4s9.4,13.8,30.2,12.3a52.93,52.93,0,0,0,19.1-5.6,118.93,118.93,0,0,0-3.7-15Z" transform="translate(0 0.1)"/><path class="cls-5" d="M381.5,216.8l1.3-29-13.4-6.7L353.5,178h-7.2s-14.1,12-18.4,23.6,5.5,20.2,5.5,20.2c0,9.8-5.5,20.4-5.5,20.4s9.4,13.8,30.2,12.3a52.93,52.93,0,0,0,19.1-5.6,118.93,118.93,0,0,0-3.7-15Z" transform="translate(0 0.1)"/><path class="cls-8" d="M355,119.4s-10.8-5.8-15.5,5.5,2.2,24.1-11.4,25.9c0,0,6.6,7.5,15.2-3.3-1.2,1.5.2,6.5.8,8.2a19,19,0,0,0,5,7.8,25.47,25.47,0,0,0,9,4.9,23.73,23.73,0,0,0,7.5,1.4c3.9-.1,8.7-1.9,12.1-3.8a23.43,23.43,0,0,0,8.5-8.9,32.61,32.61,0,0,0,2.8-21.9,23.18,23.18,0,0,0-5.9-11c-7.8-6.8-18.6-7.2-28.1-4.8Z" transform="translate(0 0.1)"/><path class="cls-35" d="M355,168.1l-1.5,9.9s-12,9.8-2.2,12.3,18.1-9.2,18.1-9.2l3.1-19.6L355,168.1Z" transform="translate(0 0.1)"/><path class="cls-36" d="M372.8,158.2l-.1.6c-5.8,13.5-15.5,15.1-18.6,15.4l3.3-21.8,15.5,2.4Z" transform="translate(0 0.1)"/><path class="cls-35" d="M362.9,124.5c-6-.4-19,2-21.6,17.5s-2.1,27.8,5.9,29.6,27.2-2.7,31.2-22.8-9.7-23.9-15.5-24.3Z" transform="translate(0 0.1)"/><polygon class="cls-36" points="351.2 150.1 349.9 159.2 344.8 156.9 351.2 150.1"/><path class="cls-8" d="M359.3,151a1.87,1.87,0,1,1-1.6-2.1A1.9,1.9,0,0,1,359.3,151Z" transform="translate(0 0.1)"/><path class="cls-8" d="M347.2,147.9a1.87,1.87,0,1,1-1.6-2.1A1.9,1.9,0,0,1,347.2,147.9Z" transform="translate(0 0.1)"/><path class="cls-4" d="M343.6,143.4l4-1.6s-1.2-1.7-2.7-1a2.53,2.53,0,0,0-1.3,2.6Z" transform="translate(0 0.1)"/><path class="cls-36" d="M351.1,161.4a43.64,43.64,0,0,0,5.9-2.3s.4,1.2-2.3,2.1-3.6.2-3.6.2Z" transform="translate(0 0.1)"/><path class="cls-8" d="M343.6,143.4l4-1.6s-1.2-1.7-2.7-1a2.53,2.53,0,0,0-1.3,2.6Z" transform="translate(0 0.1)"/><path class="cls-8" d="M368.6,151.6s-1.4,6.5,2.4,7.1l7.4,1.2,2-12.5c2.2-14-6.2-30.4-30.6-22.3-.1-.1-4.1,18.5,18.8,26.5Z" transform="translate(0 0.1)"/><path class="cls-35" d="M371.1,157.9a9.74,9.74,0,0,1,1.5-4,4.54,4.54,0,0,1,4.3-2.4c4.4.6,4.3,4.9,4,6.4-.8,3.9-4.7,7.7-10.7,6.9Z" transform="translate(0 0.1)"/><path class="cls-6" d="M253.5,377.5S241.3,387,240,389.8s1.9,10.3,19.2,7.5c4.8-.8,11.8-5.7,15.3-10.5s10.5-8,11.6-9.7c1.5-2.4.7-15-2-15.2-4.3-.3-30.6,15.6-30.6,15.6Z" transform="translate(0 0.1)"/><path class="cls-35" d="M277.2,285.3s-7.7,63.2-9,72.5c-.6,4.4-12.7,17.4-16.8,21.8a1.72,1.72,0,0,0,.3,2.6l.4.2a13.52,13.52,0,0,0,16.4-.7c3.4-2.8,6.9-6.2,8.7-9.3a35.85,35.85,0,0,1,5.8-8,2.81,2.81,0,0,0,1-2.1c.2-3.1.9-10.9,2.7-15.2,2.2-5.5,13.7-27.8,13.7-47.9l-23.2-13.9Z" transform="translate(0 0.1)"/><path class="cls-36" d="M300.5,299.3h0l-5.2-.6c2,13.9-1.9,33.1-1.9,33.1,3.5-9.3,7.1-21.3,7.1-32.5Z" transform="translate(0 0.1)"/><path class="cls-6" d="M276.3,390.8s-12.2,9.5-13.5,12.3,1.9,10.3,19.2,7.5c4.8-.8,11.8-5.7,15.3-10.5s10.5-8,11.6-9.7c1.5-2.4.7-15-2-15.2-4.3-.3-30.6,15.6-30.6,15.6Z" transform="translate(0 0.1)"/><path class="cls-35" d="M300,298.6s-7.7,63.2-9,72.5c-.6,4.4-12.7,17.4-16.8,21.8a1.72,1.72,0,0,0,.3,2.6l.4.2a13.52,13.52,0,0,0,16.4-.7c3.4-2.8,6.9-6.2,8.7-9.3a35.85,35.85,0,0,1,5.8-8,2.81,2.81,0,0,0,1-2.1c.2-3.1.9-10.9,2.7-15.2,2.2-5.5,13.7-27.8,13.7-47.9L300,298.6Z" transform="translate(0 0.1)"/><path class="cls-8" d="M327.8,242.2s-36.7,20-44.2,28.9-10.7,29.4-10.7,29.4c12.8,16.5,52,18.4,52,18.4,3.3-10.8,11.4-12.7,24-18.8s26.7-18.4,29-31.7c1-6.1.4-13.3-.7-19.5a54.13,54.13,0,0,1-19.1,5.6c-20.9,1.5-30.3-12.3-30.3-12.3Z" transform="translate(0 0.1)"/><path class="cls-37" d="M348,223.5s16.1,4.3,23.1-7.2C371,216.3,365.4,231.3,348,223.5Z" transform="translate(0 0.1)"/><path class="cls-38" d="M371.52,215.76s-5.7,15-23.1,7.2c.1,0,16.2,4.4,23.1-7.2" transform="translate(0 0.1)"/><path class="cls-35" d="M381,186.9s-12.2,5.3-.6,32.2c7.8,18.1,9.1,23,9.1,23s-4.1,2-27.3,19.3l7,11.6s41.2-14.7,40.3-26.1-12.9-40.9-14.8-45.1-2.8-10.1-13.7-14.9Z" transform="translate(0 0.1)"/><path class="cls-35" d="M300.5,218.6c4,1.7,12.5-5.7,19.5-15.5a158.19,158.19,0,0,0,11.3-17.9,16.47,16.47,0,0,0,14.9-7.2c.9-1.3-6.5-10.3-6.5-10.3l3.9-1.7s6.2-1.7,5.8-4.4c-.2-1.2-10.4.9-14.2,1.8a4.52,4.52,0,0,0-2.4,1.4l-11.4,13s-11.7,10-18,15.9c-9.7,9-11.2,21.3-2.9,24.9Z" transform="translate(0 0.1)"/><path class="cls-36" d="M339.8,168.1c-.1,0-.3-.1-.3-.2a.37.37,0,0,1,.2-.5l3.9-1.7c1.7-.5,5.8-2,5.6-4-.2-.1-1.6-.4-8.8,1-.2,0-.4-.1-.4-.3s.1-.4.3-.4c8.3-1.6,9.1-1.1,9.4-.9s.2.3.3.4c.4,3-5.8,4.8-6.1,4.8l-3.8,1.7a.44.44,0,0,0-.3.1Z" transform="translate(0 0.1)"/><path class="cls-36" d="M315.6,209.1c-.1,0-.2,0-.2-.1s-.2-.4,0-.5a64.07,64.07,0,0,0,4.4-5.6A162.14,162.14,0,0,0,331.1,185l.1-.2h.2a16.31,16.31,0,0,0,8.2-1.5.38.38,0,0,1,.3.7,17.25,17.25,0,0,1-8.4,1.6,168.12,168.12,0,0,1-11.2,17.7,64.07,64.07,0,0,1-4.4,5.6c-.1.1-.2.1-.3.2Z" transform="translate(0 0.1)"/><path class="cls-35" d="M363.4,261.6s-5.8-1.1-10.4-.1a19,19,0,0,1-6.3.1c-2-.3-4.8-.7-3.6,2.3,1.1,2.6,4.8,3.2,7.3,3.5,0,0-.9,3.1-7.5,2.9s-8.5.1-8,2.2,7,9.8,13.8,9.9c5.1.1,14.1-3.4,20.5-9.3l-5.8-11.5Z" transform="translate(0 0.1)"/></g><g id="Speech_bubble" data-name="Speech bubble"><path class="cls-24" d="M365.2,52.4A20.93,20.93,0,0,0,347,29.1a2.77,2.77,0,0,1-.9-.1c.1-.4.1-.8.2-1.1a14.26,14.26,0,0,0-12.5-16,19.27,19.27,0,0,0-2.4-.1,22.76,22.76,0,0,0-39,.3h0A20.91,20.91,0,0,0,271,41.9a14.61,14.61,0,0,0-10.6,12.2,14.26,14.26,0,0,0,12.5,16,15.49,15.49,0,0,0,4.8-.2,20,20,0,0,0,30.8,14.5,22.31,22.31,0,0,0,14.4,8.1,21.77,21.77,0,0,0,24.3-19.1,13.36,13.36,0,0,0,.1-2.8,20.91,20.91,0,0,0,17.9-18.2Z" transform="translate(0 0.1)"/><path class="cls-2" d="M325.6,93.6a26.35,26.35,0,0,1-2.8-.2,22.27,22.27,0,0,1-14.5-7.8A20.94,20.94,0,0,1,276.9,71a18,18,0,0,1-4,.1,15.39,15.39,0,0,1-3.2-29.8,21.06,21.06,0,0,1-1.5-11.1A21.89,21.89,0,0,1,291.9,11a23.77,23.77,0,0,1,40-.3,13.4,13.4,0,0,1,2,.1,15.39,15.39,0,0,1,13.4,17.1V28a22,22,0,0,1,19,24.4h0a22,22,0,0,1-17.8,18.9c0,.7-.1,1.4-.1,2.1a22.29,22.29,0,0,1-8.6,15.2,22.78,22.78,0,0,1-14.2,5ZM308.5,83.4a.91.91,0,0,1,.8.4,20.76,20.76,0,0,0,13.8,7.7,20.81,20.81,0,0,0,23.2-18.2,24.37,24.37,0,0,0,.1-2.7,1.06,1.06,0,0,1,.9-1,19.88,19.88,0,0,0-.4-39.4H346a1,1,0,0,1-.7-.4,1.08,1.08,0,0,1-.2-.8c.1-.4.1-.7.2-1.1A13.38,13.38,0,0,0,333.6,13a15.48,15.48,0,0,0-2.2-.1,1.05,1.05,0,0,1-.9-.5A21.6,21.6,0,0,0,314.6,2.2a21.93,21.93,0,0,0-21.4,10.5,1,1,0,0,1-1,.5A19.95,19.95,0,0,0,270,30.6a19.47,19.47,0,0,0,1.9,11.1,1.1,1.1,0,0,1,0,.8.74.74,0,0,1-.6.5,13.24,13.24,0,0,0-9.8,11.3,13.38,13.38,0,0,0,11.7,14.9,12.92,12.92,0,0,0,4.4-.2.78.78,0,0,1,.8.2,1,1,0,0,1,.4.7A18.89,18.89,0,0,0,308,83.6c.2-.1.3-.2.5-.2Zm56.7-31Z" transform="translate(0 0.1)"/><path class="cls-8" d="M307.5,65.5l10-.1V71a4.46,4.46,0,0,1-4.4,4.5H312a4.4,4.4,0,0,1-4.5-4.4V65.5Z" transform="translate(0 0.1)"/><path class="cls-7" d="M320.4,67c0,2.4-3.5,4.3-7.8,4.3s-7.8-1.8-7.9-4.2,3.5-4.3,7.8-4.3,7.9,1.9,7.9,4.2Z" transform="translate(0 0.1)"/><path class="cls-3" d="M320.4,64.5c0,2.4-3.5,4.3-7.8,4.3s-7.8-1.8-7.9-4.2,3.5-4.3,7.8-4.3S320.3,62.2,320.4,64.5Z" transform="translate(0 0.1)"/><path class="cls-6" d="M329,42.6a16.64,16.64,0,1,0-25.6,14.1,6.39,6.39,0,0,1,3,5.3h0a4.12,4.12,0,0,0,4.1,4.1h4.2a4.14,4.14,0,0,0,4.1-4.2v-.2a5.82,5.82,0,0,1,2.8-5A17.09,17.09,0,0,0,329,42.6Z" transform="translate(0 0.1)"/><path class="cls-8" d="M313.4,66.1c0-.1-.1-1.6-.1-14.8V48.7c-.4,0-.9.1-1.3.1h-1a28.07,28.07,0,0,1,.3,4.3l.1,13h-.7l-.1-13a19.06,19.06,0,0,0-.4-4.3c-3.9-.4-5.7-2.5-5.7-4.4a2.09,2.09,0,0,1,2-2.3h0c2.1,0,3.6,2.2,4.3,6h1.1a6.6,6.6,0,0,0,1.4-.1c.3-5,1.3-8,3.1-8.7a2.43,2.43,0,0,1,2.8.8c.8.8,1.2,2.7.5,4.7-.5,1.3-2,3.3-5.7,3.9,0,.8-.1,1.7-.1,2.7,0,13.1.1,14.6.1,14.7Zm-6.9-23.3h0a1.32,1.32,0,0,0-1.3,1.5c0,1.6,1.6,3.2,4.9,3.7-.6-3.2-1.9-5.2-3.6-5.2Zm10.8-2.9a1.27,1.27,0,0,0-.6.1c-.9.4-2.3,1.9-2.7,8,3.3-.6,4.6-2.3,5-3.5.6-1.6.4-3.2-.3-3.9a2.1,2.1,0,0,0-1.4-.7Z" transform="translate(0 0.1)"/><path class="cls-39" d="M322.5,34.8c-.6,1.1-2.5,1.2-4.2.2s-2.6-2.6-2-3.7,2.5-1.2,4.2-.2S323.1,33.7,322.5,34.8Z" transform="translate(0 0.1)"/><path class="cls-39" d="M326.2,39.2c.2,1.2-.2,2.2-1,2.4s-1.7-.6-1.9-1.8.2-2.2,1-2.4S325.9,38,326.2,39.2Z" transform="translate(0 0.1)"/><path class="cls-6" d="M311.6,23.1a.68.68,0,0,1-.7-.7l-.3-7.8a.7.7,0,1,1,1.4,0l.3,7.8c.1.3-.3.6-.7.7Z" transform="translate(0 0.1)"/><path class="cls-6" d="M295,31.3a.37.37,0,0,1-.3-.1l-6.9-3.7a.74.74,0,1,1,.7-1.3l6.9,3.7a.69.69,0,0,1,.3,1,.75.75,0,0,1-.7.4Z" transform="translate(0 0.1)"/><path class="cls-6" d="M327.6,30.1a.71.71,0,0,1-.6-.3.78.78,0,0,1,.2-1l6.6-4.1a.72.72,0,1,1,.8,1.2L328,30a.6.6,0,0,1-.4.1Z" transform="translate(0 0.1)"/><path class="cls-24" d="M354.2,85.9A10.68,10.68,0,1,1,344.9,74,10.62,10.62,0,0,1,354.2,85.9Z" transform="translate(0 0.1)"/><path class="cls-2" d="M343.6,96.3a6.15,6.15,0,0,1-1.4-.1,11.51,11.51,0,0,1-7.8-4.4A11.68,11.68,0,0,1,345,73a11.51,11.51,0,0,1,7.8,4.4,11.63,11.63,0,0,1,2.4,8.6h0a11.51,11.51,0,0,1-4.4,7.8,11.87,11.87,0,0,1-7.2,2.5Zm0-21.4a9.7,9.7,0,0,0-9.6,8.5,9.84,9.84,0,0,0,2,7.2,10.24,10.24,0,0,0,6.5,3.7,9.48,9.48,0,0,0,7.1-2,9.7,9.7,0,0,0,3.6-6.5h0a9.84,9.84,0,0,0-2-7.2,10.24,10.24,0,0,0-6.5-3.7Z" transform="translate(0 0.1)"/><path class="cls-24" d="M363.5,104.6a4.2,4.2,0,1,1-4.2-4.2A4.23,4.23,0,0,1,363.5,104.6Z" transform="translate(0 0.1)"/><path class="cls-2" d="M359.3,109.8a5.2,5.2,0,1,1,5.2-5.2A5.16,5.16,0,0,1,359.3,109.8Zm0-8.4a3.2,3.2,0,1,0,3.2,3.2A3.16,3.16,0,0,0,359.3,101.4Z" transform="translate(0 0.1)"/></g></svg>