<svg id="Layer_1" data-name="Layer 1" xmlns="http://www.w3.org/2000/svg" viewBox="0 0 487.44 465.21"><defs><style>.cls-1{fill:#f5f5f5;}.cls-2,.cls-5{fill:#2a2c7b;}.cls-11,.cls-13,.cls-15,.cls-17,.cls-18,.cls-2,.cls-23,.cls-29,.cls-34,.cls-4,.cls-7,.cls-9{isolation:isolate;}.cls-11,.cls-2,.cls-23,.cls-4{opacity:0.77;}.cls-3{opacity:0.83;}.cls-6{fill:#e1e1e1;}.cls-7{fill:#2b318b;}.cls-18,.cls-7{opacity:0.3;}.cls-8{fill:#1a2e35;}.cls-9{opacity:0.1;}.cls-10{fill:#375a64;}.cls-11{fill:#4ba9df;}.cls-12,.cls-18{fill:#fff;}.cls-13{opacity:0.05;}.cls-14{fill:#2b454e;}.cls-15{opacity:0.25;}.cls-16{fill:#d268cc;}.cls-17{opacity:0.15;}.cls-19{fill:#3a51a3;}.cls-20{fill:#ffaaa8;}.cls-21{fill:#ff9090;}.cls-22{fill:#2b328b;}.cls-23,.cls-25{fill:#2b3c97;}.cls-24{fill:#fafafa;}.cls-26{fill:#c76668;}.cls-27{fill:#3a489e;}.cls-28{fill:#ececec;}.cls-29{opacity:0.2;}.cls-30{fill:#37474f;}.cls-31{fill:#455a64;}.cls-32{fill:#263238;}.cls-33{fill:#ba68c8;}.cls-34{fill:#45c3f1;opacity:0.45;}</style></defs><g id="Floor"><path id="Floor-2" class="cls-1" d="M71.38,220c-95.18,54.95-95.18,144,0,199s249.5,54.95,344.67,0,95.18-144,0-199S166.55,165,71.38,220Z" transform="translate(0.01)"/></g><path id="Background" class="cls-1" d="M366.68,30.37C314,.18,205.49-14.41,100.16,64.88,34.29,114.48,17.3,205.64,49,267.72,73.66,316,133.07,354,216,359.54c37.78,2.55,144.9-3.5,201.56-78.74,49.22-65.37,40.57-198-50.83-250.43Z" transform="translate(0.01)"/><path id="Character" class="cls-2" d="M351.09,317.25a263.21,263.21,0,0,0-2.2-29.88s-.15-41.3-2.71-81.32l.51-.29s-.29-12.55-.36-24.14c0-1.53,0-3.25.12-5,2.06,1.81,3.81,3.4,4.73,4.37a22.68,22.68,0,0,0,9.12,5.73c7.08,5.71,14.45,3.06,16.93.61s2.16-7,1.39-9.41.52-5.67-2.06-9.54a11.54,11.54,0,0,0-2.74-2.6c-.56-1.41-1.17-2.88-1.87-4.45-2-4.53-8.95-18-11.72-23.74-5.39-11.2-7.17-14.5-20.21-17.9-1.25-.33-2.5-1-3.72-1.4a20.9,20.9,0,0,1-3.82-1.82,5,5,0,0,1-.9-.69L330,114.22a44,44,0,0,0-3.83-3.26c-.47-.35-1.31-.65-1.66-1.1-.64-.82-.26-2.26-.25-3.21,0-.59,0-1.17,0-1.76a5,5,0,0,0,1.83-2c.47-1,1.09-2.09,1.79-3.78a6,6,0,0,0,3-.77,8.1,8.1,0,0,0,3.51-11,4.87,4.87,0,0,0-2.56-2.47c1.3-6.92.94-10,0-11.69A8.4,8.4,0,0,0,327.26,69c-1.08-5.36-8.12-9.15-12.47-10.55-5.91-1.9-12-.52-17.55,1.77A12.77,12.77,0,0,1,291,61.51c-.93-.11-2-.56-2.15-1.49a3.08,3.08,0,0,0-1.32,2,8.09,8.09,0,0,0,.58,5.62,3,3,0,0,0-1.93,1.49,8,8,0,0,0-.47,7.48,7.88,7.88,0,0,0,3.2,3.6c-.78,7.57-.64,16.23.58,21.24,1.29,5.28,4.67,7.93,8.63,8.44a25.64,25.64,0,0,0,3.87.27,4,4,0,0,1-.05,1.72c-.23.46-.87.57-1.26.84a10.37,10.37,0,0,0-2,1.82l-12.6,4.13c-7.66,1.73-11.61,3.56-15.65,9.26-3.17,4.47-14.3,22.6-19.09,31.43a1,1,0,0,1,0-.17l.65-1.25-.38-.13a1.76,1.76,0,0,0-.91.05,3.34,3.34,0,0,0-1.69,1.78,7.8,7.8,0,0,0-.57,2.13,9.22,9.22,0,0,1-.5,1.94,10.35,10.35,0,0,1-.57,1,7.72,7.72,0,0,0-.87,3.26,4.12,4.12,0,0,0,1.21,3.47,9.56,9.56,0,0,0,1.43,1.27c1.12,2.41,3.29,5.38,7,9.75,5.65,6.71,11.77,14.81,13.77,17.21.93,1.12,0,3.43-.5,4.8a5.46,5.46,0,0,0-.3,1.56.57.57,0,0,1-.14.13,1.75,1.75,0,0,0-1.93-.83,2.48,2.48,0,0,0-1,.69.67.67,0,0,0-.92-.12c-.73.56-1.86,1.85-3.2,3.15-2.35,2.28-1.73,2.76-.6,6.64.45,1.55,1.66,2,6.34,2.9,4.22.83,5.79.39,10.26-3.27-.19,24.18.17,52.31,1.18,69.61.62,10.61,3.65,67.63,3.65,67.63a19.37,19.37,0,0,0,1.46,1.31c-.63,1.06-1.3,2.14-2,3.24a4.86,4.86,0,0,0-.65,0,.25.25,0,0,0-.19.13c8.37-1.33,17.1-3.08,26-5.33,1-8.76,3.81-34.87,4.29-42.18a123.71,123.71,0,0,0-1.1-23.48l2.29-18.63s3,18.29,5.73,35.83c1.87,11.95,5,29.51,7.42,43a239.92,239.92,0,0,0,24.7-9.69c.26-7.23.44-14.44.39-19.63ZM278,186.55c-2.46-4.58-5.45-10.37-7.14-13.66a1.25,1.25,0,0,0,.52-.78c0-.43-.25-.83-.23-1.26a2.68,2.68,0,0,1,.29-.85,1.63,1.63,0,0,0-.28-1.14l7.24-10c-.15,7.76-.29,18.53-.39,27.72Z" transform="translate(0.01)"/><path id="Character-2" class="cls-2" d="M424.38,276.9c-.12-6.74-.44-17.74-1.47-35.3-.2-3.36-.4-6.4-.61-9.18,1.78-.86,3.26-2.13,3.35-4.24.14-3.15-.75-6.9-1.19-10.06s-1.22-6.53-1.9-9.81l.52.17c6.09,1.91,10.22.78,12-.67s2.54-4.72,2.15-11.78-3.42-26-5.18-34.13-2-10.19-5-15-7-5.25-9.84-5.69c-1.68-.26-2.85-.42-3.53-.5L400.92,139v.26l.28-8.29c1.66-1.12,3.72-1.5,5.64-2.12s4.14-1.86,4.76-3.9a3.9,3.9,0,0,1-.93,3.41,9.81,9.81,0,0,0,6.41-6,14.06,14.06,0,0,0,.22-8.93c-.45-1.58-1.11-3.1-1.55-4.69-.67-2.4-.17-4.84.2-7.24a8.83,8.83,0,0,0-.91-5.61A10.73,10.73,0,0,0,406,89.66c-.12,0-1.21-2.37-1.37-2.63a15.64,15.64,0,0,0-9.24-7.15,19.45,19.45,0,0,0-10.24.11c-1.52.41-3,.92-4.51,1.48a16.55,16.55,0,0,1-4.66.65c-5.2.38-10.45,2.92-13.05,7.44a18.52,18.52,0,0,0-2.12,8.61,15.3,15.3,0,0,0,2.11,7.9,8,8,0,0,1,2.25-4.56,10.92,10.92,0,0,0,.09,4.59,5.62,5.62,0,0,0,1.49,2.5,18.56,18.56,0,0,0,.51,3.81,5.71,5.71,0,0,0,1,1.85c-.94,7.71,1.76,14.43,3.84,16.47,1.76,1.72,5.09,2.94,9.1,2.83l-.15,4.29-9.39,1.66c-7.47,5.9-16.27,16.43-16.61,24.4a41.8,41.8,0,0,0,1.39,13.34s.85,16.51-.82,25.09c-1.26,6.46-2.48,12.92-3.71,19.38-.51,2.7.26,4.23,2.43,6a11.6,11.6,0,0,0,1.07.77c-2.57,21.46-3.95,44.19-3.86,55.64.07,9.4,1.74,32.12,3.24,50.81a200,200,0,0,0,28.43-16.72c.09-.71.17-1.39.25-2.05,1.87-15.2-.2-24.74-.2-24.74l4-27.85,8.18,45.12A165.52,165.52,0,0,0,420.77,282c1.24-1.65,2.44-3.36,3.61-5.09Z" transform="translate(0.01)"/><g id="Character-3" class="cls-3"><path class="cls-2" d="M301,351.82c-.12-3.82,0-12.7-.62-44.41-.26-13.88-1.13-23-2.26-30,.15-.09.32-.17.47-.25-.61-3.09-1.23-6.18-1.83-9.28-.29-1.52-.73-3.08-.88-4.62a3.4,3.4,0,0,1,1.22-3.18,6.27,6.27,0,0,1,2.94-1c2.74-.37,5.51-.26,8.26-.47a21.59,21.59,0,0,0,4.07-.66c1.16-.32,2.05-.5,2.75-1.58a9.42,9.42,0,0,0,1.2-3.66c0-.09,0-.19,0-.28,0-.28.08-.56.1-.85,1.55-12.33-5.32-29.88-8.35-37.82-2.64-6.91-4.88-9.79-9.87-11.33V163.08a15.07,15.07,0,0,0-13.42-15,7.6,7.6,0,0,0-6.61-.24c-3.23-2.7-8.74-3.93-17-3.48-6.74.37-17.62,4.14-21.22,14.21-1.58,4.43-1.92,12.84,4.34,16.52-.21,9.56,2.28,13.55,5.09,15.95,1.85,1.58,4.58,2.6,8.82,2.62l-.13,4.14c-1.2.24-2.55.5-4,.71a18.7,18.7,0,0,0-7.23,3.26,21.64,21.64,0,0,0-5.28,5.79,51.19,51.19,0,0,0-2.62,4.47,29.63,29.63,0,0,0-3.18,10.3c-.24,1.63-.43,3.27-.6,4.91-1.74,17.16-1.69,39.91-2.34,49.06l.32.18c-1.83,26.73-3,58.54-3,73.24,0,3.09.14,7,.36,11.39a295.19,295.19,0,0,0,30.32-1.28c-.16-1.26-.29-1.92-.29-1.92l4.34-30.25s3.26,16.63,6.18,31.06a303.35,303.35,0,0,0,30-5.28c-.08-.62-.13-1.17-.15-1.67Z" transform="translate(0.01)"/><path class="cls-2" d="M265.47,327.6l-.6-3.05-4.79,33.33v.18s.13.67.28,1.87l1.05-.09c-.13-1-.24-1.66-.28-1.89L265,330.86c1.08,5.46,3.42,17.32,5.58,28l1-.13c-2.9-14.32-6.14-30.85-6.19-31.09Z" transform="translate(0.01)"/><path class="cls-2" d="M301.4,345.26c0-6-.15-17.16-.53-37.86a217.65,217.65,0,0,0-2.2-29.68l.15-.09.33-.19-.6-3.05c-.5-2.51-1-5-1.48-7.55-.24-1.22-.5-2.45-.7-3.68a2.57,2.57,0,0,1,.6-2.38,3.8,3.8,0,0,1,1.84-.71,53.51,53.51,0,0,1,5.8-.6l3.5-.23a20.58,20.58,0,0,0,3.33-.26c1.61-.39,3.15-.81,4.11-2.28a10.08,10.08,0,0,0,1.28-3.86c0-.06,0-.12,0-.18l0-.12c0-.28.08-.57.11-.85,1.53-12.14-5-29.24-8.14-37.45l-.24-.63c-2.75-7.2-5.08-10-9.83-11.52v-39A15.56,15.56,0,0,0,285,147.6a8.15,8.15,0,0,0-6.68-.34c-3.46-2.72-9.06-3.83-17.11-3.39-6.25.34-17.84,3.79-21.69,14.56-1.69,4.74-1.91,13.1,4.31,17-.16,10.09,2.73,13.89,5.28,16.06,2,1.74,4.87,2.64,8.62,2.74l-.1,3.19c-.93.19-2.19.43-3.54.63a19.14,19.14,0,0,0-7.44,3.34,22.24,22.24,0,0,0-5.42,5.93,34.89,34.89,0,0,0-2.14,3.58l-.51.94a29.65,29.65,0,0,0-3.24,10.47c-.22,1.46-.41,3-.6,4.93-1.12,11-1.5,24.24-1.8,34.87-.17,5.86-.31,10.93-.55,14.2l0,.32.27.17,0,0c-1.83,26.81-3,58.69-3,72.94,0,3.08.14,7,.36,11.38h1.06c-.23-4.4-.36-8.32-.36-11.4,0-14.29,1.14-46.35,3-73.2l0-.33-.32-.19c.22-3.3.36-8.23.53-13.91.3-10.61.68-23.81,1.79-34.79.19-1.89.38-3.44.6-4.88a29,29,0,0,1,3.12-10.12l.52-1a34.32,34.32,0,0,1,2.07-3.48c1.34-1.9,3-4.26,5.14-5.66a18.33,18.33,0,0,1,7-3.18c1.58-.23,3-.52,4-.72l.41-.08.16-5.1h-.54c-3.76,0-6.54-.84-8.48-2.5-2.4-2-5.12-5.66-4.91-15.54v-.31l-.26-.16c-5.89-3.47-5.65-11.58-4.11-15.89,3.66-10.25,14.77-13.53,20.75-13.86,7.85-.43,13.45.7,16.63,3.35l.26.22.3-.14a7.09,7.09,0,0,1,6.15.23l.18.06a14.52,14.52,0,0,1,13,14.46v39.77l.37.11c4.62,1.42,6.85,4,9.53,11l.24.62c3.11,8.13,9.57,25.06,8.08,37,0,.28-.06.55-.1.81,0,.06,0,.12,0,.18v.11a9.51,9.51,0,0,1-1.14,3.45c-1.56,2.4-5.62,2-8.05,2.1-1.72.07-3.43.08-5.15.21a9.88,9.88,0,0,0-4.8,1.17,2.54,2.54,0,0,0-.74.68,2,2,0,0,0-.22.52,10.31,10.31,0,0,0,.15,5.2q.83,4.31,1.68,8.59l.46,2.3-.46.25.06.37a214.2,214.2,0,0,1,2.25,29.91c.39,20.69.48,31.85.53,37.85,0,3.26,0,5.24.09,6.57,0,.53.07,1.11.16,1.77l1-.23a13.78,13.78,0,0,1-.14-1.57c0-1.32-.06-3.29-.09-6.54Z" transform="translate(0.01)"/></g><g id="Character-4" class="cls-4"><path class="cls-5" d="M424.93,253.52c-1.14-2.91-2.43-6.07-3.8-9.32.14-.21.21-.34.21-.34s-6-14-9.44-22c-5.15-11.95-9.36-15-21.06-17.93-3.41-.76-8.15-1.83-14.73-2.95l.07-9.87a52.41,52.41,0,0,0,3.12-4.67,5.12,5.12,0,0,0,3.24-1.44c3.34-3.17,3.34-7.63,1.51-10.15l0,0a15.06,15.06,0,0,0,1.4-4c1.51-6.46,1.95-19.9-13.3-25.34-12.17-4.33-21.32-3.34-25.63,1.89-.66-.11-1.26-.21-1.78-.28-7.5-1.12-9.54.22-9.81,1.34-.06.26-.36,1.47-.44,1.77a1.08,1.08,0,0,0,0,.39v.05a1,1,0,0,0,.08.32c.85,1.94,6.42,6,6.42,6-1.52,4.11-1.13,6.92.14,8.66a76.13,76.13,0,0,0-1.43,11.43c-.61,10.1,1.82,14.61,5.47,16.46a22.12,22.12,0,0,0,9.87,2.28l-.08,3.52c-3.55,0-7.09-.41-10.35,1.13-12.25,5.81-14,19.9-14.79,32-1,16.13-.58,50.49-.58,50.49a4.57,4.57,0,0,0,.28.5c-1.16,18.79-1.31,42.83-1.06,61.76,28.41-9.91,56.92-25.57,79.71-49.94,6.27-8.58,14.75-21.35,16.87-25.95,2.92-6.35,2.73-8.64-.08-15.85ZM396.53,281c-.06-4.86,0-10.88,0-15.73,0-5,.18-10.54.46-15.27l1.5,3.27a4.29,4.29,0,0,0,1.08.28l3.91,8.33,0,0,.86,1.75s-2.77,6.29-7.74,17.34Z" transform="translate(0.01)"/></g><path id="Shadow" class="cls-6" d="M390.08,389c9.78,5.71,9.78,15,0,20.68s-25.64,5.71-35.42,0-9.78-15,0-20.68,25.64-5.71,35.42,0Z" transform="translate(0.01)"/><ellipse id="Shadow-2" class="cls-6" cx="104.76" cy="398.75" rx="63.35" ry="36.57"/><polygon id="Shadow-3" class="cls-6" points="161.74 465.21 104.31 432.04 180.15 388.3 237.51 421.43 161.74 465.21"/><ellipse id="Shadow-4" class="cls-6" cx="240.43" cy="392.3" rx="18.8" ry="10.85"/><polygon class="cls-7" points="444.33 23.29 437.25 17.98 426.24 16.35 407.08 17.46 103.42 66.07 149.56 424.61 445.55 51.2 448.39 37.09 444.33 23.29"/><g id="Lamp"><polygon class="cls-8" points="440.19 2.24 444.06 0 444.06 15.22 440.19 17.45 440.19 2.24"/><polygon class="cls-9" points="440.19 2.24 444.06 0 444.06 15.22 440.19 17.45 440.19 2.24"/><polygon class="cls-10" points="423.87 21.06 428 37.93 412.52 45.82 405.26 20.91 423.87 21.06"/><polygon class="cls-11" points="432.06 41.18 417.25 50.96 417.07 52.16 440.21 57.45 443.38 41.63 432.06 41.18"/><polygon class="cls-2" points="432.23 39.98 417.25 50.96 440.39 56.25 443.38 41.63 432.23 39.98"/><path class="cls-8" d="M451.53,10.44c4.63,2.68,8.39,9.18,8.39,14.53,0,2.66-.93,4.51-2.44,5.39l-9.92,5.73c-1.51.87-3.59.76-5.9-.58-4.63-2.68-8.39-9.18-8.39-14.53,0-2.66.94-4.52,2.44-5.39l9.91-5.72c1.51-.87,3.59-.75,5.89.58Z" transform="translate(0.01)"/><path class="cls-10" d="M445.62,12.19c5.43,3.14,9.83,10.76,9.83,17,0,3.11-1.09,5.29-2.85,6.31L441,42.24c-1.77,1-4.21.89-6.91-.68-5.43-3.14-9.83-10.76-9.83-17,0-3.12,1.1-5.3,2.86-6.32l11.62-6.71c1.77-1,4.2-.88,6.9.68Z" transform="translate(0.01)"/><path class="cls-6" d="M434.07,18.86c5.43,3.14,9.83,10.76,9.83,17s-4.4,8.81-9.83,5.68-9.83-10.76-9.83-17S428.64,15.73,434.07,18.86Z" transform="translate(0.01)"/><path class="cls-12" d="M434.07,20.52c4.64,2.68,8.4,9.19,8.4,14.55s-3.76,7.53-8.4,4.85-8.4-9.19-8.4-14.55S429.43,17.84,434.07,20.52Z" transform="translate(0.01)"/><polygon class="cls-2" points="444.33 23.3 436.88 25.24 444.45 51.45 445.54 51.2 447.31 37.34 444.33 23.3"/><polygon class="cls-8" points="444.33 23.3 437.96 25 445.54 51.2 448.38 37.1 444.33 23.3"/><polygon class="cls-2" points="437.1 19.07 430 20.64 406.93 18.55 407.08 17.46 426.06 17.44 437.25 17.98 437.1 19.07"/><polygon class="cls-8" points="437.25 17.98 430.17 19.55 407.08 17.46 426.23 16.35 437.25 17.98"/><polygon class="cls-8" points="455.69 29.17 459.56 26.93 459.56 8.94 444.06 0 440.19 2.24 455.69 11.18 455.69 29.17"/><path class="cls-13" d="M457.61,28.05a4.44,4.44,0,0,0,1.94-3.5V9L444.06,0l-3.87,2.24,15.49,8.94v15.6c0,1.32.87,1.88,1.94,1.27Z" transform="translate(0.01)"/><path class="cls-12" d="M457.61,26.51a2.37,2.37,0,0,0,1.07-1.86c0-.69-.48-1-1.07-.62a2.37,2.37,0,0,0-1.07,1.86C456.54,26.58,457,26.85,457.61,26.51Z" transform="translate(0.01)"/></g><g id="Microphone"><g id="Stand"><path class="cls-14" d="M254.18,391.71a5.13,5.13,0,0,0-.11-1.1c-.66-4.11-5.08-7-8.34-8.16H235.11c-3.16,1-7.68,4.06-8.34,8.16a4.57,4.57,0,0,0-.11,1.1,1.83,1.83,0,0,0,0,.19c.13,1.93,1.45,3.84,4,5.31,5.38,3.1,14.09,3.1,19.47,0,2.55-1.47,3.88-3.38,4-5.31a1.54,1.54,0,0,0,0-.19Z" transform="translate(0.01)"/><path class="cls-10" d="M233.81,383.07c-3.65,2.11-3.65,5.53,0,7.64a14.62,14.62,0,0,0,13.23,0c3.65-2.11,3.65-5.53,0-7.64A14.62,14.62,0,0,0,233.81,383.07Z" transform="translate(0.01)"/><path class="cls-8" d="M241.41,259.83a2.16,2.16,0,0,0-2,0,.7.7,0,0,0-.41.57V386.57a.7.7,0,0,0,.41.57,2.16,2.16,0,0,0,2,0,.7.7,0,0,0,.41-.57V260.4a.7.7,0,0,0-.41-.57Z" transform="translate(0.01)"/><path class="cls-15" d="M241.41,260.25a2.16,2.16,0,0,0-2,0l-.21.15H239v2.35a4.47,4.47,0,0,0,2.8,0V260.4h-.2A1.13,1.13,0,0,0,241.41,260.25Z" transform="translate(0.01)"/><path class="cls-14" d="M242.65,249.09a2.47,2.47,0,0,0-.39-.29,4.19,4.19,0,0,0-3.78,0,2.08,2.08,0,0,0-.39.29h-.39v11.4h0a1.32,1.32,0,0,0,.78,1.09,4.19,4.19,0,0,0,3.78,0,1.33,1.33,0,0,0,.78-1.09h0v-11.4Z" transform="translate(0.01)"/><path class="cls-15" d="M239.25,248.5a2.76,2.76,0,0,0-.77.31,2.08,2.08,0,0,0-.39.29h-.39v11.4a1.32,1.32,0,0,0,.78,1.09,3.54,3.54,0,0,0,.77.31Z" transform="translate(0.01)"/><path class="cls-10" d="M238.47,250.19a4.19,4.19,0,0,0,3.78,0,1.15,1.15,0,0,0,0-2.18,4.19,4.19,0,0,0-3.78,0A1.15,1.15,0,0,0,238.47,250.19Z" transform="translate(0.01)"/><path class="cls-16" d="M242.08,251.31a.87.87,0,0,1,.85-.09l.56.32a.85.85,0,0,1,.35.78,2.67,2.67,0,0,1-1.21,2.09.84.84,0,0,1-.85.08l-.55-.32a.84.84,0,0,1-.36-.78,2.67,2.67,0,0,1,1.21-2.09Z" transform="translate(0.01)"/><path class="cls-16" d="M242.08,251.31a.87.87,0,0,1,.85-.09l.56.32a.85.85,0,0,1,.35.78,2.67,2.67,0,0,1-1.21,2.09.84.84,0,0,1-.85.08l-.55-.32a.84.84,0,0,1-.36-.78,2.67,2.67,0,0,1,1.21-2.09Z" transform="translate(0.01)"/><path class="cls-17" d="M242.64,251.63a2.65,2.65,0,0,0-1.21,2.09c0,.77.54,1.08,1.21.7a2.65,2.65,0,0,0,1.21-2.09C243.85,251.56,243.31,251.25,242.64,251.63Z" transform="translate(0.01)"/><path class="cls-8" d="M241.62,210.75a1.13,1.13,0,0,0-.21-.15,2.16,2.16,0,0,0-2,0l-.21.15H239V249h0a.7.7,0,0,0,.41.57,2.16,2.16,0,0,0,2,0,.7.7,0,0,0,.41-.57h0V210.75Z" transform="translate(0.01)"/><path class="cls-10" d="M239.43,211.32a2.16,2.16,0,0,0,2,0c.55-.32.55-.83,0-1.14a2.19,2.19,0,0,0-2,0C238.88,210.5,238.88,211,239.43,211.32Z" transform="translate(0.01)"/><path class="cls-16" d="M242.47,208.28a2,2,0,0,0-.35-.26,3.75,3.75,0,0,0-3.39,0,1.68,1.68,0,0,0-.35.26H238v2.2h0a1.19,1.19,0,0,0,.7,1,3.75,3.75,0,0,0,3.39,0,1.18,1.18,0,0,0,.7-1h0v-2.2Z" transform="translate(0.01)"/><path class="cls-15" d="M239.42,207.74a2.83,2.83,0,0,0-.69.27,1.68,1.68,0,0,0-.35.26H238v2.2a1.19,1.19,0,0,0,.7,1,2.61,2.61,0,0,0,.69.27v-4Z" transform="translate(0.01)"/><path class="cls-16" d="M238.73,209.25a3.75,3.75,0,0,0,3.39,0,1,1,0,0,0,0-1.95,3.73,3.73,0,0,0-3.38,0,1,1,0,0,0,0,1.95Z" transform="translate(0.01)"/><path class="cls-18" d="M238.73,209.25a3.75,3.75,0,0,0,3.39,0,1,1,0,0,0,0-1.95,3.73,3.73,0,0,0-3.38,0,1,1,0,0,0,0,1.95Z" transform="translate(0.01)"/><path class="cls-10" d="M219.93,141.83a9.69,9.69,0,0,0-15.63,11.45l6.33,8.63a9.69,9.69,0,1,0,15.63-11.45Z" transform="translate(0.01)"/><path class="cls-8" d="M224.17,164a9.68,9.68,0,0,0,3.66-10.18c-1.61.93-9.8,5.64-11,6.29s-4.62-2.55-8.21-7.73-5.76-7.58-3.73-11.25a9.68,9.68,0,0,0-.57,12.15l6.33,8.63A9.69,9.69,0,0,0,224.17,164Z" transform="translate(0.01)"/><polygon class="cls-19" points="220.16 160.17 228.13 171.06 224.03 179.35 216.04 168.45 220.16 160.17"/><polygon class="cls-2" points="220.16 160.17 228.13 171.06 224.03 179.35 216.04 168.45 220.16 160.17"/><polygon class="cls-2" points="228.13 171.06 238.28 165.2 230.29 154.31 220.16 160.17 228.13 171.06"/><polygon class="cls-19" points="224.03 179.35 234.18 173.49 238.28 165.2 228.13 171.06 224.03 179.35"/><polygon class="cls-2" points="224.03 179.35 234.18 173.49 238.28 165.2 228.13 171.06 224.03 179.35"/><path class="cls-8" d="M242,208.44c0,1-3.14,1-3.14,0,0-11.81,0-25.2-8.33-35.26-.68-.82,1.74-2.83,2.42-2C242,182.11,242,196.71,242,208.44Z" transform="translate(0.01)"/><path class="cls-16" d="M241.69,205.54a.4.4,0,0,1,.43,0l.28.16a.42.42,0,0,1,.18.39,1.32,1.32,0,0,1-.61,1,.4.4,0,0,1-.43,0l-.28-.16a.42.42,0,0,1-.18-.39A1.32,1.32,0,0,1,241.69,205.54Z" transform="translate(0.01)"/><path class="cls-16" d="M241.69,205.54a.4.4,0,0,1,.43,0l.28.16a.42.42,0,0,1,.18.39,1.32,1.32,0,0,1-.61,1,.4.4,0,0,1-.43,0l-.28-.16a.42.42,0,0,1-.18-.39A1.32,1.32,0,0,1,241.69,205.54Z" transform="translate(0.01)"/><path class="cls-17" d="M242,205.7a1.35,1.35,0,0,0-.61,1.05c0,.39.27.54.61.35a1.35,1.35,0,0,0,.61-1C242.58,205.66,242.31,205.51,242,205.7Z" transform="translate(0.01)"/></g></g><g id="Chartacter"><g id="Character-5"><g id="Bottom"><g id="Bottom-2"><polygon class="cls-8" points="123.06 386.02 127.08 384.1 123.13 382.98 123.06 386.02"/><path class="cls-8" d="M162.87,393.61s-47.28-21.48-47.9-18.32a4.66,4.66,0,0,0,0,1.9l-.13-.17.84,5.9a14.21,14.21,0,0,0,7.36,3.11c0-.28,0-2,.07-3a23.93,23.93,0,0,1,4.17,2.22c3,2,5,5.5,8.16,9.56,2.33,3,6.51,4.36,12.72,5.28,6.68,1,12.58-.25,14.25-2,1.33-1.41.69-4,.45-4.43Z" transform="translate(0.01)"/><path class="cls-20" d="M161.57,392.51c-.45-.48-2.13-2.33-4.41-4.35-2-1.77-4.31-4-6.8-5.81a25.76,25.76,0,0,1-3.38-2.8c-.82-.88-1.61-1.8-2.34-2.76a50.43,50.43,0,0,1-5.66-9.64,21.82,21.82,0,0,1-2-5.06,31.88,31.88,0,0,1-.52-5.6c0-8.46.19-9.8.27-16.24l-20.05.52c.63,3.57,1.6,8.46,1.92,12.51.49,6.17.64,7.55-1.83,13.68-.73,1.81-1.81,3.54-1.92,5.48-.17,3.15,2.32,5.9,5.11,7.46,2.32,1.29,5,1.86,7.23,3.24a23.49,23.49,0,0,1,5.87,5.77c1.58,2,2.85,4.42,5.08,5.86,2.47,1.59,4.84,2.1,7.71,2.69a41.91,41.91,0,0,0,10.38.59c4.93-.35,8.61-2.09,5.31-5.55Z" transform="translate(0.01)"/><path class="cls-14" d="M158.87,389.05c-2-1.71-4.91-4.17-8.39-6.93a9,9,0,0,0-7.36.61c-7.07,3.61-8.31,8.79-8.31,8.79a10.05,10.05,0,0,0,5.72,5c8.12,3.57,22.69,2.55,22.86-1.15.11-2.36-2-4.26-4.52-6.34Zm-41.61-23.41s-.48,1.21-1.74,3.59-1.51,4.75,0,7.15a10.82,10.82,0,0,0,7.1,4.84C125,374.21,120.07,367.18,117.26,365.64Z" transform="translate(0.01)"/><path class="cls-8" d="M79.4,375.2c1.34,2.12-.4,10.12-.09,15.81.28,5.17,1.68,14.19.06,19.3-1.92,6.06-5.81,13.08-13.05,7.41-4.49-3.52-7.06-8.06-7.67-15.51-.43-5.17,1.68-12.33,3.48-18.68,2.11-7.41,2.91-11.38,2.91-11.38l14.37,3.05Z" transform="translate(0.01)"/><path class="cls-20" d="M64.53,337c-.52,12.07.91,20.54,1,28.26a52.84,52.84,0,0,1-1.12,10.43c-1,4.93-2.78,11.78-3.52,15-1,4.46-1.81,7.28-.24,12.28a6.33,6.33,0,0,0,.51,1.13c2.19,4.13,7.77,7.24,9.55,6.74a3.12,3.12,0,0,0,3.14,1.08,4.2,4.2,0,0,0,.59-.14,3.75,3.75,0,0,0,.6-.24,6,6,0,0,0,3-3.79,10.13,10.13,0,0,0,.29-1.09c1.3-6.22.36-10.23.23-12.66-.14-2.81,0-6.38.28-10.9s1.35-18.74,3-25.53c1.19-4.74,2.67-10.69,4.23-17l-21.46-3.51Z" transform="translate(0.01)"/><path class="cls-14" d="M59.8,396.53c4.4-1.91,17.14-2.17,19.17,3.93,0,5.74.09,9.63-3.6,14.63-4.9,6.64-11.3-.4-13.75-4.87S59.2,399.63,59.8,396.53Z" transform="translate(0.01)"/><path class="cls-10" d="M78.62,186.94c-6.21,10.44-7.94,18.29-9.56,45.88-1.83,31.14-1.56,43-1.72,46.75s-2.74,10.65-4.94,29.16.11,63.37.11,63.37,1.55,3,9.09,3.71c7,.63,11-1.66,11-1.66s13.06-54.68,15.1-66c2.73-15.13,9.39-51.83,9.39-51.83l4.32,29.78s-2.2,10.21-.21,26.46,5.89,49,5.89,49a41.59,41.59,0,0,0,10.54,2.55,27,27,0,0,0,11.69-1.27s5.86-66.17,6-84.58-3.25-64.09-9.21-91.38H78.62Z" transform="translate(0.01)"/><path class="cls-14" d="M112.34,227.55l-5.19,29.15,4.3,29.41-.83-28.19,5.58-27.41c6.23-1,13-8.86,14.8-15-6.41,8.39-18.67,12-18.67,12ZM91.69,199.86c.86-2.91,1.76-5.8,2.78-8.7a41.54,41.54,0,0,0-4.32,8.24,76,76,0,0,0-2.91,8.75,86,86,0,0,0-1.87,9,54.52,54.52,0,0,0-.73,9.11c.82-3,1.58-5.9,2.33-8.84s1.5-5.87,2.3-8.79,1.58-5.84,2.42-8.75ZM87,197.64c1.08-1.77,2.17-3.55,3.17-5.41a33.2,33.2,0,0,0-4.52,4.59A44.32,44.32,0,0,0,81.92,202a38.49,38.49,0,0,0-2.81,5.64,22.8,22.8,0,0,0-1.57,6l3.06-5.44c1-1.78,2.06-3.56,3.15-5.31s2.15-3.52,3.22-5.29ZM84.69,320.36q-2.47,14.13-4.55,28.32,3.28-14,6.16-28.06c2-9.38,3.77-18.73,5.58-28.17s2.75-19,3.56-28.48,1.39-19,1.82-28.57c-1.24,9.48-2.34,19-3.44,28.44s-2.3,18.93-4,28.31-3.5,18.8-5.12,28.22Zm51.43-54.09c.17,4.13.41,8.29.3,12.38s-.43,8.26-.69,12.4L135,303.48q-.8,12.43-1.27,24.89,1.69-12.37,2.9-24.78c.81-8.28,1.56-16.53,1.94-24.89,0-8.4-.67-16.66-1.41-24.95S135.32,237.21,134,229l1.5,24.87c.22,4.14.47,8.28.65,12.42Z" transform="translate(0.01)"/></g></g><g id="Top"><g id="Arm"><path class="cls-8" d="M206.18,110.16c2.79-1.57.38-9.44-1.86-12.7s-5.52-7-8.83-4.84-.73,9.73,1.7,12.82,6.12,7.33,9,4.71Z" transform="translate(0.01)"/><path class="cls-20" d="M195.81,92.7c4.93-3.66,10.8-8.23,12.43-10.33,2.9-3.73,4.09-6.2,7.23-8.79s7.68-7.52,11.7-11.48,5.7-5.7,7.24-4.73-1.1,4.08-2.67,6.2-4.11,5.71-4.11,5.71,5.38-3.86,6.7-4.47a81,81,0,0,1,8.28-2.64c1.33-.29,2,1.74.61,3.22s-7.35,3.94-7.35,3.94a60.21,60.21,0,0,0-5,3.53c-.45.57,0,1.07,1.06.69s5.19-2.58,6.68-3,5.79-1.64,6.81-1.84,2,1.66.51,2.83a30.4,30.4,0,0,1-4.24,2.57A2,2,0,0,1,243,75.83c0,1.2-1.34,2-3.74,3.22s-6.82,3.32-6.82,3.32-1.67,1.81-3.34,3.38-2.14,3.59-6.21,5.75c-3,1.59-3.82,1.11-7.72,5.34-2.53,2.74-13,13.12-13,13.12s-8.52-6.39-6.3-17.27Z" transform="translate(0.01)"/><path class="cls-21" d="M226.61,68.31c4,2.1,7.37,8.53,6.14,13,.3-2.49-.63-4.91-1.68-7.12a15.87,15.87,0,0,0-4.47-5.85h0Z" transform="translate(0.01)"/><path class="cls-21" d="M232.6,77.61a39.43,39.43,0,0,0,9.08-3.51A39.61,39.61,0,0,0,232.6,77.61Z" transform="translate(0.01)"/><path class="cls-20" d="M218.17,64c-1.28.17-1.35,1.79-2.08,3.64A14.53,14.53,0,0,1,213,72.84c-3.55,4-3.1,10.38-2.28,16.69,5.42-3.4,7.87-10.78,8.27-12.71.61-2.91,1.36-4.17,1.82-7.3s-1.39-5.7-2.68-5.53Z" transform="translate(0.01)"/><path class="cls-21" d="M213,72.84c2.28-2.34,2.76-5.54,4-8.41,1.38-1.84,3.29.38,3.73,1.84,1.12,3.08-.53,6.27-.77,9.34-.21,1.53,0,3.07-.07,4.67a11,11,0,0,1-4.19,8.17,11.27,11.27,0,0,0,3.75-8.19c.06-1.52-.2-3.11,0-4.7.17-3.06,1.8-6.09.79-9.11-.35-1.12-1.72-3.12-2.86-1.75a9.22,9.22,0,0,0-.85,2.1,15.14,15.14,0,0,1-3.55,6Z" transform="translate(0.01)"/><path class="cls-6" d="M195.49,92.63l6.56-4.84s-1.24,2.34,1.55,7.18c4.19,7.26,7.53,6.13,7.53,6.13l-9.07,9.69c-1.75-.05-4.63-1.58-7.46-7.07-2-4-3.58-7.54.88-11.08Z" transform="translate(0.01)"/><path class="cls-10" d="M140.5,158.61c2.71-8.53,6.8-10,18.64-15.74,9.75-4.76,14.85-6.19,19.35-9.5s27.69-23.21,27.69-23.21c-2.12.85-5.37-.33-9.07-7-2.3-4.13-2.66-9.21-1.62-10.55,0,0-22.87,15.1-26.87,18s-19.89,6.09-27.36,7.51c-6.41,1.22-17.63,2.62-17.63,2.62l16.87,37.8Z" transform="translate(0.01)"/><path class="cls-22" d="M140.5,158.61c2.71-8.53,6.8-10,18.64-15.74,9.75-4.76,14.85-6.19,19.35-9.5s27.69-23.21,27.69-23.21c-2.12.85-5.37-.33-9.07-7-2.3-4.13-2.66-9.21-1.62-10.55,0,0-22.87,15.1-26.87,18s-19.89,6.09-27.36,7.51c-6.41,1.22-17.63,2.62-17.63,2.62l16.87,37.8Z" transform="translate(0.01)"/><path class="cls-23" d="M140.5,158.61c2.71-8.53,6.8-10,18.64-15.74,9.75-4.76,14.85-6.19,19.35-9.5s27.69-23.21,27.69-23.21c-2.12.85-5.37-.33-9.07-7-2.3-4.13-2.66-9.21-1.62-10.55,0,0-22.87,15.1-26.87,18s-19.89,6.09-27.36,7.51c-6.41,1.22-17.63,2.62-17.63,2.62l16.87,37.8Z" transform="translate(0.01)"/><path class="cls-17" d="M143.32,144.82c-1.23-2.57-4.88-11.52-11.88-16L128.19,131,140.5,158.6c2.27-7.14,5.53-9.31,13.47-13.22h0s-9,3-10.65-.57Z" transform="translate(0.01)"/></g><path id="Chest" class="cls-24" d="M73,204.33c-4.23-4.24,1.28-10.34,2.57-28.57.33-4.7-1.24-16.35-1.24-16.35s8.24-9.57,5.49-32.25l22.43-5.09,11.61-.22,10,2.83c2.85,2.56,8.08,6.61,12.23,12.74,6,8.85,6.89,18.46.43,25.5-.1,1.39-.27,14.08.85,19.46,1.08,5.15,2.42,9.51.46,13.17C129,209.74,87.63,218,73,204.34Z" transform="translate(0.01)"/><g class="cls-4"><path class="cls-25" d="M113.85,121.85l9.78-1c8,6.3,17.66,20.38,18,28.9A44.72,44.72,0,0,1,140.16,164s-.91,17.65.87,26.83q2,10.35,4,20.72c.55,2.88-.28,4.53-2.6,6.46a10.85,10.85,0,0,1-6.81,2.55.94.94,0,0,1-1.11-1.13c.17-23.38-.06-42.83-1.43-64.25-.83-12.94-9.07-24.66-19.21-33.31Z" transform="translate(0.01)"/><path class="cls-25" d="M92.59,123.07l0,1c3.37,7.07,4.42,12.09,5.48,18.71a114,114,0,0,1,1.42,23.41c-.81,19.78-3.87,39.54-2.4,59.28a1.54,1.54,0,0,1-.31,1.33,1.5,1.5,0,0,1-.75.29c-8.1,1.41-17.74-.65-25.28-3.61-2.35-.92-3.53-1.75-3.65-4.42-.15-3.37,1.1-7.55,1.89-10.86a183.35,183.35,0,0,0,4.16-25.12c.84-12-1.88-17.42-1.59-29.58.21-8.95,6.3-17.23,6.48-26.18l14.51-4.25Z" transform="translate(0.01)"/></g><g id="Arm-2"><path class="cls-21" d="M110.94,159.56c4-2.5,6-3.42,7.86-3.77s8.25-2.38,10.68-2.77c1.54-.24,1.94,2.21-.12,3.69-1.59,1.14-5.58,2.47-7.35,3.25s-5.44,4.51-5.44,4.51l-5.63-4.92Z" transform="translate(0.01)"/><path class="cls-20" d="M61.64,137.61c4.33-6,10.15-7,14.53-8.45,7.83,9.1.58,27.66.58,27.66l-7.19,17.63s22.52-1.28,25.23-2.69,10.25-8.22,12.75-10.23c3.41-2.74,4.93-2.2,6.51-1.82,5.16,1.24,6.27,1.78,7.32,2.58a2.37,2.37,0,0,1,.84,2.13c1.37.3,3.46.43,3.53,2.74a6.64,6.64,0,0,1-.08,1.84,1.48,1.48,0,0,1,.86.6c1,1.44-1.35,5.9-2.71,6.92-1,.72-2.22.71-3.86.34-1.39-.31-.61-1.69-.61-1.69l-2-.06c-4.52,2.65-5.26,8.62-11,9.45a38.5,38.5,0,0,0-7,.73c-12.47,3-33.4,13.6-44.28,13.58-10.61,0-9.82-5.6-9.42-12.07.36-5.77,10.77-42,16-49.18Z" transform="translate(0.01)"/><path class="cls-24" d="M83.74,173.34l8.14-1s-1.78,1.54-1.77,7S93,187.29,93,187.29l-12.1,4.63,2.81-18.59Z" transform="translate(0.01)"/><path class="cls-21" d="M70.2,172.28l-.64,2.17c-4.9.81-11.09,6.65-12.47,9.17C58.35,179.54,61.56,173.79,70.2,172.28Z" transform="translate(0.01)"/><path class="cls-22" d="M78.08,127.32a39.72,39.72,0,0,0-6,1.9c-3.26,1.31-7.59,3.29-9.88,6.52-3.49,4.92-5.74,9.71-8.61,18.62-2.73,8.48-7,22.47-8,29.95s-.55,11,1.19,12.74,6,3.3,12.71,1.83S86,191.41,86,191.41s-2.49-.07-2.64-7.46,1.82-10.89,1.82-10.89l-15.17,1,7.24-14.91S82.78,145.31,78.08,127.32Z" transform="translate(0.01)"/><path class="cls-23" d="M78.08,128a39.72,39.72,0,0,0-6,1.9c-3.26,1.31-7.59,3.29-9.88,6.52-3.49,4.92-5.74,9.71-8.61,18.62-2.73,8.48-7,22.47-8,29.95s-.55,11,1.19,12.74,6,3.3,12.71,1.83S86,192,86,192s-2.49-.07-2.64-7.46,1.82-10.89,1.82-10.89l-15.17,1,7.24-14.91S82.78,145.94,78.08,128Z" transform="translate(0.01)"/><path class="cls-17" d="M70.05,174.09c-5.33.61-10.92,2.73-13.62,7.6,2.37-8.21,10.52-10,14.86-10.14l-1.23,2.54Z" transform="translate(0.01)"/><path class="cls-21" d="M122.2,164.41l-6.1-1.8,6.05.93a2.35,2.35,0,0,1,0,.87Z" transform="translate(0.01)"/><path class="cls-21" d="M125.65,169l-7.07-1.55,7.15.73a4.08,4.08,0,0,1-.08.83Z" transform="translate(0.01)"/><path class="cls-21" d="M123.33,172.62a6.52,6.52,0,0,1-1,.19,23.25,23.25,0,0,1-2.51-.05,2.82,2.82,0,0,1-1,1.3,16,16,0,0,1-1.49,1l2,.06a3.09,3.09,0,0,1,2.13-1,1.47,1.47,0,0,1,.94.26,2.31,2.31,0,0,1,.66.84,1.91,1.91,0,0,0-.54-1,1.48,1.48,0,0,0-.72-.35l.48-.84a4.76,4.76,0,0,0,1.11-.28,2.31,2.31,0,0,0,1-.75,2.64,2.64,0,0,1-1.1.57Z" transform="translate(0.01)"/></g><path class="cls-8" d="M122.5,94.06c8.62-3.24,9.9-17.43,3.55-23.66A27.55,27.55,0,0,0,92,64c-7.73,4.13-10.72,9.18-10.72,15-8.93,13,4.66,28.15,13.23,36.91,13-1.6,17.32-16.9,28-21.88Z" transform="translate(0.01)"/><g id="Head"><g id="Head-2"><g id="Head-3"><path class="cls-20" d="M89.42,107.62A7,7,0,0,1,83,105.4c-3.45-3.57-3.87-7.3-2.39-9.84,1.22-2.09,4.33-3.49,6.58-2.17,2.41,1.41,2.52,2.61,3.46,4.26s3.19.27,2.22-6.43c4.52-2.3,3.55-10,5.94-13.17,3.73-5,10.16-4,12.28-2.85a8.33,8.33,0,0,1,8.69-.82c2.91,1.45,5.31,4,6.67,11.72.13.76-.55,4-.26,4.82,3.68,10.45,0,20.66-2.78,23.33-1.88,1.83-5.44,3.15-9.73,3l.16,4.59s12.75,12.53-3,11.83a24.8,24.8,0,0,1-18.17-9.59L92,105.65s-.21,1.48-2.55,2Z" transform="translate(0.01)"/><path class="cls-26" d="M116.21,104.93a3.52,3.52,0,0,1-6.95-1.17l6.94,1.17Z" transform="translate(0.01)"/><path class="cls-21" d="M109.28,104.91a3.5,3.5,0,0,0,2.88,2.9,3.43,3.43,0,0,0,1.24,0,3.57,3.57,0,0,0-4.12-2.88Z" transform="translate(0.01)"/><path class="cls-8" d="M108.44,91.86a2,2,0,1,1-1.38-2.55A2.06,2.06,0,0,1,108.44,91.86Z" transform="translate(0.01)"/><path class="cls-8" d="M123.78,85.63l-4.3-2.14a2.31,2.31,0,0,1,3.15-1.14A2.52,2.52,0,0,1,123.78,85.63Z" transform="translate(0.01)"/><path class="cls-8" d="M119.31,91.28a2,2,0,1,0,1.09-2.69A2.05,2.05,0,0,0,119.31,91.28Z" transform="translate(0.01)"/><path class="cls-8" d="M106.91,84.8l-4.45,2.58a2.46,2.46,0,0,1,.84-3.48A2.71,2.71,0,0,1,106.91,84.8Z" transform="translate(0.01)"/><polygon class="cls-21" points="121.42 97.14 115.31 99.92 112.94 88.75 121.42 97.14"/></g></g><path class="cls-21" d="M113.69,117.26c-6.18,0-14.51-2-16.85-5.9,1.36,4.25,5.77,6.35,9.27,7.22a35.74,35.74,0,0,0,7.6,1.08l0-2.39Z" transform="translate(0.01)"/></g></g></g></g><g id="Speech_Bubble" data-name="Speech Bubble"><path class="cls-27" d="M101.55,18.89C96.31,11.26,82.31,4.94,65,4.77,49.24,4.62,30.06,9.25,25.27,24.39c-4.09,12.91,8.5,24.9,21.56,27.45A90.53,90.53,0,0,0,62.6,53.51C65,58,70.7,60.81,75,61.1a12.58,12.58,0,0,1-2.84-8,82.16,82.16,0,0,0,12.1-2c22.68-5.67,23.18-23.68,17.32-32.22Z" transform="translate(0.01)"/><path class="cls-2" d="M101.55,18.89C96.31,11.26,82.31,4.94,65,4.77,49.24,4.62,30.06,9.25,25.27,24.39c-4.09,12.91,8.5,24.9,21.56,27.45A90.53,90.53,0,0,0,62.6,53.51C65,58,70.7,60.81,75,61.1a12.58,12.58,0,0,1-2.84-8,82.16,82.16,0,0,0,12.1-2c22.68-5.67,23.18-23.68,17.32-32.22Z" transform="translate(0.01)"/></g><g id="Podium"><g id="Podium-2"><polygon class="cls-28" points="162.19 458.89 162.19 445.68 228.16 407.59 228.16 420.8 162.19 458.89"/><polygon class="cls-6" points="162.19 445.68 104.75 412.52 104.75 425.73 162.19 458.89 162.19 445.68"/><polygon class="cls-9" points="162.19 445.68 104.75 412.52 104.75 425.73 162.19 458.89 162.19 445.68"/><polygon class="cls-1" points="162.19 445.68 104.75 412.52 175.44 377.16 228.16 407.59 162.19 445.68"/><polygon class="cls-28" points="162.19 440.24 218.74 407.59 225.12 237.32 162.19 273.65 162.19 440.24"/><polygon class="cls-6" points="162.19 440.24 114.19 412.52 107.81 242.25 162.19 273.65 162.19 440.24"/><polygon class="cls-9" points="162.19 440.24 114.19 412.52 107.81 242.25 162.19 273.65 162.19 440.24"/><polygon class="cls-29" points="224.37 257.25 225.12 237.32 162.19 273.65 107.81 242.25 108.56 262.18 162.19 293.15 224.37 257.25"/><polygon class="cls-6" points="173.63 290.39 213.68 267.27 209.9 399.43 173.63 420.42 173.63 290.39"/><path class="cls-1" d="M207.87,277.12l-3.56,119-25.05,14.51v-117l28.61-16.52m1.57-2.54-31.59,18.24V413.08L205.67,397l3.77-122.4Z" transform="translate(0.01)"/><polygon class="cls-28" points="157.78 286.92 157.78 268.66 246.13 217.64 246.13 235.9 157.78 286.92"/><polygon class="cls-6" points="157.78 268.66 95.92 241.52 95.92 251.21 157.78 286.92 157.78 268.66"/><polygon class="cls-24" points="157.78 268.66 95.92 241.52 184.28 190.51 246.13 217.64 157.78 268.66"/></g></g><g id="Paper"><path class="cls-2" d="M179.21,315.32,233.45,284a9.87,9.87,0,0,1-.51-3v-47.5a14.21,14.21,0,0,0-8.48-13l-54.57-24a5.75,5.75,0,0,1-3.44-5.27,5.1,5.1,0,0,1,.1-1l-50.17,29H113.9a5.75,5.75,0,0,0-2.31,11l54.57,24a14.21,14.21,0,0,1,8.48,13v47.5c0,2.8,1.44,5.89,3.2,6.92s3.2.25,3.2-1.71-.82-4-1.84-4.57Z" transform="translate(0.01)"/><path class="cls-2" d="M179.21,314.41l54.24-31.35a9.87,9.87,0,0,1-.51-3v-47.5a14.21,14.21,0,0,0-8.48-13l-54.57-24a5.75,5.75,0,0,1-3.44-5.27,5.1,5.1,0,0,1,.1-1l-50.17,29H113.9a5.75,5.75,0,0,0-2.31,11l54.57,24a14.21,14.21,0,0,1,8.48,13v47.5c0,2.8,1.44,5.89,3.2,6.92S181,321,181,319s-.82-4-1.84-4.57Z" transform="translate(0.01)"/><path class="cls-2" d="M171.51,186.13a5.76,5.76,0,0,0-2.91.79h0l-58.12,33.61a5.61,5.61,0,0,1,2.74-.7h2.48l50.17-29,8.13-4.71Z" transform="translate(0.01)"/><path class="cls-2" d="M171.05,186.47a5.76,5.76,0,0,0-2.91.79h0L110,220.87a5.61,5.61,0,0,1,2.74-.7h2.48l50.17-29,8.13-4.71Z" transform="translate(0.01)"/><path class="cls-2" d="M238.65,286.88c0-2-.82-4-1.84-4.57h0l-4.07,2.35L178.5,316c1,.55,1.84,2.6,1.84,4.57a2.12,2.12,0,0,1-.87,1.94h0l58.23-33.65h0l.06,0h0a2.17,2.17,0,0,0,.87-1.93Z" transform="translate(0.01)"/><path class="cls-2" d="M238.65,286.88c0-2-.82-4-1.84-4.57h0l-4.07,2.35L178.5,316c1,.55,1.84,2.6,1.84,4.57a2.12,2.12,0,0,1-.87,1.94h0l58.23-33.65h0l.06,0h0a2.17,2.17,0,0,0,.87-1.93Z" transform="translate(0.01)"/><path class="cls-2" d="M177.15,322.29c1.77,1,3.2.25,3.2-1.71s-.82-4-1.84-4.57l54.24-31.35a9.87,9.87,0,0,1-.51-3v-47.5a14.18,14.18,0,0,0-2-7.28L171.9,260.57a14.21,14.21,0,0,1,2,7.31v47.5c0,2.8,1.44,5.89,3.2,6.92Z" transform="translate(0.01)"/></g><g id="Plants"><g id="Plant"><g id="Pot"><path class="cls-30" d="M359.15,402.44c-7.4-7.61-11.79-26.91-4.5-32.91h36.77c7.18,6.11,2.89,25.3-4.5,32.91l-.21.21-.21.21-.64.64c-.11,0-.11.11-.21.11s-.32.32-.54.43l-1,.64c-6.11,3.54-16,3.54-22.08,0h0l-1-.64a2,2,0,0,1-.54-.43c-.11,0-.11-.11-.21-.21a3.06,3.06,0,0,0-.64-.54l-.32-.32c-.11.11-.21,0-.21-.11h0Z" transform="translate(0.01)"/><path class="cls-31" d="M388.2,367.07c8.36,4.93,8.36,12.86,0,17.8s-22,4.93-30.44,0-8.36-12.86,0-17.8S379.74,362.25,388.2,367.07Z" transform="translate(0.01)"/><path class="cls-32" d="M384.13,369.43c6.22,3.64,6.22,9.43,0,13.08s-16.19,3.64-22.3,0-6.22-9.43,0-13.08S378,365.89,384.13,369.43Z" transform="translate(0.01)"/><path class="cls-24" d="M361.83,375.64c6.22-3.64,16.19-3.64,22.3,0a9.33,9.33,0,0,1,3.64,3.43,9.4,9.4,0,0,1-3.64,3.43c-6.22,3.64-16.19,3.64-22.3,0a9.33,9.33,0,0,1-3.64-3.43A9.4,9.4,0,0,1,361.83,375.64Z" transform="translate(0.01)"/></g><path class="cls-33" d="M370.51,326.55c-2.79,3.11-10.61,3.86-13.94-4.4-3-7.72-6.32-15.12-7.29-17.9s1.93-3.75,1.93-3.75.21-4.29,7.4-1.39,12.33,7.29,15.44,14.36,1.29,12.11-3.54,13.08Z" transform="translate(0.01)"/><path class="cls-34" d="M370.51,326.55c-2.79,3.11-10.61,3.86-13.94-4.4-3-7.72-6.32-15.12-7.29-17.9s1.93-3.75,1.93-3.75.21-4.29,7.4-1.39,12.33,7.29,15.44,14.36,1.29,12.11-3.54,13.08Z" transform="translate(0.01)"/><path class="cls-33" d="M373.62,337.48a28.23,28.23,0,0,0-.64-4.29,79.26,79.26,0,0,0-2.36-8.36,61.62,61.62,0,0,0-8.36-15.44,48,48,0,0,0-6.54-7.5c-.11-.11-.11.11-.11.11a66.5,66.5,0,0,1,10.29,14.15,63.26,63.26,0,0,1,5.9,16.08c.32,1.61.64,3.11,1,4.72s.43,3.22.75,4.82c0,.11.32.21.32,0a31.61,31.61,0,0,0-.21-4.29Z" transform="translate(0.01)"/><path class="cls-2" d="M373.62,337.48a28.23,28.23,0,0,0-.64-4.29,79.26,79.26,0,0,0-2.36-8.36,61.62,61.62,0,0,0-8.36-15.44,48,48,0,0,0-6.54-7.5c-.11-.11-.11.11-.11.11a66.5,66.5,0,0,1,10.29,14.15,63.26,63.26,0,0,1,5.9,16.08c.32,1.61.64,3.11,1,4.72s.43,3.22.75,4.82c0,.11.32.21.32,0a31.61,31.61,0,0,0-.21-4.29Z" transform="translate(0.01)"/><path class="cls-33" d="M376.09,324.4c-6.43,2-11.26-3.11-9.65-10.93s10-16.72,13.08-14.36c1.93-1.93,6.32-1.29,8.36,5.15s.21,22.94-11.79,20.15h0Z" transform="translate(0.01)"/><path class="cls-23" d="M376.09,324.4c-6.43,2-11.26-3.11-9.65-10.93s10-16.72,13.08-14.36c1.93-1.93,6.32-1.29,8.36,5.15s.21,22.94-11.79,20.15h0Z" transform="translate(0.01)"/><path class="cls-33" d="M379.84,303.93a80.64,80.64,0,0,0-4.29,14.26,117.21,117.21,0,0,0-2.47,14.9,223.15,223.15,0,0,0-1.29,29.27c0,2.68.11,5.36.11,8s0,5.57.21,8.36c.11,1.07,1.61.75,1.61-.21.11-4.82-.21-9.76-.21-14.58s0-9.65.11-14.36a203.67,203.67,0,0,1,2.57-29.16c.43-2.68,1-5.36,1.61-8s1.5-5.57,2.25-8.36c0-.11-.21-.21-.21-.11h0Z" transform="translate(0.01)"/><path class="cls-2" d="M379.84,303.93a80.64,80.64,0,0,0-4.29,14.26,117.21,117.21,0,0,0-2.47,14.9,223.15,223.15,0,0,0-1.29,29.27c0,2.68.11,5.36.11,8s0,5.57.21,8.36c.11,1.07,1.61.75,1.61-.21.11-4.82-.21-9.76-.21-14.58s0-9.65.11-14.36a203.67,203.67,0,0,1,2.57-29.16c.43-2.68,1-5.36,1.61-8s1.5-5.57,2.25-8.36c0-.11-.21-.21-.21-.11h0Z" transform="translate(0.01)"/><path class="cls-33" d="M365.47,347.66c-2.79,3.22-9.33,2.89-13.61-2.79s-7-27.23-.86-25.84c1.29-2.89,18.22,4.07,20.37,18,1.61,10.18-5.9,10.61-5.9,10.61h0Z" transform="translate(0.01)"/><path class="cls-23" d="M365.47,347.66c-2.79,3.22-9.33,2.89-13.61-2.79s-7-27.23-.86-25.84c1.29-2.89,18.22,4.07,20.37,18,1.61,10.18-5.9,10.61-5.9,10.61h0Z" transform="translate(0.01)"/><path class="cls-33" d="M370.51,357.85c-.21-1.29-.54-2.68-.86-4a80.1,80.1,0,0,0-2.47-7.72,83.5,83.5,0,0,0-7.5-14.79,75.57,75.57,0,0,0-5.36-7.61c0-.11-.11.11-.11.11,1.5,2.14,3,4.4,4.4,6.65a80.69,80.69,0,0,1,3.86,7.4,104.61,104.61,0,0,1,5.57,15c.43,1.5.75,2.89,1.18,4.4s1,3,1.39,4.5c0,.21.32.32.32,0-.21-1.39-.21-2.68-.43-4h0Z" transform="translate(0.01)"/><path class="cls-2" d="M370.51,357.85c-.21-1.29-.54-2.68-.86-4a80.1,80.1,0,0,0-2.47-7.72,83.5,83.5,0,0,0-7.5-14.79,75.57,75.57,0,0,0-5.36-7.61c0-.11-.11.11-.11.11,1.5,2.14,3,4.4,4.4,6.65a80.69,80.69,0,0,1,3.86,7.4,104.61,104.61,0,0,1,5.57,15c.43,1.5.75,2.89,1.18,4.4s1,3,1.39,4.5c0,.21.32.32.32,0-.21-1.39-.21-2.68-.43-4h0Z" transform="translate(0.01)"/><path class="cls-33" d="M375.87,344.45c-3.64-.86-3.86-5.25.75-10.72s16.29-7.83,16.83-5.57c2.57,0,2.57,8.15-3.11,15.54S376.19,349.49,375.87,344.45Z" transform="translate(0.01)"/><path class="cls-23" d="M375.87,344.45c-3.64-.86-3.86-5.25.75-10.72s16.29-7.83,16.83-5.57c2.57,0,2.57,8.15-3.11,15.54S376.19,349.49,375.87,344.45Z" transform="translate(0.01)"/><path class="cls-33" d="M383.05,336.52a28.94,28.94,0,0,0-6.43,6.11,30.24,30.24,0,0,0-4.29,7.72c-.11.32.43.75.54.43a36.36,36.36,0,0,1,10.18-14.26c.11.11.11,0,0,0Z" transform="translate(0.01)"/><path class="cls-2" d="M383.05,336.52a28.94,28.94,0,0,0-6.43,6.11,30.24,30.24,0,0,0-4.29,7.72c-.11.32.43.75.54.43a36.36,36.36,0,0,1,10.18-14.26c.11.11.11,0,0,0Z" transform="translate(0.01)"/><path class="cls-33" d="M380.05,371.57c-5.15,2-2.89,8.15,2,12.86A22.54,22.54,0,0,0,397.74,390c3.54-.32,4.29-.75,4.29-.75a40.8,40.8,0,0,0,0-8.47,16.36,16.36,0,0,0-12.11-13c-7.93-2.25-9.86.64-9.86,3.75h0Z" transform="translate(0.01)"/><path class="cls-23" d="M380.05,371.57c-5.15,2-2.89,8.15,2,12.86A22.54,22.54,0,0,0,397.74,390c3.54-.32,4.29-.75,4.29-.75a40.8,40.8,0,0,0,0-8.47,16.36,16.36,0,0,0-12.11-13c-7.93-2.25-9.86.64-9.86,3.75h0Z" transform="translate(0.01)"/><path class="cls-33" d="M394.31,380.57a42,42,0,0,0-7.83-7.29c-2.89-1.93-6.75-3.54-10.29-2.36-1.39.43-3.43,1.82-3.22,3.54,0,.21.32.54.54.32a11.66,11.66,0,0,1,1.82-2.14,5.33,5.33,0,0,1,2.79-1.07,12.9,12.9,0,0,1,7.18,1.61c3.32,1.93,6.11,4.72,9,7.4h0Z" transform="translate(0.01)"/><path class="cls-2" d="M394.31,380.57a42,42,0,0,0-7.83-7.29c-2.89-1.93-6.75-3.54-10.29-2.36-1.39.43-3.43,1.82-3.22,3.54,0,.21.32.54.54.32a11.66,11.66,0,0,1,1.82-2.14,5.33,5.33,0,0,1,2.79-1.07,12.9,12.9,0,0,1,7.18,1.61c3.32,1.93,6.11,4.72,9,7.4h0Z" transform="translate(0.01)"/><path class="cls-33" d="M360.54,345.31c.54-2.36-2.89-7.93-13.4-9s-18.33,3.43-19.94,5.47-2.36,4.18-.54,4.72,8.47,1.18,12.76,3.22,13.08,7.83,19.08,6.11,5-8.15,2-10.51h0Z" transform="translate(0.01)"/><path class="cls-34" d="M360.54,345.31c.54-2.36-2.89-7.93-13.4-9s-18.33,3.43-19.94,5.47-2.36,4.18-.54,4.72,8.47,1.18,12.76,3.22,13.08,7.83,19.08,6.11,5-8.15,2-10.51h0Z" transform="translate(0.01)"/><path class="cls-33" d="M368.58,353.45c-4.4-9.11-15.87-11.9-25.19-11.9a37.25,37.25,0,0,0-9.11,1.18v.11a48.56,48.56,0,0,1,15.22-.11c4.93.86,9.86,2.36,13.94,5.36a17.47,17.47,0,0,1,4.93,5.57c.11.21.32,0,.21-.21Z" transform="translate(0.01)"/><path class="cls-2" d="M368.58,353.45c-4.4-9.11-15.87-11.9-25.19-11.9a37.25,37.25,0,0,0-9.11,1.18v.11a48.56,48.56,0,0,1,15.22-.11c4.93.86,9.86,2.36,13.94,5.36a17.47,17.47,0,0,1,4.93,5.57c.11.21.32,0,.21-.21Z" transform="translate(0.01)"/><path class="cls-33" d="M385,333.08c-.11,3.64,5,5.79,10.08,2.68s10.29-6.32,14.9-7.5,6.86-4.93,5.36-6.86-3.75-6.43-16-4.93-16.51,7-18.22,10.83,2,6.86,3.86,5.79Z" transform="translate(0.01)"/><path class="cls-34" d="M385,333.08c-.11,3.64,5,5.79,10.08,2.68s10.29-6.32,14.9-7.5,6.86-4.93,5.36-6.86-3.75-6.43-16-4.93-16.51,7-18.22,10.83,2,6.86,3.86,5.79Z" transform="translate(0.01)"/><path class="cls-33" d="M404.92,321.4a14.68,14.68,0,0,0-5.25.54,36.79,36.79,0,0,0-4.5,1.61,24.28,24.28,0,0,0-7.61,5.47,16.13,16.13,0,0,0-1.72,2,8.84,8.84,0,0,0-1.29,2.14c-.11.21.21.64.43.43a17.58,17.58,0,0,0,1.61-2.25l1.93-2.25a26.66,26.66,0,0,1,4.72-3.75,30.06,30.06,0,0,1,5.25-2.57c1-.32,2-.64,3-1a8.56,8.56,0,0,1,3.32-.43c.11.11.11,0,.11,0h0Z" transform="translate(0.01)"/><path class="cls-2" d="M404.92,321.4a14.68,14.68,0,0,0-5.25.54,36.79,36.79,0,0,0-4.5,1.61,24.28,24.28,0,0,0-7.61,5.47,16.13,16.13,0,0,0-1.72,2,8.84,8.84,0,0,0-1.29,2.14c-.11.21.21.64.43.43a17.58,17.58,0,0,0,1.61-2.25l1.93-2.25a26.66,26.66,0,0,1,4.72-3.75,30.06,30.06,0,0,1,5.25-2.57c1-.32,2-.64,3-1a8.56,8.56,0,0,1,3.32-.43c.11.11.11,0,.11,0h0Z" transform="translate(0.01)"/><path class="cls-33" d="M376.3,352.92c-1.72-1.72-6.32-1.29-8.58,3.75s2.36,10.61,2.89,12.11c2.14-1.18,3.75-.54,7.5-1.18a9.42,9.42,0,0,0,7.18-9.33c-.21-4.61-2.14-7.72-9-5.36h0Z" transform="translate(0.01)"/><path class="cls-34" d="M376.3,352.92c-1.72-1.72-6.32-1.29-8.58,3.75s2.36,10.61,2.89,12.11c2.14-1.18,3.75-.54,7.5-1.18a9.42,9.42,0,0,0,7.18-9.33c-.21-4.61-2.14-7.72-9-5.36h0Z" transform="translate(0.01)"/><path class="cls-33" d="M376.19,352.38a6.72,6.72,0,0,0-2.25,2.36,14.15,14.15,0,0,0-1.5,2.79,12,12,0,0,0-.64,6.43c0,.11.11,0,.11,0a14,14,0,0,1,1.07-6.32,19.64,19.64,0,0,1,1.5-2.57,5.47,5.47,0,0,1,1.07-1.18,7.9,7.9,0,0,0,1-1,.33.33,0,0,0-.32-.54h0Z" transform="translate(0.01)"/><path class="cls-2" d="M376.19,352.38a6.72,6.72,0,0,0-2.25,2.36,14.15,14.15,0,0,0-1.5,2.79,12,12,0,0,0-.64,6.43c0,.11.11,0,.11,0a14,14,0,0,1,1.07-6.32,19.64,19.64,0,0,1,1.5-2.57,5.47,5.47,0,0,1,1.07-1.18,7.9,7.9,0,0,0,1-1,.33.33,0,0,0-.32-.54h0Z" transform="translate(0.01)"/><path class="cls-33" d="M368.26,363.1c-.21-3.75-4.29-6.75-10-8.47A16,16,0,0,0,342,358.92c-4.28,4.5-6.43,8.47-4.72,9.65s9.43,3.86,14.36,5.47,11.58,2,16.62-1,4.72-8,0-10h0Z" transform="translate(0.01)"/><path class="cls-23" d="M368.26,363.1c-.21-3.75-4.29-6.75-10-8.47A16,16,0,0,0,342,358.92c-4.28,4.5-6.43,8.47-4.72,9.65s9.43,3.86,14.36,5.47,11.58,2,16.62-1,4.72-8,0-10h0Z" transform="translate(0.01)"/><path class="cls-33" d="M368.58,362.67a16,16,0,0,0-6.32-1.72,24.77,24.77,0,0,0-6.32.11,33.68,33.68,0,0,0-6.54,1.39c-1.07.32-2.25.64-3.32,1.07a24.62,24.62,0,0,0-3,1.29v.11a26.25,26.25,0,0,0,3.11-1c1.07-.32,2.25-.64,3.43-1a45.32,45.32,0,0,1,6.43-1.18,33.24,33.24,0,0,1,6.54,0,27.92,27.92,0,0,1,5.9,1.5c.43.11.32-.54.11-.64h0Z" transform="translate(0.01)"/><path class="cls-2" d="M368.58,362.67a16,16,0,0,0-6.32-1.72,24.77,24.77,0,0,0-6.32.11,33.68,33.68,0,0,0-6.54,1.39c-1.07.32-2.25.64-3.32,1.07a24.62,24.62,0,0,0-3,1.29v.11a26.25,26.25,0,0,0,3.11-1c1.07-.32,2.25-.64,3.43-1a45.32,45.32,0,0,1,6.43-1.18,33.24,33.24,0,0,1,6.54,0,27.92,27.92,0,0,1,5.9,1.5c.43.11.32-.54.11-.64h0Z" transform="translate(0.01)"/><path class="cls-33" d="M380.16,357.53c-4.18-3.32-2.79-11.15,11.68-11.58s24.87,3.32,24.44,8c2.36,2.36,1.18,8.9-10.61,10.93s-28.41,1-25.51-7.4Z" transform="translate(0.01)"/><path class="cls-23" d="M380.16,357.53c-4.18-3.32-2.79-11.15,11.68-11.58s24.87,3.32,24.44,8c2.36,2.36,1.18,8.9-10.61,10.93s-28.41,1-25.51-7.4Z" transform="translate(0.01)"/><path class="cls-33" d="M409.53,354a65.69,65.69,0,0,0-13-.75,50.61,50.61,0,0,0-12,1.39,30.7,30.7,0,0,0-2.89,1.07l-1.29.64c-.32.21-.75.43-.86.75s.21.54.43.43a13.74,13.74,0,0,0,2.57-1.29c.86-.32,1.72-.64,2.47-1a25.51,25.51,0,0,1,5-1,77,77,0,0,1,12.22-.64c2.36,0,4.72.21,7.18.43.11.11.21-.11.11-.11Z" transform="translate(0.01)"/><path class="cls-2" d="M409.53,354a65.69,65.69,0,0,0-13-.75,50.61,50.61,0,0,0-12,1.39,30.7,30.7,0,0,0-2.89,1.07l-1.29.64c-.32.21-.75.43-.86.75s.21.54.43.43a13.74,13.74,0,0,0,2.57-1.29c.86-.32,1.72-.64,2.47-1a25.51,25.51,0,0,1,5-1,77,77,0,0,1,12.22-.64c2.36,0,4.72.21,7.18.43.11.11.21-.11.11-.11Z" transform="translate(0.01)"/></g></g></svg>