<svg id="Layer_1" data-name="Layer 1" xmlns="http://www.w3.org/2000/svg" viewBox="0 0 491.6 468.09"><defs><style>.cls-1{fill:#fafafa;}.cls-2,.cls-34{fill:#fff;}.cls-3{fill:#f0f0f0;}.cls-4{fill:#e0e0e0;}.cls-5{fill:#f5f5f5;}.cls-6{fill:#455a64;}.cls-7{fill:#263238;}.cls-8{fill:#37474f;}.cls-18,.cls-20,.cls-24,.cls-25,.cls-29,.cls-33,.cls-34,.cls-9{isolation:isolate;}.cls-26,.cls-9{opacity:0.3;}.cls-10{fill:#ba68c8;}.cls-11{fill:#3950a2;}.cls-12{fill:#ebebeb;}.cls-13{fill:#e6e6e6;}.cls-14{opacity:0.8;}.cls-15{fill:#bbe2d8;}.cls-16{opacity:0.65;}.cls-17{fill:#74cfec;}.cls-18,.cls-20{opacity:0.45;}.cls-19,.cls-20{fill:#00a6e3;}.cls-21{fill:#4662ad;}.cls-22{fill:#606060;}.cls-23{fill:#ffa8a7;}.cls-24{fill:#5293cf;opacity:0.25;}.cls-25{opacity:0.1;}.cls-27{fill:none;}.cls-28{fill:#f28f8f;}.cls-29{opacity:0.4;}.cls-30{fill:#b16668;}.cls-31{fill:#ffbda7;}.cls-32{fill:#f0997a;}.cls-33{opacity:0.15;}.cls-34{opacity:0.7;}</style></defs><g id="Floor"><path id="Floor-2" class="cls-1" d="M72,245.4C-24,296.3-24,379,72,429.9s251.6,51,347.6,0,96-133.6,0-184.5S168,194.5,72,245.4Z" transform="translate(0 -0.06)"/></g><g id="Pictures"><g id="Picture"><g id="Frame"><polygon class="cls-1" points="37.3 161.24 38.8 162.14 70 144.14 68.5 143.24 37.3 161.24"/><polygon class="cls-2" points="68.5 143.24 38.8 160.44 38.8 129.34 68.5 112.24 68.5 143.24"/><path class="cls-3" d="M72.9,106.4,36,127.8v39.4l36.9-21.3ZM70,144.2l-31.2,18V129.4l31.2-18Z" transform="translate(0 -0.06)"/><polygon class="cls-4" points="70 144.14 68.5 143.24 68.5 112.24 70 111.34 70 144.14"/><polygon class="cls-1" points="72.9 106.34 71.3 105.54 34.4 126.84 36 127.74 72.9 106.34"/><polygon class="cls-4" points="34.4 126.84 36 127.74 36 167.14 34.4 166.24 34.4 126.84"/></g><g id="Land"><polygon class="cls-3" points="67.3 142.34 40 158.14 40 150.24 46.8 134.44 51.1 138.44 49.5 145.04 59 124.84 67.3 134.44 67.3 142.34"/><path class="cls-3" d="M50.8,126.9a4.4,4.4,0,0,0-2,3.5c0,1.3.9,1.8,2,1.2a4.4,4.4,0,0,0,2-3.5C52.8,126.8,51.9,126.3,50.8,126.9Z" transform="translate(0 -0.06)"/></g></g><g id="Picture-2"><g id="Frame-2"><polygon class="cls-1" points="37.3 217.34 38.8 218.34 70 200.34 68.5 199.34 37.3 217.34"/><polygon class="cls-2" points="68.5 199.34 38.8 216.54 38.8 185.44 68.5 168.34 68.5 199.34"/><path class="cls-3" d="M72.9,162.6,36,183.9v39.4L72.9,202ZM70,200.4l-31.2,18V185.6l31.2-18Z" transform="translate(0 -0.06)"/><polygon class="cls-4" points="70 200.34 68.5 199.34 68.5 168.34 70 167.44 70 200.34"/><polygon class="cls-1" points="72.9 162.54 71.3 161.64 34.4 182.94 36 183.84 72.9 162.54"/><polygon class="cls-4" points="34.4 182.94 36 183.84 36 223.24 34.4 222.34 34.4 182.94"/></g><g id="Land-2"><polygon class="cls-3" points="67.3 198.44 40 214.24 40 206.34 46.8 190.54 51.1 194.54 49.5 201.14 59 180.94 67.3 190.54 67.3 198.44"/><path class="cls-3" d="M50.8,183a4.4,4.4,0,0,0-2,3.5c0,1.3.9,1.8,2,1.2a4.4,4.4,0,0,0,2-3.5C52.8,182.9,51.9,182.4,50.8,183Z" transform="translate(0 -0.06)"/></g></g><g id="Picture-3"><g id="Frame-3"><polygon class="cls-1" points="84.6 189.74 86.2 190.64 119.7 171.34 118.1 170.34 84.6 189.74"/><polygon class="cls-2" points="118.1 170.34 86.2 188.74 86.2 102.44 118.1 84.04 118.1 170.34"/><path class="cls-3" d="M122.8,77.8,83.1,100.7v95.4l39.7-22.9V77.8Zm-3.1,93.6L86.2,190.8V102.5l33.5-19.3v88.2Z" transform="translate(0 -0.06)"/><polygon class="cls-4" points="119.7 171.34 118.1 170.34 118.1 84.04 119.7 83.04 119.7 171.34"/><polygon class="cls-1" points="122.8 77.74 121.2 76.74 81.5 99.74 83.1 100.64 122.8 77.74"/><polygon class="cls-4" points="81.5 99.74 83.1 100.64 83.1 196.04 81.5 195.04 81.5 99.74"/></g><g id="Land-3"><polygon class="cls-3" points="115.7 168.44 88.6 184.04 88.6 105.34 115.7 89.64 115.7 168.44"/></g><g id="Land-4"><polygon class="cls-3" points="115.7 168.44 88.6 184.04 88.6 105.34 115.7 89.64 115.7 168.44"/></g><path class="cls-1" d="M88.6,157.9a25.39,25.39,0,0,0,3.9,0,45.89,45.89,0,0,0,13.2-2.9c3.3-1.2,6.6-2.8,10-2.9v16.4l-3.7,2.1a13.12,13.12,0,0,0-5-2.8c-5.2-1.4-10.6,1.2-15.9,1.9a20.08,20.08,0,0,1-2.5.1Z" transform="translate(0 -0.06)"/><path class="cls-1" d="M88.6,138.2c6.1-1.8,12.3-3.3,16.6-7.7,3.5-3.6,5.1-8.6,6.3-13.4s1.9-9.9,4.1-14.4l.1-.1v36.2c-.3.5-.7,1-1,1.5-4,5.4-9.8,9.9-16.5,10.2-3.2.2-6.4-.6-9.5-.6l-.1-11.7Z" transform="translate(0 -0.06)"/><path class="cls-1" d="M88.6,120.2a18.44,18.44,0,0,0,6-16.8c-.1-.4-.2-.9-.3-1.3l10.4-6c0,.7-.1,1.4-.1,2.1-.1,4,0,8-.8,11.9a23,23,0,0,1-11.9,15.3,23.29,23.29,0,0,1-3.3,1.4v-6.6Z" transform="translate(0 -0.06)"/></g></g><g id="Windows"><g id="Window"><g id="Window-2"><g id="Frame-4"><polygon class="cls-1" points="384.7 165.44 382.9 166.54 323.9 132.54 325.7 131.44 384.7 165.44"/><polygon class="cls-2" points="325.7 131.44 382.9 164.44 382.9 45.04 325.7 12.04 325.7 131.44"/><path class="cls-5" d="M320.6,134.5l65.7,37.9V43.2l-65.7-38Zm3.3-123.4,59,34V166.6l-59-34.1Z" transform="translate(0 -0.06)"/><polygon class="cls-4" points="323.9 132.54 325.7 131.44 325.7 12.04 323.9 11.04 323.9 132.54"/><polygon class="cls-1" points="382.9 122.64 382.9 124.74 323.9 90.74 325.7 89.64 382.9 122.64"/><polygon class="cls-1" points="382.9 80.84 382.9 82.94 323.9 48.94 325.7 47.84 382.9 80.84"/><polygon class="cls-1" points="320.6 5.14 322.4 4.14 388.1 42.04 386.3 43.14 320.6 5.14"/><polygon class="cls-4" points="388.1 42.04 386.3 43.14 386.3 172.34 388.1 171.34 388.1 42.04"/><polygon class="cls-4" points="356.9 30.04 355.1 28.94 355.1 150.54 356.9 149.44 356.9 30.04"/></g><polygon class="cls-5" points="351.7 27.04 355.1 28.94 355.1 150.54 351.7 148.54 351.7 27.04"/><polygon class="cls-5" points="320.6 46.94 320.6 50.84 386.3 88.74 386.3 84.84 320.6 46.94"/><polygon class="cls-5" points="320.6 88.74 320.6 92.64 386.3 130.54 386.3 126.74 320.6 88.74"/><polygon class="cls-1" points="355.1 66.94 356.9 65.84 382.9 80.84 382.9 82.94 355.1 66.94"/><polygon class="cls-1" points="355.1 108.64 356.9 107.64 382.9 122.64 382.9 124.74 355.1 108.64"/></g></g><g id="Window-3"><g id="Window-4"><g id="Frame-5"><polygon class="cls-1" points="467.1 213.04 465.4 214.14 406.4 180.04 408.2 179.04 467.1 213.04"/><polygon class="cls-2" points="408.2 179.04 465.4 212.04 465.4 92.64 408.2 59.64 408.2 179.04"/><path class="cls-5" d="M403,182.1,468.7,220V90.8L403,52.8V182.1Zm3.4-123.4,59,34.1V214.3l-59-34.1V58.7Z" transform="translate(0 -0.06)"/><polygon class="cls-4" points="406.4 180.04 408.2 179.04 408.2 59.64 406.4 58.64 406.4 180.04"/><polygon class="cls-1" points="465.4 170.24 465.4 172.34 406.4 138.34 408.2 137.24 465.4 170.24"/><polygon class="cls-1" points="465.4 128.44 465.4 130.54 406.4 96.54 408.2 95.44 465.4 128.44"/><polygon class="cls-1" points="403 52.74 404.8 51.74 470.5 89.64 468.7 90.74 403 52.74"/><polygon class="cls-4" points="470.5 89.64 468.7 90.74 468.7 219.94 470.5 218.94 470.5 89.64"/><polygon class="cls-4" points="439.4 77.64 437.6 76.64 437.6 198.14 439.4 197.04 439.4 77.64"/></g><polygon class="cls-5" points="434.2 74.64 437.6 76.64 437.6 198.14 434.2 196.14 434.2 74.64"/><polygon class="cls-5" points="403 94.54 403 98.44 468.7 136.34 468.7 132.54 403 94.54"/><polygon class="cls-5" points="403 136.34 403 140.24 468.7 178.14 468.7 174.34 403 136.34"/><polygon class="cls-1" points="437.6 114.54 439.4 113.44 465.4 128.44 465.4 130.54 437.6 114.54"/><polygon class="cls-1" points="437.6 156.34 439.4 155.24 465.4 170.24 465.4 172.34 437.6 156.34"/></g></g></g><g id="Stage"><g id="Stage-2"><polygon class="cls-6" points="34.5 312.64 119.8 361.84 367.5 218.84 282.2 169.54 34.5 312.64"/><polygon class="cls-7" points="34.5 312.64 119.8 361.84 119.8 388.44 34.5 339.24 34.5 312.64"/><polygon class="cls-8" points="367.5 218.84 367.5 245.44 119.8 388.44 119.8 361.84 367.5 218.84"/><polygon class="cls-6" points="26.3 299.34 119.8 353.24 375.6 205.54 282.2 151.54 26.3 299.34"/><polygon class="cls-7" points="26.3 299.34 119.8 353.24 119.8 361.84 26.3 307.94 26.3 299.34"/><polygon class="cls-8" points="375.6 205.54 375.6 214.14 119.8 361.84 119.8 353.24 375.6 205.54"/><polygon class="cls-9" points="34.5 319.44 119.8 368.74 119.8 361.84 34.5 312.64 34.5 319.44"/><polygon class="cls-9" points="119.8 368.74 119.8 368.74 367.5 225.64 367.5 218.84 119.8 361.84 119.8 368.74"/></g></g><g id="Board"><g id="Board-2"><g id="Board-3"><path class="cls-4" d="M274.2,2.5l.8.5V117.5c0,2.6-1.6,5.7-3.5,6.8L162.6,187.2a2.22,2.22,0,0,1-2.2.2,7.26,7.26,0,0,1-.9-.5c-.8-.4-1.2-1.4-1.2-2.9V69.5Z" transform="translate(0 -0.06)"/><path class="cls-1" d="M161.1,187.1c-1,0-1.7-1-1.7-2.7V70.2L274.5,3.8V117.5a8.12,8.12,0,0,1-3.3,6.4L162.3,186.8a2.66,2.66,0,0,1-1.2.3Z" transform="translate(0 -0.06)"/><path class="cls-4" d="M274.1,4.6v113a7.6,7.6,0,0,1-3.1,6L162.1,186.5a2.24,2.24,0,0,1-1,.3c-.9,0-1.2-1.2-1.2-2.2V70.6l114.2-66M275,3,159,70V184.5c0,1.9.9,3.1,2.1,3.1a2.73,2.73,0,0,0,1.4-.4l108.9-62.9c2-1.1,3.5-4.2,3.5-6.8L275,3Z" transform="translate(0 -0.06)"/></g><g id="Chart"><polygon class="cls-4" points="172.8 169.54 257.3 120.84 257.3 24.64 172.8 73.44 172.8 169.54"/><path class="cls-10" d="M176.3,168.6l-.4-.2a2.52,2.52,0,0,1-1.1-1.9V75.9a2.37,2.37,0,0,1,1.1-1.9l81.4-47.1a2.17,2.17,0,0,1,2.2,0l.4.2a2.55,2.55,0,0,1,1.1,2v90.4a2.37,2.37,0,0,1-1.1,1.9l-81.4,47.1a2.44,2.44,0,0,1-2.2.1Z" transform="translate(0 -0.06)"/><path class="cls-11" d="M176.3,168.6l-.4-.2a2.52,2.52,0,0,1-1.1-1.9V75.9a2.37,2.37,0,0,1,1.1-1.9l81.4-47.1a2.17,2.17,0,0,1,2.2,0l.4.2a2.55,2.55,0,0,1,1.1,2v90.4a2.37,2.37,0,0,1-1.1,1.9l-81.4,47.1a2.44,2.44,0,0,1-2.2.1Z" transform="translate(0 -0.06)"/><path class="cls-11" d="M174.8,75.9v90.4a2.37,2.37,0,0,0,1.1,1.9l.4.2a2.32,2.32,0,0,0,2,.1c-.5.1-.9-.1-.9-.8V77.4a2.28,2.28,0,0,1,.3-1.1l-2.6-1.5a2.61,2.61,0,0,0-.3,1.1Z" transform="translate(0 -0.06)"/><path class="cls-1" d="M178,168.4c-.3,0-.4-.4-.4-.5V77.5a2.06,2.06,0,0,1,1-1.7L260,28.7a.6.6,0,0,1,.4-.1c.3,0,.4.4.4.5v90.4a2.33,2.33,0,0,1-1,1.7l-81.4,47.1A.6.6,0,0,1,178,168.4Z" transform="translate(0 -0.06)"/><path class="cls-11" d="M260.5,28.8h0a.44.44,0,0,1,.1.3v90.4a2,2,0,0,1-.9,1.5l-81.4,47.1a.31.31,0,0,1-.2.1h0a.44.44,0,0,1-.1-.3V77.5a2,2,0,0,1,.9-1.5l81.4-47.1a.31.31,0,0,1,.2-.1m0-.5a1.09,1.09,0,0,0-.5.1L178.6,75.5a2.52,2.52,0,0,0-1.1,1.9v90.4c0,.5.2.8.6.8a4.33,4.33,0,0,1,.5-.1L260,121.4a2.52,2.52,0,0,0,1.1-1.9V29.1c0-.5-.2-.8-.6-.8Z" transform="translate(0 -0.06)"/><path class="cls-10" d="M251.2,41.3a4.09,4.09,0,0,0-1.9,3.3,1.17,1.17,0,0,0,1.9,1.1,4.36,4.36,0,0,0,1.9-3.3C253.1,41.2,252.3,40.7,251.2,41.3Z" transform="translate(0 -0.06)"/><path class="cls-12" d="M247.9,45a2.88,2.88,0,0,1-1.4,2.3l-13.1,7.6c-.8.5-1.4.1-1.4-.7a2.88,2.88,0,0,1,1.4-2.3l13.1-7.6C247.2,43.9,247.9,44.2,247.9,45Z" transform="translate(0 -0.06)"/><path class="cls-10" d="M251.2,50.5a4.09,4.09,0,0,0-1.9,3.3,1.17,1.17,0,0,0,1.9,1.1,4.36,4.36,0,0,0,1.9-3.3C253.1,50.4,252.3,49.9,251.2,50.5Z" transform="translate(0 -0.06)"/><path class="cls-9" d="M251.2,50.5a4.09,4.09,0,0,0-1.9,3.3,1.17,1.17,0,0,0,1.9,1.1,4.36,4.36,0,0,0,1.9-3.3C253.1,50.4,252.3,49.9,251.2,50.5Z" transform="translate(0 -0.06)"/><path class="cls-12" d="M247.9,54.2a2.88,2.88,0,0,1-1.4,2.3l-13.1,7.6c-.8.4-1.4.1-1.4-.7a2.88,2.88,0,0,1,1.4-2.3l13.1-7.6C247.2,53.1,247.9,53.4,247.9,54.2Z" transform="translate(0 -0.06)"/><g id="Chart-2"><path class="cls-11" d="M219.9,97.2V70.7c7-4,13.4,0,15.7,9.4,2.8,11.6-1.8,29.7-10.3,39.2l-5.4-22.1Z" transform="translate(0 -0.06)"/><path class="cls-13" d="M219,123.4a14,14,0,0,1-4.3,1.6l4.3-22.8,4.3,17.8A24.5,24.5,0,0,1,219,123.4Z" transform="translate(0 -0.06)"/><path class="cls-10" d="M219,123.4a14,14,0,0,1-4.3,1.6l4.3-22.8,4.3,17.8A24.5,24.5,0,0,1,219,123.4Z" transform="translate(0 -0.06)"/><g class="cls-14"><path class="cls-15" d="M219,123.4a14,14,0,0,1-4.3,1.6l4.3-22.8,4.3,17.8A24.5,24.5,0,0,1,219,123.4Z" transform="translate(0 -0.06)"/></g><path class="cls-13" d="M212.8,126.5c-4.6.2-8.4-3.5-10.1-9.7l14.9-16.1-4.8,25.8Z" transform="translate(0 -0.06)"/><path class="cls-10" d="M212.8,126.5c-4.6.2-8.4-3.5-10.1-9.7l14.9-16.1-4.8,25.8Z" transform="translate(0 -0.06)"/><g class="cls-16"><path class="cls-17" d="M212.8,126.5c-4.6.2-8.4-3.5-10.1-9.7l14.9-16.1-4.8,25.8Z" transform="translate(0 -0.06)"/></g><path class="cls-13" d="M203,113.7a30.64,30.64,0,0,1-.6-6.3c0-13.6,6.9-28.7,15.7-34.4V97.4L203,113.7Z" transform="translate(0 -0.06)"/><path class="cls-10" d="M203,113.7a30.64,30.64,0,0,1-.6-6.3c0-13.6,6.9-28.7,15.7-34.4V97.4L203,113.7Z" transform="translate(0 -0.06)"/><g class="cls-18"><path class="cls-19" d="M203,113.7a30.64,30.64,0,0,1-.6-6.3c0-13.6,6.9-28.7,15.7-34.4V97.4L203,113.7Z" transform="translate(0 -0.06)"/></g><path class="cls-6" d="M231,82.3V82a2.19,2.19,0,0,1,.3-.5l1-.6c.1-.1.1.1.1.3a2.19,2.19,0,0,1-.3.5l-1.1.6Zm2-1.2v-.3a2.19,2.19,0,0,1,.3-.5l1-.6c.1-.1.1.1.1.3a2.19,2.19,0,0,1-.3.5l-1.1.6Zm2.1-1.2v-.3a2.19,2.19,0,0,1,.3-.5l1-.6c.1-.1.1.1.1.3a2.19,2.19,0,0,1-.3.5l-1.1.6Zm2-1.1v-.3a2.19,2.19,0,0,1,.3-.5l1-.6c.1-.1.1.1.1.3a2.19,2.19,0,0,1-.3.5l-1.1.6Zm2-1.2v-.3a2.19,2.19,0,0,1,.3-.5l1-.6c.1-.1.1.1.1.3a2.19,2.19,0,0,1-.3.5l-1.1.6Zm2.1-1.2v-.3a2.19,2.19,0,0,1,.3-.5l.8-.4c.1-.1.1.1.1.3a2.19,2.19,0,0,1-.3.5l-.9.4Z" transform="translate(0 -0.06)"/><path class="cls-6" d="M197.4,101.3V101a2.19,2.19,0,0,1,.3-.5l1-.6c.1-.1.1.1.1.3a2.19,2.19,0,0,1-.3.5l-1.1.6Zm2.1-1.2v-.3a2.19,2.19,0,0,1,.3-.5l1-.6c.1-.1.1.1.1.3a2.19,2.19,0,0,1-.3.5l-1.1.6Zm2-1.2v-.3a2.19,2.19,0,0,1,.3-.5l1-.6c.1-.1.1.1.1.3a2.19,2.19,0,0,1-.3.5l-1.1.6Zm2-1.2v-.3a2.19,2.19,0,0,1,.3-.5l1-.6c.1-.1.1.1.1.3a2.19,2.19,0,0,1-.3.5l-1.1.6C203.6,97.7,203.6,97.8,203.5,97.7Zm2.1-1.1v-.3a2.19,2.19,0,0,1,.3-.5l1-.6c.1-.1.1.1.1.3a2.19,2.19,0,0,1-.3.5l-1.1.6Zm2-1.2v-.3a2.19,2.19,0,0,1,.3-.5l.7-.4c.1-.1.1.1.1.3a2.19,2.19,0,0,1-.3.5l-.8.4Z" transform="translate(0 -0.06)"/><path class="cls-6" d="M229.4,82.9a1.78,1.78,0,0,1,.6-1.3c.4-.2.6.1.6.6a1.78,1.78,0,0,1-.6,1.3C229.7,83.7,229.4,83.5,229.4,82.9Z" transform="translate(0 -0.06)"/><path class="cls-6" d="M208.1,94.8a1.78,1.78,0,0,1,.6-1.3c.4-.2.6.1.6.6a1.78,1.78,0,0,1-.6,1.3C208.4,95.6,208.1,95.4,208.1,94.8Z" transform="translate(0 -0.06)"/><path class="cls-6" d="M218.4,121.1a1.78,1.78,0,0,1,.6-1.3c.4-.2.6.1.6.6a1.78,1.78,0,0,1-.6,1.3Q218.4,122,218.4,121.1Z" transform="translate(0 -0.06)"/><path class="cls-6" d="M198.6,135.4v-.3a2.19,2.19,0,0,1,.3-.5l1-.6c.1-.1.1.1.1.3a2.19,2.19,0,0,1-.3.5l-1.1.6Zm2-1.1V134a2.19,2.19,0,0,1,.3-.5l1-.6c.1-.1.1.1.1.3a2.19,2.19,0,0,1-.3.5l-1.1.6Zm2-1.2v-.3a2.19,2.19,0,0,1,.3-.5l1-.6c.1-.1.1.1.1.3a2.19,2.19,0,0,1-.3.5l-1.1.6Zm2.1-1.2v-.3a2.19,2.19,0,0,1,.3-.5l1-.6c.1-.1.1.1.1.3a2.19,2.19,0,0,1-.3.5l-1.1.6Zm2-1.2v-.3a2.19,2.19,0,0,1,.3-.5l1-.6c.1-.1.1.1.1.3a2.19,2.19,0,0,1-.3.5l-1.1.6C206.8,130.7,206.7,130.8,206.7,130.7Zm1.4-1.7v-1.7a1.06,1.06,0,0,1,.2-.5c.1-.2.2-.2.2,0v1.6a1.06,1.06,0,0,1-.2.5c-.1.1-.1.1-.2.1Zm0-3.1h0v-1.7a1.06,1.06,0,0,1,.2-.5c.1-.2.2-.2.2,0v1.6a1.06,1.06,0,0,1-.2.5C208.2,125.9,208.2,125.9,208.1,125.9Zm0-3.2h0v-1.6a1.06,1.06,0,0,1,.2-.5c.1-.2.2-.2.2,0v1.5a1.06,1.06,0,0,1-.2.5C208.2,122.7,208.2,122.8,208.1,122.7Z" transform="translate(0 -0.06)"/><path class="cls-6" d="M207.7,120.2a1.78,1.78,0,0,1,.6-1.3c.4-.2.6.1.6.6a1.78,1.78,0,0,1-.6,1.3C208,121,207.7,120.8,207.7,120.2Z" transform="translate(0 -0.06)"/><path class="cls-6" d="M218.8,129.3v-1a1.06,1.06,0,0,1,.2-.5c.1-.2.2-.2.2,0v.8l.3-.2c.1-.1.1.1.1.3a2.19,2.19,0,0,1-.3.5l-.5.1Zm1.4-.8v-.3a2.19,2.19,0,0,1,.3-.5l1-.6c.1-.1.1.1.1.3a2.19,2.19,0,0,1-.3.5l-1.1.6Zm-1.4-1.7h0v-1.7a1.06,1.06,0,0,1,.2-.5c.1-.2.2-.2.2,0v1.6a1.06,1.06,0,0,1-.2.5C218.9,126.8,218.9,126.8,218.8,126.8Zm3.5.5V127a2.19,2.19,0,0,1,.3-.5l1-.6c.1-.1.1.1.1.3a2.19,2.19,0,0,1-.3.5l-1.1.6Zm-3.5-3.7h0v-1.7a1.06,1.06,0,0,1,.2-.5c.1-.2.2-.2.2,0V123a1.06,1.06,0,0,1-.2.5C218.9,123.6,218.9,123.7,218.8,123.6Zm5.5,2.5v-.3a2.19,2.19,0,0,1,.3-.5l1-.6c.1-.1.1.1.1.3a2.19,2.19,0,0,1-.3.5l-1.1.6Zm2.1-1.2v-.3a2.19,2.19,0,0,1,.3-.5l1-.6c.1-.1.1.1.1.3a2.19,2.19,0,0,1-.3.5l-1.1.6Zm2-1.2v-.3a2.19,2.19,0,0,1,.3-.5l1-.6c.1-.1.1.1.1.3a2.19,2.19,0,0,1-.3.5l-1.1.6C228.5,123.7,228.4,123.8,228.4,123.7Z" transform="translate(0 -0.06)"/><path class="cls-6" d="M230.4,122.6v-.3a2.19,2.19,0,0,1,.3-.5l1-.6c.1-.1.1.1.1.3a2.19,2.19,0,0,1-.3.5l-1.1.6Z" transform="translate(0 -0.06)"/><path class="cls-6" d="M232.5,121.4v-.3a2.19,2.19,0,0,1,.3-.5l1-.6c.1-.1.1.1.1.3a2.19,2.19,0,0,1-.3.5l-1.1.6Z" transform="translate(0 -0.06)"/><path class="cls-6" d="M234.5,120.2v-.3a2.19,2.19,0,0,1,.3-.5l1-.6c.1-.1.1.1.1.3a2.19,2.19,0,0,1-.3.5l-1.1.6Z" transform="translate(0 -0.06)"/><path class="cls-6" d="M236.5,119.1v-.3a2.19,2.19,0,0,1,.3-.5l1-.6c.1-.1.1.1.1.3a2.19,2.19,0,0,1-.3.5l-1.1.6Z" transform="translate(0 -0.06)"/><path class="cls-4" d="M183.5,114l11.7-6.8a2,2,0,0,0,.8-1.5c0-.6-.4-.8-.8-.6l-11.8,6.7a2.26,2.26,0,0,0-.8,1.6c0,.6.4.8.9.6Z" transform="translate(0 -0.06)"/><path class="cls-4" d="M184.3,148.1l11.7-6.9a2,2,0,0,0,.8-1.5c0-.6-.4-.8-.8-.6l-11.8,6.7a2.26,2.26,0,0,0-.8,1.6c0,.6.4.9.9.7Z" transform="translate(0 -0.06)"/><path class="cls-4" d="M239.5,122.7l11.7-6.8a2,2,0,0,0,.8-1.5c0-.6-.4-.8-.8-.6l-11.8,6.7a2.26,2.26,0,0,0-.8,1.6c0,.6.4.9.9.6Z" transform="translate(0 -0.06)"/><path class="cls-4" d="M243,82.5l11.7-6.8a2,2,0,0,0,.8-1.5c0-.6-.4-.8-.8-.6l-11.8,6.7a2.26,2.26,0,0,0-.8,1.6.6.6,0,0,0,.9.6Z" transform="translate(0 -0.06)"/></g></g><g id="Tube"><path class="cls-6" d="M158.4,73.4l-2.7-4.7L274.4.2h0a1.43,1.43,0,0,1,1.4.1,4.09,4.09,0,0,1,1.9,3.3,1.36,1.36,0,0,1-.5,1.2h0L158.4,73.4Z" transform="translate(0 -0.06)"/><path class="cls-7" d="M159,72.1a4.36,4.36,0,0,0-1.9-3.3,1.17,1.17,0,0,0-1.9,1.1,4.36,4.36,0,0,0,1.9,3.3C158.1,73.8,159,73.4,159,72.1Z" transform="translate(0 -0.06)"/></g></g></g><g id="Shadows"><path id="Shadow" class="cls-4" d="M81.5,401c8.7,5.1,8.7,13.4,0,18.4s-22.9,5.1-31.6,0-8.7-13.4,0-18.4S72.8,395.9,81.5,401Z" transform="translate(0 -0.06)"/><path id="Shadow-2" class="cls-4" d="M348.3,413.6l-51.8-29.9c-3.2-1.9-3.2-5,.1-6.9l32.1-18.5a13.34,13.34,0,0,1,12,0l51.8,29.8c3.3,1.9,3.3,5,0,6.9l-32.1,18.7a13.25,13.25,0,0,1-12.1-.1Z" transform="translate(0 -0.06)"/><path id="Shadow-3" class="cls-4" d="M281.8,452l-52-29.9c-3.2-1.9-3.2-5,.1-6.9l32.3-18.6a13.34,13.34,0,0,1,12,0L326,426.4c3.3,1.9,3.3,5,0,6.9L293.8,452a13.34,13.34,0,0,1-12,0Z" transform="translate(0 -0.06)"/><path id="Shadow-4" class="cls-4" d="M414.5,375.2l-52-29.9c-3.2-1.9-3.2-5,.1-6.9l32.3-18.6a13.34,13.34,0,0,1,12,0l51.8,29.8c3.3,1.9,3.3,5,0,6.9l-32.1,18.7a13.56,13.56,0,0,1-12.1,0Z" transform="translate(0 -0.06)"/><ellipse id="Shadow-5" class="cls-8" cx="126.4" cy="302.54" rx="46.2" ry="26.7"/></g><g id="Plants"><g id="Plant"><g id="Pot"><path class="cls-8" d="M52.8,410.4c-6.9-7.1-11-25.1-4.2-30.7H82.9c6.7,5.7,2.7,23.6-4.2,30.7l-.2.2-.2.2-.6.6c-.1,0-.1.1-.2.1s-.3.3-.5.4l-.9.6c-5.7,3.3-14.9,3.3-20.6,0h0l-.9-.6a1.76,1.76,0,0,1-.5-.4c-.1,0-.1-.1-.2-.2a2.65,2.65,0,0,0-.6-.5l-.3-.3c-.1.1-.2,0-.2-.1Z" transform="translate(0 -0.06)"/><path class="cls-6" d="M79.9,377.4c7.8,4.6,7.8,12,0,16.6s-20.5,4.6-28.4,0-7.8-12,0-16.6S72,372.9,79.9,377.4Z" transform="translate(0 -0.06)"/><path class="cls-7" d="M76.1,379.6c5.8,3.4,5.8,8.8,0,12.2s-15.1,3.4-20.8,0-5.8-8.8,0-12.2S70.4,376.3,76.1,379.6Z" transform="translate(0 -0.06)"/><path class="cls-1" d="M55.3,385.4c5.8-3.4,15.1-3.4,20.8,0a8.81,8.81,0,0,1,3.4,3.2,8.81,8.81,0,0,1-3.4,3.2c-5.8,3.4-15.1,3.4-20.8,0a8.81,8.81,0,0,1-3.4-3.2A8.81,8.81,0,0,1,55.3,385.4Z" transform="translate(0 -0.06)"/></g><path class="cls-10" d="M63.4,339.6c-2.6,2.9-9.9,3.6-13-4.1-2.8-7.2-5.9-14.1-6.8-16.7s1.8-3.5,1.8-3.5.2-4,6.9-1.3,11.5,6.8,14.4,13.4,1.2,11.3-3.3,12.2Z" transform="translate(0 -0.06)"/><path class="cls-20" d="M63.4,339.6c-2.6,2.9-9.9,3.6-13-4.1-2.8-7.2-5.9-14.1-6.8-16.7s1.8-3.5,1.8-3.5.2-4,6.9-1.3,11.5,6.8,14.4,13.4,1.2,11.3-3.3,12.2Z" transform="translate(0 -0.06)"/><path class="cls-10" d="M66.3,349.8a25.68,25.68,0,0,0-.6-4,75.87,75.87,0,0,0-2.2-7.8,57.44,57.44,0,0,0-7.8-14.4,45,45,0,0,0-6.1-7c-.1-.1-.1.1-.1.1a61.89,61.89,0,0,1,9.6,13.2,58.86,58.86,0,0,1,5.5,15c.3,1.5.6,2.9.9,4.4s.4,3,.7,4.5c0,.1.3.2.3,0A28.87,28.87,0,0,0,66.3,349.8Z" transform="translate(0 -0.06)"/><path class="cls-11" d="M66.3,349.8a25.68,25.68,0,0,0-.6-4,75.87,75.87,0,0,0-2.2-7.8,57.44,57.44,0,0,0-7.8-14.4,45,45,0,0,0-6.1-7c-.1-.1-.1.1-.1.1a61.89,61.89,0,0,1,9.6,13.2,58.86,58.86,0,0,1,5.5,15c.3,1.5.6,2.9.9,4.4s.4,3,.7,4.5c0,.1.3.2.3,0A28.87,28.87,0,0,0,66.3,349.8Z" transform="translate(0 -0.06)"/><path class="cls-10" d="M68.6,337.6c-6,1.9-10.5-2.9-9-10.2s9.3-15.6,12.2-13.4c1.8-1.8,5.9-1.2,7.8,4.8s.2,21.4-11,18.8Z" transform="translate(0 -0.06)"/><path class="cls-21" d="M68.6,337.6c-6,1.9-10.5-2.9-9-10.2s9.3-15.6,12.2-13.4c1.8-1.8,5.9-1.2,7.8,4.8s.2,21.4-11,18.8Z" transform="translate(0 -0.06)"/><path class="cls-10" d="M72.1,318.5a75.58,75.58,0,0,0-4,13.3,108.89,108.89,0,0,0-2.3,13.9A207.09,207.09,0,0,0,64.6,373c0,2.5.1,5,.1,7.5s0,5.2.2,7.8c.1,1,1.5.7,1.5-.2.1-4.5-.2-9.1-.2-13.6s0-9,.1-13.4a190.87,190.87,0,0,1,2.4-27.2q.6-3.75,1.5-7.5c.6-2.6,1.4-5.2,2.1-7.8,0-.1-.2-.2-.2-.1Z" transform="translate(0 -0.06)"/><path class="cls-11" d="M72.1,318.5a75.58,75.58,0,0,0-4,13.3,108.89,108.89,0,0,0-2.3,13.9A207.09,207.09,0,0,0,64.6,373c0,2.5.1,5,.1,7.5s0,5.2.2,7.8c.1,1,1.5.7,1.5-.2.1-4.5-.2-9.1-.2-13.6s0-9,.1-13.4a190.87,190.87,0,0,1,2.4-27.2q.6-3.75,1.5-7.5c.6-2.6,1.4-5.2,2.1-7.8,0-.1-.2-.2-.2-.1Z" transform="translate(0 -0.06)"/><path class="cls-10" d="M58.7,359.3c-2.6,3-8.7,2.7-12.7-2.6s-6.5-25.4-.8-24.1c1.2-2.7,17,3.8,19,16.8,1.5,9.5-5.5,9.9-5.5,9.9Z" transform="translate(0 -0.06)"/><path class="cls-21" d="M58.7,359.3c-2.6,3-8.7,2.7-12.7-2.6s-6.5-25.4-.8-24.1c1.2-2.7,17,3.8,19,16.8,1.5,9.5-5.5,9.9-5.5,9.9Z" transform="translate(0 -0.06)"/><path class="cls-10" d="M63.4,368.8c-.2-1.2-.5-2.5-.8-3.7-.7-2.5-1.4-4.9-2.3-7.2a77.77,77.77,0,0,0-7-13.8,69.81,69.81,0,0,0-5-7.1c0-.1-.1.1-.1.1,1.4,2,2.8,4.1,4.1,6.2a74.87,74.87,0,0,1,3.6,6.9,97.88,97.88,0,0,1,5.2,14c.4,1.4.7,2.7,1.1,4.1s.9,2.8,1.3,4.2c0,.2.3.3.3,0-.2-1.3-.2-2.5-.4-3.7Z" transform="translate(0 -0.06)"/><path class="cls-11" d="M63.4,368.8c-.2-1.2-.5-2.5-.8-3.7-.7-2.5-1.4-4.9-2.3-7.2a77.77,77.77,0,0,0-7-13.8,69.81,69.81,0,0,0-5-7.1c0-.1-.1.1-.1.1,1.4,2,2.8,4.1,4.1,6.2a74.87,74.87,0,0,1,3.6,6.9,97.88,97.88,0,0,1,5.2,14c.4,1.4.7,2.7,1.1,4.1s.9,2.8,1.3,4.2c0,.2.3.3.3,0-.2-1.3-.2-2.5-.4-3.7Z" transform="translate(0 -0.06)"/><path class="cls-10" d="M68.4,356.3c-3.4-.8-3.6-4.9.7-10s15.2-7.3,15.7-5.2c2.4,0,2.4,7.6-2.9,14.5S68.7,361,68.4,356.3Z" transform="translate(0 -0.06)"/><path class="cls-21" d="M68.4,356.3c-3.4-.8-3.6-4.9.7-10s15.2-7.3,15.7-5.2c2.4,0,2.4,7.6-2.9,14.5S68.7,361,68.4,356.3Z" transform="translate(0 -0.06)"/><path class="cls-10" d="M75.1,348.9a27.07,27.07,0,0,0-6,5.7,28.2,28.2,0,0,0-4,7.2c-.1.3.4.7.5.4a34,34,0,0,1,9.5-13.3c.1.1.1,0,0,0Z" transform="translate(0 -0.06)"/><path class="cls-11" d="M75.1,348.9a27.07,27.07,0,0,0-6,5.7,28.2,28.2,0,0,0-4,7.2c-.1.3.4.7.5.4a34,34,0,0,1,9.5-13.3c.1.1.1,0,0,0Z" transform="translate(0 -0.06)"/><path class="cls-10" d="M72.3,381.6c-4.8,1.9-2.7,7.6,1.9,12a21.08,21.08,0,0,0,14.6,5.2c3.3-.3,4-.7,4-.7a38.34,38.34,0,0,0,0-7.9,15.26,15.26,0,0,0-11.3-12.1c-7.4-2.1-9.2.6-9.2,3.5Z" transform="translate(0 -0.06)"/><path class="cls-21" d="M72.3,381.6c-4.8,1.9-2.7,7.6,1.9,12a21.08,21.08,0,0,0,14.6,5.2c3.3-.3,4-.7,4-.7a38.34,38.34,0,0,0,0-7.9,15.26,15.26,0,0,0-11.3-12.1c-7.4-2.1-9.2.6-9.2,3.5Z" transform="translate(0 -0.06)"/><path class="cls-10" d="M85.6,390a39.28,39.28,0,0,0-7.3-6.8c-2.7-1.8-6.3-3.3-9.6-2.2-1.3.4-3.2,1.7-3,3.3,0,.2.3.5.5.3a11.2,11.2,0,0,1,1.7-2,4.9,4.9,0,0,1,2.6-1,12,12,0,0,1,6.7,1.5c3.1,1.8,5.7,4.4,8.4,6.9Z" transform="translate(0 -0.06)"/><path class="cls-11" d="M85.6,390a39.28,39.28,0,0,0-7.3-6.8c-2.7-1.8-6.3-3.3-9.6-2.2-1.3.4-3.2,1.7-3,3.3,0,.2.3.5.5.3a11.2,11.2,0,0,1,1.7-2,4.9,4.9,0,0,1,2.6-1,12,12,0,0,1,6.7,1.5c3.1,1.8,5.7,4.4,8.4,6.9Z" transform="translate(0 -0.06)"/><path class="cls-10" d="M54.1,357.1c.5-2.2-2.7-7.4-12.5-8.4s-17.1,3.2-18.6,5.1-2.2,3.9-.5,4.4,7.9,1.1,11.9,3,12.2,7.3,17.8,5.7,4.7-7.6,1.9-9.8Z" transform="translate(0 -0.06)"/><path class="cls-20" d="M54.1,357.1c.5-2.2-2.7-7.4-12.5-8.4s-17.1,3.2-18.6,5.1-2.2,3.9-.5,4.4,7.9,1.1,11.9,3,12.2,7.3,17.8,5.7,4.7-7.6,1.9-9.8Z" transform="translate(0 -0.06)"/><path class="cls-10" d="M61.6,364.7c-4.1-8.5-14.8-11.1-23.5-11.1a34.76,34.76,0,0,0-8.5,1.1v.1a45.09,45.09,0,0,1,14.2-.1c4.6.8,9.2,2.2,13,5a16.3,16.3,0,0,1,4.6,5.2c.1.2.3,0,.2-.2Z" transform="translate(0 -0.06)"/><path class="cls-11" d="M61.6,364.7c-4.1-8.5-14.8-11.1-23.5-11.1a34.76,34.76,0,0,0-8.5,1.1v.1a45.09,45.09,0,0,1,14.2-.1c4.6.8,9.2,2.2,13,5a16.3,16.3,0,0,1,4.6,5.2c.1.2.3,0,.2-.2Z" transform="translate(0 -0.06)"/><path class="cls-10" d="M76.9,345.7c-.1,3.4,4.7,5.4,9.4,2.5s9.6-5.9,13.9-7,6.4-4.6,5-6.4-3.5-6-14.9-4.6-15.4,6.5-17,10.1S75.2,346.7,76.9,345.7Z" transform="translate(0 -0.06)"/><path class="cls-20" d="M76.9,345.7c-.1,3.4,4.7,5.4,9.4,2.5s9.6-5.9,13.9-7,6.4-4.6,5-6.4-3.5-6-14.9-4.6-15.4,6.5-17,10.1S75.2,346.7,76.9,345.7Z" transform="translate(0 -0.06)"/><path class="cls-10" d="M95.5,334.8a13.66,13.66,0,0,0-4.9.5,35.23,35.23,0,0,0-4.2,1.5,22.57,22.57,0,0,0-7.1,5.1,14.62,14.62,0,0,0-1.6,1.9,8.17,8.17,0,0,0-1.2,2c-.1.2.2.6.4.4a15.94,15.94,0,0,0,1.5-2.1l1.8-2.1a25.07,25.07,0,0,1,4.4-3.5,27.83,27.83,0,0,1,4.9-2.4c.9-.3,1.9-.6,2.8-.9a8,8,0,0,1,3.1-.4c.1.1.1,0,.1,0Z" transform="translate(0 -0.06)"/><path class="cls-11" d="M95.5,334.8a13.66,13.66,0,0,0-4.9.5,35.23,35.23,0,0,0-4.2,1.5,22.57,22.57,0,0,0-7.1,5.1,14.62,14.62,0,0,0-1.6,1.9,8.17,8.17,0,0,0-1.2,2c-.1.2.2.6.4.4a15.94,15.94,0,0,0,1.5-2.1l1.8-2.1a25.07,25.07,0,0,1,4.4-3.5,27.83,27.83,0,0,1,4.9-2.4c.9-.3,1.9-.6,2.8-.9a8,8,0,0,1,3.1-.4c.1.1.1,0,.1,0Z" transform="translate(0 -0.06)"/><path class="cls-10" d="M68.8,364.2c-1.6-1.6-5.9-1.2-8,3.5s2.2,9.9,2.7,11.3c2-1.1,3.5-.5,7-1.1a8.79,8.79,0,0,0,6.7-8.7c-.2-4.3-2-7.2-8.4-5Z" transform="translate(0 -0.06)"/><path class="cls-20" d="M68.8,364.2c-1.6-1.6-5.9-1.2-8,3.5s2.2,9.9,2.7,11.3c2-1.1,3.5-.5,7-1.1a8.79,8.79,0,0,0,6.7-8.7c-.2-4.3-2-7.2-8.4-5Z" transform="translate(0 -0.06)"/><path class="cls-10" d="M68.7,363.7a6.34,6.34,0,0,0-2.1,2.2,13,13,0,0,0-1.4,2.6,11.18,11.18,0,0,0-.6,6c0,.1.1,0,.1,0a13.14,13.14,0,0,1,1-5.9,18.84,18.84,0,0,1,1.4-2.4,5.24,5.24,0,0,1,1-1.1,7.64,7.64,0,0,0,.9-.9.3.3,0,0,0-.3-.5Z" transform="translate(0 -0.06)"/><path class="cls-22" d="M68.7,363.7a6.34,6.34,0,0,0-2.1,2.2,13,13,0,0,0-1.4,2.6,11.18,11.18,0,0,0-.6,6c0,.1.1,0,.1,0a13.14,13.14,0,0,1,1-5.9,18.84,18.84,0,0,1,1.4-2.4,5.24,5.24,0,0,1,1-1.1,7.64,7.64,0,0,0,.9-.9.3.3,0,0,0-.3-.5Z" transform="translate(0 -0.06)"/><path class="cls-10" d="M61.3,373.7c-.2-3.5-4-6.3-9.3-7.9a14.92,14.92,0,0,0-15.2,4c-4,4.2-6,7.9-4.4,9s8.8,3.6,13.4,5.1,10.8,1.9,15.5-.9,4.4-7.5,0-9.3Z" transform="translate(0 -0.06)"/><path class="cls-21" d="M61.3,373.7c-.2-3.5-4-6.3-9.3-7.9a14.92,14.92,0,0,0-15.2,4c-4,4.2-6,7.9-4.4,9s8.8,3.6,13.4,5.1,10.8,1.9,15.5-.9,4.4-7.5,0-9.3Z" transform="translate(0 -0.06)"/><path class="cls-10" d="M61.6,373.3a14.8,14.8,0,0,0-5.9-1.6,23.31,23.31,0,0,0-5.9.1,31.55,31.55,0,0,0-6.1,1.3c-1,.3-2.1.6-3.1,1a23.58,23.58,0,0,0-2.8,1.2v.1a24.57,24.57,0,0,0,2.9-.9c1-.3,2.1-.6,3.2-.9a42.09,42.09,0,0,1,6-1.1,31.08,31.08,0,0,1,6.1,0,26.12,26.12,0,0,1,5.5,1.4c.4.1.3-.5.1-.6Z" transform="translate(0 -0.06)"/><path class="cls-11" d="M61.6,373.3a14.8,14.8,0,0,0-5.9-1.6,23.31,23.31,0,0,0-5.9.1,31.55,31.55,0,0,0-6.1,1.3c-1,.3-2.1.6-3.1,1a23.58,23.58,0,0,0-2.8,1.2v.1a24.57,24.57,0,0,0,2.9-.9c1-.3,2.1-.6,3.2-.9a42.09,42.09,0,0,1,6-1.1,31.08,31.08,0,0,1,6.1,0,26.12,26.12,0,0,1,5.5,1.4c.4.1.3-.5.1-.6Z" transform="translate(0 -0.06)"/><path class="cls-10" d="M72.4,368.5c-3.9-3.1-2.6-10.4,10.9-10.8s23.2,3.1,22.8,7.5c2.2,2.2,1.1,8.3-9.9,10.2S69.7,376.3,72.4,368.5Z" transform="translate(0 -0.06)"/><path class="cls-20" d="M72.4,368.5c-3.9-3.1-2.6-10.4,10.9-10.8s23.2,3.1,22.8,7.5c2.2,2.2,1.1,8.3-9.9,10.2S69.7,376.3,72.4,368.5Z" transform="translate(0 -0.06)"/><path class="cls-10" d="M99.8,365.2a61.46,61.46,0,0,0-12.1-.7,47,47,0,0,0-11.2,1.3c-.9.3-1.8.6-2.7,1l-1.2.6c-.3.2-.7.4-.8.7s.2.5.4.4a13.44,13.44,0,0,0,2.4-1.2c.8-.3,1.6-.6,2.3-.9a24.41,24.41,0,0,1,4.7-.9,72.61,72.61,0,0,1,11.4-.6c2.2,0,4.4.2,6.7.4.1.1.2-.1.1-.1Z" transform="translate(0 -0.06)"/><path class="cls-11" d="M99.8,365.2a61.46,61.46,0,0,0-12.1-.7,47,47,0,0,0-11.2,1.3c-.9.3-1.8.6-2.7,1l-1.2.6c-.3.2-.7.4-.8.7s.2.5.4.4a13.44,13.44,0,0,0,2.4-1.2c.8-.3,1.6-.6,2.3-.9a24.41,24.41,0,0,1,4.7-.9,72.61,72.61,0,0,1,11.4-.6c2.2,0,4.4.2,6.7.4.1.1.2-.1.1-.1Z" transform="translate(0 -0.06)"/></g></g><g id="Character_4" data-name="Character 4"><g id="Character"><g id="Legs"><path class="cls-7" d="M381.5,316.5c-.8,2.3-4.8,1.9-9.1,2-3.4.1-7.4-.5-9.6.6s-2.6,3.8,1,6.8c4.5,3.8,10.5,3.4,13.8,3.7s5.3,1.5,8.4,1.4c3.9-.1,6.2-1.5,6.8-2.6s-.1-9.5-1.7-9.1c0,0,.2-.3-5.6-.5C381.5,318.6,381.5,316.5,381.5,316.5Z" transform="translate(0 -0.06)"/><path class="cls-23" d="M391.1,319.7c0-.1,1-7.9,1-7.9s-.2-.7-4.8-.8c-2.3-.1-5-2-5.2-.2s-.4,5.6-.4,5.6c-.8,2.3-4.8,1.9-9.1,2h-2.2c-2.3.2-4.4,1.9-1.7,3.5s6.6,1.8,10.3,1.9c4.2.2,11.9.3,12.1-4.1Z" transform="translate(0 -0.06)"/><path class="cls-8" d="M380.4,266.7c-.4,8.5.8,48.5.8,48.5s4,2,10.6-.3l4.4-43.5-15.8-4.7Z" transform="translate(0 -0.06)"/><path class="cls-7" d="M361.2,326.4c-.8,2.3-6.9,3.3-11.1,3.6-3.4.2-7.4-.3-9.6.9s-2.5,3.9,1.2,6.8c4.6,3.6,12.7,1.7,16.1,1.9s5.3.9,8,.9c3.9,0,5.3-1.5,5.8-2.6s.9-9.5-.7-9c0,0,.1-.3-5.6-.3-4.1,0-4.1-2.2-4.1-2.2Z" transform="translate(0 -0.06)"/><path class="cls-23" d="M370.9,329.4c0-.1,3.1-12.4,3.1-12.4a9.44,9.44,0,0,1-7.3,3.8c-2.3,0-5-1.8-5.2,0s-.2,3.5-.4,5.2-5.3,3.3-9.9,3.8c-.7.1-2.5.3-3.2.3h0c-2.6.2-5.1,2.3-2.5,3.8s9.7,0,13.4,0c4.2,0,12-.1,12-4.5Z" transform="translate(0 -0.06)"/><path class="cls-6" d="M363.4,282c-1,8.8-2,33.7-2.2,40.7,0,0,5.8,2.4,11.3.7,0,0,7.7-25,7.1-34.4-.2-4.4-16.2-7-16.2-7Z" transform="translate(0 -0.06)"/></g><path class="cls-7" d="M455,353.2l-6.3-52.8-5.2-.3,8.9,53.1h0c0,.2.1.3.3.5a1.92,1.92,0,0,0,1.8.1c.4-.2.5-.4.5-.6Z" transform="translate(0 -0.06)"/><path class="cls-8" d="M384.1,295.5h-5.2l-7.5,49.9h0a.72.72,0,0,0,.4.6,2.12,2.12,0,0,0,1.9,0,1,1,0,0,0,.4-.5h0Z" transform="translate(0 -0.06)"/><path class="cls-7" d="M378.9,295.5l-2.1,13.9a17.69,17.69,0,0,0,4,2.4l3.3-16.4-5.2.1Z" transform="translate(0 -0.06)"/><path class="cls-8" d="M420.4,370.9l-4.9-53.7-5.2-.3,7.4,54h0c0,.2.1.3.3.5a1.92,1.92,0,0,0,1.8.1q.6-.3.6-.6Z" transform="translate(0 -0.06)"/><path class="cls-7" d="M416.2,325l-.7-7.9-5.2-.3,1.2,8.5c1.2.5,3.2.2,4.7-.3Z" transform="translate(0 -0.06)"/><path class="cls-7" d="M412.4,279.1h-5.2L399.7,329h0a.72.72,0,0,0,.4.6,2.12,2.12,0,0,0,1.9,0,1,1,0,0,0,.4-.5h0Z" transform="translate(0 -0.06)"/><path class="cls-10" d="M375.7,294.5c-.7-4.1,2.6-7.3,8.9-11.5a164.35,164.35,0,0,1,18.1-10.2c5.2-2.4,10.6-2.2,17.3,1.3,9.3,4.8,37.4,21.8,37.4,21.8s-41.9,23.7-50,22.6-28.2-14.2-29.8-18.8-1.9-5.2-1.9-5.2Z" transform="translate(0 -0.06)"/><path class="cls-11" d="M375.7,294.5c-.7-4.1,2.6-7.3,8.9-11.5a164.35,164.35,0,0,1,18.1-10.2c5.2-2.4,10.6-2.2,17.3,1.3,9.3,4.8,37.4,21.8,37.4,21.8s-41.9,23.7-50,22.6-28.2-14.2-29.8-18.8-1.9-5.2-1.9-5.2Z" transform="translate(0 -0.06)"/><path class="cls-10" d="M411.5,313.5c-6,5.5-12.3.8-22.3-5.7-11.3-7.3-13.5-13.3-13.5-13.3s0,4.5.8,6.6,2.7,4.5,10.8,10.1,14,8.4,19.5,9.5l4.3-.6" transform="translate(0 -0.06)"/><path class="cls-24" d="M389.2,307.8c-11.3-7.3-13.5-13.3-13.5-13.3s0,4.5.8,6.6,2.7,4.5,10.8,10.1,14,8.4,19.5,9.5l4.3-.6.3-6.5c-6,5.4-12.3.7-22.2-5.8Z" transform="translate(0 -0.06)"/><path class="cls-8" d="M444.6,277.3s-35.2-10.6-41.3-12.3-17.9-4.5-21.3-3-5.2,3.3-5.5,8.3c-.1.9,0,5.5,0,5.5s17,5.3,31,5.3S444.6,277.3,444.6,277.3Z" transform="translate(0 -0.06)"/><path class="cls-6" d="M447.1,273.8c2.2,7.5,3.4,16.7-1.9,22.2-3.8,4-13.6,13.1-34.7,12.2-9.5-.4-36.2-19-36.2-19s-10.1-1.6-10.1-5.1c0-.9-1-1.1-.8-2,1.5-7.7,6.3-11.5,13.1-11,11.3.9,36.5,8,36.5,8l34.1-5.3Z" transform="translate(0 -0.06)"/><polygon class="cls-23" points="406.3 213.24 409.9 228.54 422.8 225.84 418.3 208.94 406.3 213.24"/><path class="cls-7" d="M383.1,230.7l20.6,23.5.1.6-.1.5a.82.82,0,0,1-.5.5l-22.1,11a.9.9,0,0,1-.5.1.52.52,0,0,1-.4-.2l-20-24.1.1-.5,22.8-11.4Z" transform="translate(0 -0.06)"/><path class="cls-6" d="M380.7,266.4a.75.75,0,0,0,.5-.1l22.1-11a1.21,1.21,0,0,0,.5-.5.61.61,0,0,0-.1-.6l-19.8-23.8-23.6,11.8,20,24.1c.1,0,.3.1.4.1Z" transform="translate(0 -0.06)"/><path class="cls-5" d="M384.3,228.9,404,252.6l.1.3-.6,1.8h0a.22.22,0,0,1-.2.2l-22.1,11c-.2.1-.5.1-.6-.1l-19.7-23.7.6-1.8,22.8-11.4Z" transform="translate(0 -0.06)"/><path class="cls-12" d="M361.4,240.3l.1.1,1.6,1.9.3.4L381.1,264c.1.2.4.2.6.1l22.1-11c.2-.1.3-.3.1-.5l-.1-.2-19.6-23.5-22.7,11.3h0l-.1.1Z" transform="translate(0 -0.06)"/><path class="cls-4" d="M381.4,264.2l-.6,1.8h.4l22.1-11c.1-.1.2-.1.2-.2l.6-1.8a.22.22,0,0,1-.2.2l-22.1,11Z" transform="translate(0 -0.06)"/><path class="cls-1" d="M361.5,240.1l1.8,2.1.3.3,17.7,21.3c.1.2.4.2.6.1l19.8-9.9c.2-.1.3-.2.5-.2a5.23,5.23,0,0,0,1.8-1.3v-.1l.1-.1a.44.44,0,0,0-.1-.5,3.51,3.51,0,0,1-1-.8h0l-18.5-22.3-23,11.4Z" transform="translate(0 -0.06)"/><path class="cls-25" d="M363.9,240.2a.35.35,0,0,1-.1.5c-.2.1-.5.1-.6-.1a.35.35,0,0,1,.1-.5A.56.56,0,0,1,363.9,240.2Z" transform="translate(0 -0.06)"/><path class="cls-10" d="M361.7,239.6c0,.1-.1.3-.1.4l.3-.1c0-.1,0-.2.1-.2a1.29,1.29,0,0,1,.6-.9c.1,0,.2-.1.2,0s.2.1.3.2a3.21,3.21,0,0,1,.4,1.8h.2a3.46,3.46,0,0,0-.4-2.1.63.63,0,0,0-.8-.2,2.42,2.42,0,0,0-.8,1.1Z" transform="translate(0 -0.06)"/><path class="cls-7" d="M361.6,240.2Z" transform="translate(0 -0.06)"/><path class="cls-25" d="M366.2,239.1a.35.35,0,0,1-.1.5c-.2.1-.5.1-.6-.1a.35.35,0,0,1,.1-.5A.66.66,0,0,1,366.2,239.1Z" transform="translate(0 -0.06)"/><path class="cls-10" d="M363.9,238.5c0,.1-.1.3-.1.4l.3-.1c0-.1,0-.2.1-.2a1.29,1.29,0,0,1,.6-.9c.1,0,.2-.1.2,0s.2.1.3.2a3.21,3.21,0,0,1,.4,1.8h.2a3.46,3.46,0,0,0-.4-2.1.63.63,0,0,0-.8-.2,2.42,2.42,0,0,0-.8,1.1Z" transform="translate(0 -0.06)"/><path class="cls-25" d="M368.4,238a.35.35,0,0,1-.1.5c-.2.1-.5.1-.6-.1a.35.35,0,0,1,.1-.5A.66.66,0,0,1,368.4,238Z" transform="translate(0 -0.06)"/><path class="cls-10" d="M366.1,237.4c0,.1-.1.3-.1.4l.3-.1c0-.1,0-.2.1-.2a1.29,1.29,0,0,1,.6-.9c.1,0,.2-.1.2,0s.2.1.3.2a3.21,3.21,0,0,1,.4,1.8h.2a3.46,3.46,0,0,0-.4-2.1.63.63,0,0,0-.8-.2,2.42,2.42,0,0,0-.8,1.1Z" transform="translate(0 -0.06)"/><path class="cls-25" d="M370.6,236.9a.35.35,0,0,1-.1.5c-.2.1-.5.1-.6-.1a.35.35,0,0,1,.1-.5A.61.61,0,0,1,370.6,236.9Z" transform="translate(0 -0.06)"/><path class="cls-10" d="M368.4,236.3c0,.1-.1.3-.1.4l.3-.1c0-.1,0-.2.1-.2a1.29,1.29,0,0,1,.6-.9c.1,0,.2-.1.2,0s.2.1.3.2a3.21,3.21,0,0,1,.4,1.8h.2a3.46,3.46,0,0,0-.4-2.1.63.63,0,0,0-.8-.2,1.37,1.37,0,0,0-.8,1.1Z" transform="translate(0 -0.06)"/><path class="cls-25" d="M372.8,235.8a.35.35,0,0,1-.1.5c-.2.1-.5.1-.6-.1a.35.35,0,0,1,.1-.5A.61.61,0,0,1,372.8,235.8Z" transform="translate(0 -0.06)"/><path class="cls-10" d="M370.6,235.2c0,.1-.1.3-.1.4l.3-.1c0-.1,0-.2.1-.2a1.29,1.29,0,0,1,.6-.9c.1,0,.2-.1.2,0s.2.1.3.2a3.21,3.21,0,0,1,.4,1.8h.2a3.46,3.46,0,0,0-.4-2.1.63.63,0,0,0-.8-.2c-.4.1-.6.6-.8,1.1Z" transform="translate(0 -0.06)"/><path class="cls-25" d="M375,234.7a.35.35,0,0,1-.1.5c-.2.1-.5.1-.6-.1a.35.35,0,0,1,.1-.5A.61.61,0,0,1,375,234.7Z" transform="translate(0 -0.06)"/><path class="cls-10" d="M372.8,234.1c0,.1-.1.3-.1.4l.3-.1c0-.1,0-.2.1-.2a1.29,1.29,0,0,1,.6-.9c.1,0,.2-.1.2,0s.2.1.3.2a3.21,3.21,0,0,1,.4,1.8h.2a3.46,3.46,0,0,0-.4-2.1.63.63,0,0,0-.8-.2c-.3.1-.6.6-.8,1.1Z" transform="translate(0 -0.06)"/><path class="cls-25" d="M377.2,233.6a.35.35,0,0,1-.1.5c-.2.1-.5.1-.6-.1s-.1-.4.1-.5A.56.56,0,0,1,377.2,233.6Z" transform="translate(0 -0.06)"/><path class="cls-10" d="M375,233c0,.1-.1.3-.1.4l.3-.1c0-.1,0-.2.1-.2a1.29,1.29,0,0,1,.6-.9c.1,0,.2-.1.2,0s.2.1.3.2a3.21,3.21,0,0,1,.4,1.8h.2a3.46,3.46,0,0,0-.4-2.1.63.63,0,0,0-.8-.2c-.3.1-.6.6-.8,1.1Z" transform="translate(0 -0.06)"/><path class="cls-25" d="M379.5,232.5a.35.35,0,0,1-.1.5c-.2.1-.5.1-.6-.1a.35.35,0,0,1,.1-.5A.66.66,0,0,1,379.5,232.5Z" transform="translate(0 -0.06)"/><path class="cls-10" d="M377.2,231.9c0,.1-.1.3-.1.4l.3-.1c0-.1,0-.2.1-.2a1.29,1.29,0,0,1,.6-.9c.1,0,.2-.1.2,0s.2.1.3.2a3.21,3.21,0,0,1,.4,1.8h.2a3.46,3.46,0,0,0-.4-2.1.63.63,0,0,0-.8-.2c-.3.1-.6.6-.8,1.1Z" transform="translate(0 -0.06)"/><path class="cls-25" d="M381.7,231.4a.35.35,0,0,1-.1.5c-.2.1-.5.1-.6-.1a.35.35,0,0,1,.1-.5C381.3,231.2,381.6,231.2,381.7,231.4Z" transform="translate(0 -0.06)"/><path class="cls-10" d="M379.4,230.8c0,.1-.1.3-.1.4l.3-.1c0-.1,0-.2.1-.2a1.29,1.29,0,0,1,.6-.9c.1,0,.2-.1.2,0s.2.1.3.2a3.21,3.21,0,0,1,.4,1.8h.2a3.46,3.46,0,0,0-.4-2.1.63.63,0,0,0-.8-.2c-.3.1-.6.6-.8,1.1Z" transform="translate(0 -0.06)"/><path class="cls-25" d="M383.9,230.3a.35.35,0,0,1-.1.5c-.2.1-.5.1-.6-.1a.35.35,0,0,1,.1-.5A.61.61,0,0,1,383.9,230.3Z" transform="translate(0 -0.06)"/><path class="cls-10" d="M381.6,229.7c0,.1-.1.3-.1.4l.3-.1c0-.1,0-.2.1-.2a1.29,1.29,0,0,1,.6-.9c.1,0,.2-.1.2,0s.2.1.3.2a3.21,3.21,0,0,1,.4,1.8h.2a3.46,3.46,0,0,0-.4-2.1.63.63,0,0,0-.8-.2c-.3.1-.6.6-.8,1.1Z" transform="translate(0 -0.06)"/><g class="cls-26"><path class="cls-27" d="M361.7,239.6c0,.1-.1.3-.1.4l.3-.1c0-.1,0-.2.1-.2a1.29,1.29,0,0,1,.6-.9c.1,0,.2-.1.2,0s.2.1.3.2a3.21,3.21,0,0,1,.4,1.8h.2a3.46,3.46,0,0,0-.4-2.1.63.63,0,0,0-.8-.2,2.42,2.42,0,0,0-.8,1.1Z" transform="translate(0 -0.06)"/><path class="cls-27" d="M363.9,238.5c0,.1-.1.3-.1.4l.3-.1c0-.1,0-.2.1-.2a1.29,1.29,0,0,1,.6-.9c.1,0,.2-.1.2,0s.2.1.3.2a3.21,3.21,0,0,1,.4,1.8h.2a3.46,3.46,0,0,0-.4-2.1.63.63,0,0,0-.8-.2,2.42,2.42,0,0,0-.8,1.1Z" transform="translate(0 -0.06)"/><path class="cls-27" d="M366.1,237.4c0,.1-.1.3-.1.4l.3-.1c0-.1,0-.2.1-.2a1.29,1.29,0,0,1,.6-.9c.1,0,.2-.1.2,0s.2.1.3.2a3.21,3.21,0,0,1,.4,1.8h.2a3.46,3.46,0,0,0-.4-2.1.63.63,0,0,0-.8-.2,2.42,2.42,0,0,0-.8,1.1Z" transform="translate(0 -0.06)"/><path class="cls-27" d="M368.4,236.3c0,.1-.1.3-.1.4l.3-.1c0-.1,0-.2.1-.2a1.29,1.29,0,0,1,.6-.9c.1,0,.2-.1.2,0s.2.1.3.2a3.21,3.21,0,0,1,.4,1.8h.2a3.46,3.46,0,0,0-.4-2.1.63.63,0,0,0-.8-.2,1.37,1.37,0,0,0-.8,1.1Z" transform="translate(0 -0.06)"/><path class="cls-27" d="M370.6,235.2c0,.1-.1.3-.1.4l.3-.1c0-.1,0-.2.1-.2a1.29,1.29,0,0,1,.6-.9c.1,0,.2-.1.2,0s.2.1.3.2a3.21,3.21,0,0,1,.4,1.8h.2a3.46,3.46,0,0,0-.4-2.1.63.63,0,0,0-.8-.2c-.4.1-.6.6-.8,1.1Z" transform="translate(0 -0.06)"/><path class="cls-27" d="M372.8,234.1c0,.1-.1.3-.1.4l.3-.1c0-.1,0-.2.1-.2a1.29,1.29,0,0,1,.6-.9c.1,0,.2-.1.2,0s.2.1.3.2a3.21,3.21,0,0,1,.4,1.8h.2a3.46,3.46,0,0,0-.4-2.1.63.63,0,0,0-.8-.2c-.3.1-.6.6-.8,1.1Z" transform="translate(0 -0.06)"/><path class="cls-27" d="M375,233c0,.1-.1.3-.1.4l.3-.1c0-.1,0-.2.1-.2a1.29,1.29,0,0,1,.6-.9c.1,0,.2-.1.2,0s.2.1.3.2a3.21,3.21,0,0,1,.4,1.8h.2a3.46,3.46,0,0,0-.4-2.1.63.63,0,0,0-.8-.2c-.3.1-.6.6-.8,1.1Z" transform="translate(0 -0.06)"/><path class="cls-27" d="M377.2,231.9c0,.1-.1.3-.1.4l.3-.1c0-.1,0-.2.1-.2a1.29,1.29,0,0,1,.6-.9c.1,0,.2-.1.2,0s.2.1.3.2a3.21,3.21,0,0,1,.4,1.8h.2a3.46,3.46,0,0,0-.4-2.1.63.63,0,0,0-.8-.2c-.3.1-.6.6-.8,1.1Z" transform="translate(0 -0.06)"/><path class="cls-27" d="M379.4,230.8c0,.1-.1.3-.1.4l.3-.1c0-.1,0-.2.1-.2a1.29,1.29,0,0,1,.6-.9c.1,0,.2-.1.2,0s.2.1.3.2a3.21,3.21,0,0,1,.4,1.8h.2a3.46,3.46,0,0,0-.4-2.1.63.63,0,0,0-.8-.2c-.3.1-.6.6-.8,1.1Z" transform="translate(0 -0.06)"/><path class="cls-27" d="M381.6,229.7c0,.1-.1.3-.1.4l.3-.1c0-.1,0-.2.1-.2a1.29,1.29,0,0,1,.6-.9c.1,0,.2-.1.2,0s.2.1.3.2a3.21,3.21,0,0,1,.4,1.8h.2a3.46,3.46,0,0,0-.4-2.1.63.63,0,0,0-.8-.2c-.3.1-.6.6-.8,1.1Z" transform="translate(0 -0.06)"/></g><path class="cls-28" d="M386.2,264.2l-2,1h0c-1.3-3-2.4-3.8-3.8-6.3-2.3-3.9-4.6-4.4-5.7-4.1s.4,2.4,1.8,5.1a37.26,37.26,0,0,1,1.8,4.4l-7.1-8.5s.8,3.8,1.1,5.2.5,1.9,5.3,6.8a7.3,7.3,0,0,0,1,.9h0c1.5,1.6,3.4,3.1,5.8,5.3s5.1,3.9,7.1,4.2l-5.3-14Z" transform="translate(0 -0.06)"/><path class="cls-23" d="M421.9,249.8l-25.8-14.3c-2-2.5-3.3-4.2-6.2-5.7a7.35,7.35,0,0,0-3.6-.1c-3.6.9-9.9,6.3-5.4,9.1,2.7,1.7,6.7,1.7,9.1,2.6a32,32,0,0,1,5.4,3c6.4,4.2,15,10.4,21.9,15.1,2.6,1.8,5.1,3.5,8,1,4.7-4.2-3.4-10.7-3.4-10.7Z" transform="translate(0 -0.06)"/><path class="cls-28" d="M387.4,234.6l-5.7,4.6a1.55,1.55,0,0,1,.6.3l3.3-2.2c1.1-.7,2.4-1.6,2.4-1.6a11.06,11.06,0,0,0,3.9-1.1c1.1-.8-4.5,0-4.5,0Z" transform="translate(0 -0.06)"/><g id="Pencil"><path class="cls-23" d="M377,238.5l-2.8,4.3c-.1.1,0,.3.2.2l4.8-1.7-2.2-2.8Z" transform="translate(0 -0.06)"/><path class="cls-28" d="M374.4,243h0l4.9-1.7-1.2-1.5-.5.4-3.2,2.6v.2Z" transform="translate(0 -0.06)"/><path class="cls-7" d="M374.4,243c-.1.1-.3-.1-.2-.2l.5-.8h0a1.06,1.06,0,0,0,.6.7h.1l-1,.3Z" transform="translate(0 -0.06)"/><path class="cls-6" d="M396.2,227.8l-.4.3-.5.4-16.1,12.8a2.13,2.13,0,0,1-1.5-.7,2.68,2.68,0,0,1-.8-2.1L393,225.7l.9-.7c-.5.5,1.7,3.3,2.3,2.8Z" transform="translate(0 -0.06)"/><path class="cls-8" d="M396.2,227.8l-.4.3-.5.4-16.1,12.8a2.53,2.53,0,0,1-1.8-1l16.9-13.6v-.1c.7.7,1.6,1.5,1.9,1.2Z" transform="translate(0 -0.06)"/><path class="cls-12" d="M394.8,228.9l-.8.7c-.2.2-.8-.2-1.3-.7-.7-.7-1.2-1.8-.9-2.1l.6-.5.2-.2c-.3.3.2,1.4.9,2.1.4.5,1,.9,1.3.7Z" transform="translate(0 -0.06)"/><path class="cls-8" d="M394.5,229.1c-.5.5-2.8-2.4-2.2-2.8l.8-.7c-.5.5,1.7,3.3,2.2,2.8Z" transform="translate(0 -0.06)"/><path class="cls-12" d="M396.2,227.8l-.8.6c-.5.5-2.7-2.2-2.3-2.8h0l.8-.6C393.4,225.5,395.6,228.3,396.2,227.8Z" transform="translate(0 -0.06)"/><path class="cls-23" d="M374.3,242.9l.1.1A.1.1,0,0,1,374.3,242.9Z" transform="translate(0 -0.06)"/><path class="cls-28" d="M397.9,226.5l-1.7,1.3c-.2.2-.8-.2-1.3-.7-.7-.7-1.2-1.8-.9-2.1h0l1.7-1.4c.7-.6,2,.7,2.4,1.8a1.39,1.39,0,0,1-.2,1.1Z" transform="translate(0 -0.06)"/><path class="cls-25" d="M396.7,226.3a2.76,2.76,0,0,1-1.2-2.2.55.55,0,0,1,.3-.5c.7-.3,1.9.9,2.2,1.9a1.1,1.1,0,0,1-.1,1c-.3.2-.7.1-1.2-.2Z" transform="translate(0 -0.06)"/></g><path class="cls-23" d="M388.3,229.5a4.59,4.59,0,0,0-1.6-.6,5.39,5.39,0,0,0-2.5-.3,1.61,1.61,0,0,0-.9.3,1.56,1.56,0,0,0-.6.8c-1,1.4-2.6,2.2-3.6,3.6-.9,1.2-2,4.9-1,5.8.6.6,1.9-.8,2.4-1.9.2.8,1.4.5,2.3-1.2.7-1.4,1.6-3.1,1.6-3.1l3.9-3.4Z" transform="translate(0 -0.06)"/><path class="cls-28" d="M384.1,231.4a.9.9,0,0,0-.4.9,4.36,4.36,0,0,0,.2,1.2l.4-.8Z" transform="translate(0 -0.06)"/><path class="cls-23" d="M396.1,235.5c-1.6-2-2-4-4.2-4.4s-3.2.1-5.8-.2c-3.7-.4-2.1,2.8,1,3.6a8,8,0,0,0,4.9,0s2.7,4.4,4.1,1Z" transform="translate(0 -0.06)"/><path class="cls-23" d="M425,216.6c2-.6,6.6-.9,9.2.6s5,4.4,7.2,12c1.7,5.9,5.7,21.6,5,26.7s-18.9,8.3-18.9,8.3L425,216.6Z" transform="translate(0 -0.06)"/><path class="cls-3" d="M444,263.1c-1.6-3-4.2-7.6-5.5-12.9-1.7-10.9,2.1-15.8-2-26.2-1.9-4.8-7.9-8.3-12.9-7.1-1.3.3-1.8.3-3.1.6.9,2.5-8.4,5.2-12.6,2.9-1.8.6-10.4,4.4-10.4,4.4-1.8,3.6-2.9,7.8-3.8,15.6-.4,3.2,1,6.7,2.7,9.7a42.87,42.87,0,0,1,5.4,26.7c0,.3-.1.5-.1.8,0,0,7.8,8.7,27,5.2,17.1-3.1,17.6-14.5,17.6-14.5a49.83,49.83,0,0,0-2.3-5.2Z" transform="translate(0 -0.06)"/><path class="cls-23" d="M385.9,262.9c.5-5.8,1.5-14.8,2.7-24.3,1.2-9.2,2.9-11.4,8.9-13.9,8.7,5.4,5.7,22.6,5.7,22.6s-3.2,18.4-5.2,24.2c-1.3,3.8-4,8.2-8.2,6.1s-4.5-8.9-3.9-14.7Z" transform="translate(0 -0.06)"/><path class="cls-28" d="M396.3,198.4s-3.1,4.9-2.7,5.3a9.68,9.68,0,0,0,2.7.8v-6.1Z" transform="translate(0 -0.06)"/><path class="cls-23" d="M404.2,184.3c-2.7,1.6-7.3,4.5-8,14.7-.7,10.5.9,14.1,2.4,15.4,1,.9,7.9,1.1,9.8.4,3.2-1.1,9.7-5.6,12.7-11.1,3.5-6.6,3.9-15.1-.8-18.1-6.5-4.3-13.8-2.7-16.1-1.3Z" transform="translate(0 -0.06)"/><path class="cls-8" d="M413.3,215a9.44,9.44,0,0,1-4-2.1c-1.3-1.1-3.3-5.7-3.2-7,0,0,1.9,1.3,4.2-1s2.5-6.6-.8-7.6c-2.3-.7-4,1.2-4.9,3a1,1,0,0,1-.7.7c-.5.1-.9-.4-1.1-.9a4.81,4.81,0,0,0-.8-1.6,4.59,4.59,0,0,1-1.3-2.7,11,11,0,0,1,.2-2.6,8.14,8.14,0,0,0-2.4,3.4,5.31,5.31,0,0,1,.1-4.9,10.35,10.35,0,0,0-2.3,4.4,5.19,5.19,0,0,1-1.6-3.1,10.56,10.56,0,0,1,3-8.7,19.65,19.65,0,0,1,8.1-4.8,27.73,27.73,0,0,1,9.1-1.1c6.5.4,10.1,3.6,11.1,4.8a9.22,9.22,0,0,1,1.6,4.4c3.9,2,4,6.9,3.1,10.7-.8,3.3-3,6.3-5.1,8.8-1.1,1.3-2.3,2.6-3.3,4-.5.7-1,1.3-1.5,2.1-.6,1.1-1.1,2.1-1.1,2.1a18.41,18.41,0,0,1-6.4-.3Z" transform="translate(0 -0.06)"/><path class="cls-28" d="M406.8,215.2l-.4-1.6a13.72,13.72,0,0,1-4.2.7c-3,.2-4-.3-4-.4.1.2.3.3.4.5.9.7,5.5,1.1,8.2.8Z" transform="translate(0 -0.06)"/><path class="cls-10" d="M411.1,320c3.4-.2,6.1-2.7,14.3-6.1,15-6.3,26.3-11.3,30.6-19.2s7.4-43.2,6.3-53.1a13.58,13.58,0,0,0-.7-3.3l1.1-.2-2.7-2.3h0c-2.8-2.3-7.4-.2-10.8,1.6-9.9,5.4-17.6,10.6-23.6,29.4-4.6,14.1-7.6,39.6-13.9,46.6" transform="translate(0 -0.06)"/><path class="cls-24" d="M461.6,238.4l1.1-.2-2.7-2.3h0c-2.8-2.3-7.4-.2-10.8,1.6-9.9,5.4-17.6,10.6-23.6,29.4-4.6,14.1-7.6,39.6-13.9,46.6l-.3,6.5c3.4-.2,6.1-2.7,14.3-6.1,15-6.3,26.3-11.3,30.6-19.2s7.4-43.2,6.3-53.1c-.4-1.2-.7-2.3-1-3.2Z" transform="translate(0 -0.06)"/><path class="cls-10" d="M451.6,238.8c-9.9,5.4-19.1,11.2-24.3,30.5-5.2,19.1-8.5,48.1-20.5,51.3,0,0,5.4,2.2,22.1-4.9,5.3-2.2,11.7-6.3,15.9-8.7,8.3-4.6,13.3-8.4,14.1-9.9,4.4-7.8,7.4-43.2,6.3-53.1s-8.6-7.9-13.6-5.2Z" transform="translate(0 -0.06)"/><path class="cls-11" d="M451.6,238.8c-9.9,5.4-19.1,11.2-24.3,30.5-5.2,19.1-8.5,48.1-20.5,51.3,0,0,5.4,2.2,22.1-4.9,5.3-2.2,11.7-6.3,15.9-8.7,8.3-4.6,13.3-8.4,14.1-9.9,4.4-7.8,7.4-43.2,6.3-53.1s-8.6-7.9-13.6-5.2Z" transform="translate(0 -0.06)"/></g></g><g id="Character_3" data-name="Character 3"><g id="Character-2"><g id="Legs-2"><path class="cls-28" d="M314,357.5c0-.1,1.9-7,1.9-7s-.6.6-4.6-.4a20.86,20.86,0,0,1-4.3-1.8l-1.1,5c-1,1.9-4.5,1-8.4.6l-2-.3h0c-2.1-.1-4.1,1.1-2,2.9s5.7,2.4,9,3c3.9.7,10.8,1.9,11.5-2Z" transform="translate(0 -0.06)"/><path class="cls-7" d="M286.5,356.9a4.31,4.31,0,0,0-.3,2.1c.1.8,2,3.4,5.3,4.9s7.4,1.7,9.4,2.2,3.7,1.7,6,2.2,4.5.9,6.8-.6a5.71,5.71,0,0,0,.8-2.3c-.5-.4-28-8.5-28-8.5Z" transform="translate(0 -0.06)"/><path class="cls-8" d="M305.3,354c-1.5,1-4.5.3-7.8-.1-3.1-.4-6.6-1.4-8.7-.7s-3.9,3.2-1,6.4a13.09,13.09,0,0,0,3.9,3c3.5,1.3,6.7,1.4,9,1.9,3,.7,4.6,2,7.3,2.4,3.5.4,5.8-.5,6.4-1.4s1.2-8.5-.3-8.4c0,0-.6,2.5-6.4.1-2.6-1.2-2.5-2.7-2.4-3.2Z" transform="translate(0 -0.06)"/><path class="cls-1" d="M295.5,358s.3-3.2,2.7-4.1a1.11,1.11,0,0,1,1.3.2s-2.2.3-2.9,4.1c0,0-.1.2-.6.2-.2,0-.5-.1-.5-.4Z" transform="translate(0 -0.06)"/><path class="cls-1" d="M301.5,354.4s0-.1-.6-.2a.63.63,0,0,0-.6.1s-1.8.8-2.1,4.1a.55.55,0,0,0,.5.5.47.47,0,0,0,.6-.3S299.8,355.1,301.5,354.4Z" transform="translate(0 -0.06)"/><path class="cls-1" d="M303.4,354.5s-.1-.2-.5-.2-.6.2-.6.2a6,6,0,0,0-1.3,4.1.53.53,0,0,0,.6.5c.7,0,.6-.5.6-.5s.2-3.6,1.2-4.1Z" transform="translate(0 -0.06)"/><path class="cls-10" d="M314.9,312.4c-2.2,9.3-9,37.2-9,37.2s5,4.5,10.4,2.4c5.8-15.2,16.1-25.6,16-36.8Z" transform="translate(0 -0.06)"/><path class="cls-29" d="M314.9,312.4c-2.2,9.3-9,37.2-9,37.2s5,4.5,10.4,2.4c5.8-15.2,16.1-25.6,16-36.8Z" transform="translate(0 -0.06)"/><path class="cls-28" d="M294.1,367.1c.6-.9,2.8-7,2.8-7s-2.3,1.3-6.3.4a9.52,9.52,0,0,1-3.9-2.7l-1.7,5.9c-1,2-4.2,1.3-8.1,1-.6-.1-1.3-.1-2-.2h0c-2.1-.1-4.1,1.2-1.9,2.9s5.8,2.3,9,2.8c4,.6,9.9.2,12.1-3.1Z" transform="translate(0 -0.06)"/><path class="cls-7" d="M264.4,367a4.52,4.52,0,0,0-.2,2.3c.1.8,2.2,3.5,5.8,5.1s8,1.6,10.1,2.2,4,1.7,6.5,2.2,4.9.8,7.3-.9c.4-.7.9-2.3.7-2.5-.4-.4-30.2-8.4-30.2-8.4Z" transform="translate(0 -0.06)"/><path class="cls-8" d="M284.4,363.3c-.2.2-.5.3-.7.5s-.5.1-.8.2a6.05,6.05,0,0,1-1.9,0c-1.6-.1-3.2-.3-4.8-.5-3.3-.3-7.1-1.4-9.3-.5s-4.3,3.5-1.1,6.9a15.07,15.07,0,0,0,4.2,3.2c3.7,1.5,7.6,1.3,10,1.8,3.2.7,5,2.1,7.9,2.3,3.8.4,6.2-.7,6.8-1.7.4-.6,0-3.5.4-5.9.4-2,.3-3.4-.4-3.3-.1.3-.4.5-.6.7a2.7,2.7,0,0,1-.8.7,7.84,7.84,0,0,1-1.4.5,12.66,12.66,0,0,1-2.6.4,1.85,1.85,0,0,1-.7-.2,1.09,1.09,0,0,1-.4-.9c-.1-.3-.1-.6-.2-.9s-.1-.3-.2-.5a1,1,0,0,0-.5-.4,5.27,5.27,0,0,1-1.5-1.1,2.3,2.3,0,0,1-.4-1.4c0-.1,0-.2-.1-.2s-.3,0-.4.1-.3.1-.5.2Z" transform="translate(0 -0.06)"/><path class="cls-1" d="M274.1,368s.3-3.5,2.8-4.4a1.38,1.38,0,0,1,1.4.1s-2.4.4-3,4.5c0,0-.1.3-.6.2-.3-.1-.6-.1-.6-.4Z" transform="translate(0 -0.06)"/><path class="cls-1" d="M280.5,363.9s0-.1-.6-.2a.94.94,0,0,0-.7.1s-1.9.9-2.1,4.5c0,0,0,.4.6.5a.56.56,0,0,0,.7-.4s.2-3.8,2.1-4.5Z" transform="translate(0 -0.06)"/><path class="cls-1" d="M282.5,363.9s-.1-.2-.6-.2-.7.2-.7.2a6.68,6.68,0,0,0-1.3,4.4s0,.5.7.5.6-.5.6-.5.2-3.7,1.3-4.4Z" transform="translate(0 -0.06)"/><path class="cls-10" d="M296.1,321.2c-2.3,7-8.1,26.9-10.7,37.2,0,0,4.8,4.3,10.9,3.9,3.2-7.7,18.1-28.9,16.3-38-1.1-5.7-7.4-4.1-7.4-4.1Z" transform="translate(0 -0.06)"/><path class="cls-9" d="M296.1,321.2c-2.3,7-8.1,26.9-10.7,37.2,0,0,4.8,4.3,10.9,3.9,3.2-7.7,18.1-28.9,16.3-38-1.1-5.7-7.4-4.1-7.4-4.1Z" transform="translate(0 -0.06)"/><path class="cls-9" d="M311.3,332.8c-2.1-1.5-6.9-4.5-7.5-6,0,0,.7,4.8,6.7,8.1l.8-2.1Z" transform="translate(0 -0.06)"/></g><path class="cls-7" d="M389.1,391.8,382.8,339l-5.2-.3,8.9,53.1h0c0,.2.1.3.3.5a1.92,1.92,0,0,0,1.8.1c.3-.2.5-.4.5-.6Z" transform="translate(0 -0.06)"/><path class="cls-8" d="M318.2,334.1H313L305.5,384h0a.72.72,0,0,0,.4.6,2.12,2.12,0,0,0,1.9,0,1,1,0,0,0,.4-.5h0Z" transform="translate(0 -0.06)"/><path class="cls-7" d="M313,334.1,310.9,348a17.69,17.69,0,0,0,4,2.4l3.3-16.4-5.2.1Z" transform="translate(0 -0.06)"/><path class="cls-8" d="M354.5,409.5l-4.9-53.7-5.2-.3,7.4,54h0c0,.2.1.3.4.5a1.92,1.92,0,0,0,1.8.1c.3-.2.5-.4.5-.6Z" transform="translate(0 -0.06)"/><path class="cls-7" d="M350.3,363.6l-.7-7.9-5.2-.3,1.2,8.5a8.59,8.59,0,0,0,4.7-.3Z" transform="translate(0 -0.06)"/><path class="cls-7" d="M346.5,317.7h-5.2l-7.5,49.9h0a.72.72,0,0,0,.4.6,2.12,2.12,0,0,0,1.9,0,1,1,0,0,0,.4-.5h0Z" transform="translate(0 -0.06)"/><path class="cls-10" d="M309.8,333.1c-.7-4.1,2.6-7.3,8.9-11.5a164.35,164.35,0,0,1,18.1-10.2c5.2-2.4,10.6-2.2,17.3,1.3,9.3,4.8,37.4,21.8,37.4,21.8s-41.9,23.7-50,22.6-28.2-14.2-29.8-18.8-1.9-5.2-1.9-5.2Z" transform="translate(0 -0.06)"/><path class="cls-11" d="M309.8,333.1c-.7-4.1,2.6-7.3,8.9-11.5a164.35,164.35,0,0,1,18.1-10.2c5.2-2.4,10.6-2.2,17.3,1.3,9.3,4.8,37.4,21.8,37.4,21.8s-41.9,23.7-50,22.6-28.2-14.2-29.8-18.8-1.9-5.2-1.9-5.2Z" transform="translate(0 -0.06)"/><path class="cls-10" d="M345.5,352.1c-6,5.5-12.3.8-22.3-5.7-11.3-7.3-13.5-13.3-13.5-13.3s0,4.5.8,6.6,2.7,4.5,10.8,10.1,14,8.4,19.5,9.5l4.3-.6" transform="translate(0 -0.06)"/><path class="cls-24" d="M323.3,346.4c-11.3-7.3-13.5-13.3-13.5-13.3s0,4.5.8,6.6,2.7,4.5,10.8,10.1,14,8.4,19.5,9.5l4.3-.6.3-6.5c-6,5.4-12.3.7-22.2-5.8Z" transform="translate(0 -0.06)"/><g id="Top"><path class="cls-10" d="M375.7,311.5c-7.8-.8-30-6.4-35.4-7.3-10.4-1.8-15.6-2-18.6-1.1s-5.5,4.3-6.5,7.8c-1.1,4.2-1.6,6.4-1.6,6.4s22.8,8,34.3,9.4,27.8-15.2,27.8-15.2Z" transform="translate(0 -0.06)"/><path class="cls-29" d="M375.7,311.5c-7.8-.8-30-6.4-35.4-7.3-10.4-1.8-15.6-2-18.6-1.1s-5.5,4.3-6.5,7.8c-1.1,4.2-1.6,6.4-1.6,6.4s22.8,8,34.3,9.4,27.8-15.2,27.8-15.2Z" transform="translate(0 -0.06)"/><path class="cls-10" d="M375.7,311.5c.4,11,.1,21.2-5.2,26.8-3.6,3.7-21.4,13.4-32.9,9.6s-34.9-21.2-37.2-23-4.5-3-4.3-3.7c3.2-10.5,7.8-11.3,16.4-9.5,10.5,2.3,33.6,11.7,33.6,11.7Z" transform="translate(0 -0.06)"/><path class="cls-20" d="M375.7,311.5c.4,11,.1,21.2-5.2,26.8-3.6,3.7-21.4,13.4-32.9,9.6s-34.9-21.2-37.2-23-4.5-3-4.3-3.7c3.2-10.5,7.8-11.3,16.4-9.5,10.5,2.3,33.6,11.7,33.6,11.7Z" transform="translate(0 -0.06)"/><polygon class="cls-28" points="330.8 253.24 335.1 265.84 348.8 261.54 344.6 247.24 330.8 253.24"/><path class="cls-30" d="M322,236.5s-3.2,4.7-2.9,5.2,2.6.9,2.6.9l.3-6.1Z" transform="translate(0 -0.06)"/><path class="cls-7" d="M322.1,239.6a3.9,3.9,0,0,1-3.9-3.9,3.9,3.9,0,1,1,7.8,0A3.9,3.9,0,0,1,322.1,239.6Zm0-7.1a3.2,3.2,0,1,0,3.2,3.2A3.22,3.22,0,0,0,322.1,232.5Z" transform="translate(0 -0.06)"/><path class="cls-28" d="M331,223.5c-6.4,1.2-8.3,3.9-9.1,14-.9,10.5.1,13.9,1.5,15.3.9,1,6.1,1.3,8.7.6,3.3-.8,10.8-3.3,14.4-8.5,4.2-6.1,5.5-14.6,1.2-18.1-6-5-14.1-3.8-16.7-3.3Z" transform="translate(0 -0.06)"/><path class="cls-30" d="M330.9,253.7a12.28,12.28,0,0,1-7.2-.6,10.17,10.17,0,0,0,4.6-.2c2.6-.7,3.1-1.6,3.1-1.6l-.5,2.4Z" transform="translate(0 -0.06)"/><path class="cls-7" d="M320.8,227.6h0a16.4,16.4,0,0,0,6.1,2.1,12.31,12.31,0,0,0,.9,5c.4,1.1,1.7,4.7,3.1,2.7,1-1.4,2-2.7,4-2.3,3.3.6,3.6,4.8,1.5,7.3s-4.1,1.5-4.1,1.5-.3,4.5,2.1,7.7a10.72,10.72,0,0,0,8.6.5c3.2-1,7.7-5,9.4-8.1,4.6-8.6,4.6-16.8-1-19.3-.5-4.1-3.7-6-7.4-6.9-5.1-1.3-10.3,1.9-15.2-.2-1-.4-2-1.1-3-1.4a2.25,2.25,0,0,0-1.8,0c-.5.3-.6.9-.8,1.4a4.08,4.08,0,0,0,.2,2.9,9.17,9.17,0,0,0-2.3-.9,2.53,2.53,0,0,0-3.2,2.5,6.18,6.18,0,0,0,2.9,5.5Z" transform="translate(0 -0.06)"/><path class="cls-7" d="M351.5,226.1l3.9-2.1a2.27,2.27,0,0,0-3-.9A2.18,2.18,0,0,0,351.5,226.1Z" transform="translate(0 -0.06)"/><polygon class="cls-7" points="330.8 237.74 318.5 235.44 318.6 234.84 331 237.14 330.8 237.74"/><path class="cls-8" d="M347.4,256.9l-.6-2.1c8.8-4.2,16.1,2.6,20.8,14.5,5.1,12.7,8.2,27.1,8.2,44.8a40.87,40.87,0,0,1-15.9,11.8c-10.6,4.2-25.4,2.4-30-8.6,0,0,0-7.3-.3-13.7a65.47,65.47,0,0,0-4.8-19.4c-2.5-5.9-5.8-16.7,1-20.8,2-1.2,5.1-2.5,7.8-3.8,6.2,2.2,14.6-.2,13.8-2.7Z" transform="translate(0 -0.06)"/><path class="cls-6" d="M328.2,262.2c.8-2,2.9-5.7,3.5-6.1a19.7,19.7,0,0,0,9.4-.4c4.8-1.5,5-2.9,5-2.9l-.3-1.2s.4-.5,1.7.5a11,11,0,0,1,2.4,2.9c.5.7.1,4-3.4,6.3s-9.8,1.3-12.2,1a21.59,21.59,0,0,1-4.3-1l-1.8.9Z" transform="translate(0 -0.06)"/><path class="cls-8" d="M315.7,318.5c-3.4-1.3-5.5-5.1-5.9-7.6a15.12,15.12,0,0,1,1.4-8.6C312.5,300,315.7,318.5,315.7,318.5Z" transform="translate(0 -0.06)"/><path class="cls-7" d="M311.2,302.8c1-6,3.1-15.4,5.1-25,1.9-9.4,4.5-12.2,9.5-14.3,11.9,7.1,6.6,28.2,6.6,28.2s-5.2,14.8-7.7,20.7c-1.6,3.9-5.6,8.2-9.8,5.8S310.2,308.8,311.2,302.8Z" transform="translate(0 -0.06)"/></g><path class="cls-10" d="M345.2,358.6c3.4-.2,6.1-2.7,14.3-6.1,15-6.3,26.3-11.3,30.6-19.2s7.4-43.2,6.3-53.1a13.58,13.58,0,0,0-.7-3.3l1.1-.2-2.7-2.3h0c-2.8-2.3-7.4-.2-10.8,1.6-9.9,5.4-17.6,10.6-23.6,29.4-4.6,14.1-7.6,39.6-13.9,46.6" transform="translate(0 -0.06)"/><path class="cls-24" d="M395.6,277l1.1-.2-2.7-2.3h0c-2.8-2.3-7.4-.2-10.8,1.6-9.9,5.4-17.6,10.6-23.6,29.4-4.6,14.1-7.6,39.6-13.9,46.6l-.3,6.5c3.4-.2,6.1-2.7,14.3-6.1,15-6.3,26.3-11.3,30.6-19.2s7.4-43.2,6.3-53.1c-.4-1.2-.6-2.3-1-3.2Z" transform="translate(0 -0.06)"/><path class="cls-10" d="M385.7,277.5c-9.9,5.4-19.1,11.2-24.3,30.5-5.2,19.1-8.5,48.1-20.5,51.3,0,0,5.4,2.2,22.1-4.9,5.3-2.2,11.7-6.3,15.9-8.7,8.3-4.6,13.3-8.4,14.1-9.9,4.4-7.8,7.4-43.2,6.3-53.1s-8.7-7.9-13.6-5.2Z" transform="translate(0 -0.06)"/><path class="cls-11" d="M385.7,277.5c-9.9,5.4-19.1,11.2-24.3,30.5-5.2,19.1-8.5,48.1-20.5,51.3,0,0,5.4,2.2,22.1-4.9,5.3-2.2,11.7-6.3,15.9-8.7,8.3-4.6,13.3-8.4,14.1-9.9,4.4-7.8,7.4-43.2,6.3-53.1s-8.7-7.9-13.6-5.2Z" transform="translate(0 -0.06)"/></g></g><g id="Character_2" data-name="Character 2"><g id="Character-3"><g id="Legs-3"><path class="cls-1" d="M235.3,397.9s0-3.1,2.2-4.2a1.33,1.33,0,0,1,1.3,0s-2.1.5-2.4,4.2c0,0-.1.2-.6.2-.1.1-.5.1-.5-.2Z" transform="translate(0 -0.06)"/><path class="cls-6" d="M233.4,395.2c-3.4,0-5.3-.4-9.4-.3-3.1.1-4.2,3.8-.5,6.9a20.68,20.68,0,0,0,5.3,2.9c4.8,1.5,8.3.6,10.9.9,3.3.4,4.2,1.3,6.9,1.5,3.6.3,4.9-.3,5.8-1.4,1.1-2.6.4-3.5.8-6.5.2-1.7.1-2.4-.1-2.4-1-.1-18-1.6-19.7-1.6Z" transform="translate(0 -0.06)"/><path class="cls-31" d="M253.1,397.1c.5-1.7,2.1-8.5,2.1-8.5s-2.2,1.6-6.4,1c-2.1-.3-3.5-5.8-3.5-5.8l-1.2,9.1c-.8,2.1-4.9,2.2-8.8,2.2h-2c-2.1.1-4.1,1.7-1.7,3.2s6.1,1.7,9.5,1.9c4,.3,10.8.8,12-3.1Z" transform="translate(0 -0.06)"/><path class="cls-7" d="M248.7,346.7c-1.2,9.2-4.2,42.1-4.2,42.1s5.3,4.2,10.3,1.7c4.1-15.2,12.1-32,11-42.7l-17.1-1.1Z" transform="translate(0 -0.06)"/><path class="cls-6" d="M215.2,405.9c-3.4,0-5.3-.4-9.4-.3-3.1.1-4.2,3.8-.5,6.9a20.68,20.68,0,0,0,5.3,2.9c4.8,1.5,8.3.6,10.9.9,3.3.4,4.2,1.3,6.9,1.5,3.6.3,4.9-.3,5.8-1.4,1.1-2.6.4-3.5.8-6.5.2-1.7.1-2.4-.1-2.4-1.1-.1-18-1.6-19.7-1.6Z" transform="translate(0 -0.06)"/><path class="cls-31" d="M234.9,407.8c.5-1.7,2.1-8.5,2.1-8.5s-2.2,1.6-6.4,1c-2.1-.3-3.5-5.8-3.5-5.8l-1.2,9.1c-.8,2.1-4.9,2.2-8.8,2.2h-2c-2.1.1-4.1,1.7-1.7,3.2s6.1,1.7,9.5,1.9c4,.3,10.7.8,12-3.1Z" transform="translate(0 -0.06)"/><path class="cls-8" d="M231.5,357c-1.5,7-3.9,33-5.4,43.1a16.39,16.39,0,0,0,10.4,1.8c2.4-7.7,13.8-35,11.1-43.5-1.6-5.4-7.5-3.2-7.5-3.2Z" transform="translate(0 -0.06)"/></g><path class="cls-7" d="M322.6,429.9l-6.4-53-5.2-.3,8.9,53.2h0c0,.2.1.3.4.5a2.11,2.11,0,0,0,1.9.1.66.66,0,0,0,.4-.5Z" transform="translate(0 -0.06)"/><path class="cls-8" d="M251.4,372.1h-5.2l-7.6,50h0a.72.72,0,0,0,.4.6,2.12,2.12,0,0,0,1.9,0,1,1,0,0,0,.4-.5h0l10.1-50.1Z" transform="translate(0 -0.06)"/><path class="cls-7" d="M246.2,372.1l-2.1,14a17.69,17.69,0,0,0,4,2.4l3.3-16.4Z" transform="translate(0 -0.06)"/><path class="cls-8" d="M287.9,447.7,283,393.8l-5.2-.3,7.5,54.1h0c0,.2.1.3.4.5a2.11,2.11,0,0,0,1.9.1.85.85,0,0,0,.3-.5Z" transform="translate(0 -0.06)"/><path class="cls-7" d="M283.7,401.7l-.7-7.9-5.2-.3L279,402a8.59,8.59,0,0,0,4.7-.3Z" transform="translate(0 -0.06)"/><path class="cls-7" d="M279.8,355.6h-5.2l-7.6,50h0a.72.72,0,0,0,.4.6,2.12,2.12,0,0,0,1.9,0,1,1,0,0,0,.4-.5h0l10.1-50.1Z" transform="translate(0 -0.06)"/><path class="cls-10" d="M243.1,371.1c-.7-4.1,2.6-7.3,8.9-11.5a155.67,155.67,0,0,1,18.2-10.2c5.2-2.4,10.6-2.2,17.4,1.3,9.4,4.8,37.5,21.9,37.5,21.9s-42,23.7-50.1,22.7-28.3-14.2-29.9-18.8c-1.8-4.9-2-5.4-2-5.4Z" transform="translate(0 -0.06)"/><path class="cls-11" d="M243.1,371.1c-.7-4.1,2.6-7.3,8.9-11.5a155.67,155.67,0,0,1,18.2-10.2c5.2-2.4,10.6-2.2,17.4,1.3,9.4,4.8,37.5,21.9,37.5,21.9s-42,23.7-50.1,22.7-28.3-14.2-29.9-18.8c-1.8-4.9-2-5.4-2-5.4Z" transform="translate(0 -0.06)"/><path class="cls-10" d="M278.9,390.1c-6,5.5-12.4.8-22.3-5.7-11.3-7.3-13.5-13.3-13.5-13.3s0,4.5.8,6.6,2.7,4.5,10.8,10.1,14,8.4,19.5,9.5l4.3-.6" transform="translate(0 -0.06)"/><path class="cls-24" d="M256.6,384.4c-11.3-7.3-13.5-13.3-13.5-13.3s0,4.5.8,6.6,2.7,4.5,10.8,10.1,14,8.4,19.5,9.5l4.3-.6.3-6.5c-5.9,5.4-12.3.7-22.2-5.8Z" transform="translate(0 -0.06)"/><g id="Top-2"><path class="cls-7" d="M304,349.4s-17.2-5-29-7.6c-9.9-2.2-13.9-2.7-17.6-2.5-3.9.2-8.1,1.9-8.7,7.1-.4,3.6-.8,7.1-.8,7.1s20.3,9.8,31.4,11.1S304,349.4,304,349.4Z" transform="translate(0 -0.06)"/><path class="cls-8" d="M304.6,349.4c3.6,10.5,3,20.5-3.3,26.4-3.6,3.4-20.7,13-31.9,9.3-11-3.6-31.5-22.8-33.8-24.5s-4.4-2.9-4.1-3.6c3.1-10.2,7.6-11,15.9-9.1,10.2,2.2,30.2,13.7,30.2,13.7l27-12.2Z" transform="translate(0 -0.06)"/><polygon class="cls-31" points="270.9 293.64 271.8 306.84 286.7 304.84 285.1 290.44 270.9 293.64"/><path class="cls-32" d="M263.5,278.3s-3.2,3.8-2.9,4.3,2,1.1,2,1.1Z" transform="translate(0 -0.06)"/><path class="cls-7" d="M293.7,269.4a8.94,8.94,0,0,0-4.4-6.4,22.83,22.83,0,0,0-11.6-3c-4.8,0-10.4,1.5-13.1,5.7a9.4,9.4,0,0,0-1.5,5.4,8.69,8.69,0,0,0,2.2,5.3c1.2,1.4,2.4,2.8,3.6,4.3s2,3,3.1,4.4a24.76,24.76,0,0,1,1.9,2.6c0,.1.1.1.1.2a3.47,3.47,0,0,1-1.8-.4s-.3,5.4,3.9,7.9c0,0,5.1,2.1,9.5.3,1.2-1.8,3.7-3.8,6.3-7.1,5.2-6.9,5-14.5,1.8-19.2Z" transform="translate(0 -0.06)"/><path class="cls-31" d="M276.4,286.7a3.36,3.36,0,0,1-2.4,1.1,4,4,0,0,1-1.8-.3s.3,4.3,2.8,7.1a9.68,9.68,0,0,1-2.7.8c-2.6.5-7.4-.4-8.3-1.4-1.2-1.5-3.1-5.2-.7-15.1.2-3.1-.2-3.1.1-4.4a9.27,9.27,0,0,1,2-4.1c0,1.5,1.7,3.3,4,3.5a4.66,4.66,0,0,0-1.1,3.4,7.88,7.88,0,0,0,2.1,3.9l.2.2a1.39,1.39,0,0,0,.9,0c1-1.2,2.4-2.6,4.8-1.5,2.7,1.1,2.1,4.5.1,6.8Z" transform="translate(0 -0.06)"/><path class="cls-32" d="M264.3,294.2c1.1.8,4.3,1.4,6.7,1.3l-.2-1.9a10.57,10.57,0,0,1-3,.7,10.28,10.28,0,0,1-3.5-.1Z" transform="translate(0 -0.06)"/><path class="cls-7" d="M269.8,284.6a2.28,2.28,0,0,1-1.1-3.1,2.33,2.33,0,0,1,3.2-1l-2.1,4.1Z" transform="translate(0 -0.06)"/><path class="cls-11" d="M286,298.5l-.1-1.2c8.5-1.5,14.4-1.9,17.1,10.2,1.6,7,2.2,14.8,3.1,29.2.5,7.1.4,9.5,1.5,22.5,0,0-3.7,4.8-18.7,5.8-6,.4-22.3-1.9-24.6-7.8,0,0,.7-12.6.3-18.7a45,45,0,0,0-3.4-13.9c-.9-2.2-.8-3.6-1.4-5.9-1.5-6-2.3-13.5,4.8-16.4,2.1-.8,3.9-1.5,6.7-2.3,5.7,3.1,15.1,1,14.7-1.5Z" transform="translate(0 -0.06)"/><path class="cls-31" d="M248.5,258.5a24.25,24.25,0,0,1,1.3-7.6,24.86,24.86,0,0,0,.7-6.9v-3c-.2-.8-1.9-.1-2.3,1.8-.2,1.1-.2,1.1-.5,2.4,0,.2-.3,1.1-.4.4-.1-.9-.1-3.1-.1-4a16.37,16.37,0,0,0-.4-2.5,20.48,20.48,0,0,0-.5-2.4c-.2-1-.5-2.1-.7-3.2-.1-.3-.3-.5-.7-.3-1.1.5-1.2,1.6-1.2,2.7,0,.7.1,1.4.1,2.2-.4-1.8-.7-3.6-1.1-5.3a.76.76,0,0,0-.2-.5,1.05,1.05,0,0,0-1.2,0,1.76,1.76,0,0,0-.8.9,3.65,3.65,0,0,0-.3,1.5,2.56,2.56,0,0,0-1.1.8,3,3,0,0,0-.5,2.1v.3c.1,1,.1,3,.2,4a22.4,22.4,0,0,0-.8-3.1.68.68,0,0,0-.3-.4.37.37,0,0,0-.3.1,1.84,1.84,0,0,0-.8,1.4,4.19,4.19,0,0,0,.1,1.6c.3,1.9.6,3.7.8,5.5a19.29,19.29,0,0,1,.1,2.5c-.1.7-.1,1.4-.2,2.1a7,7,0,0,0,.1,3.8c.2.6.4,1.1.6,1.7a11.81,11.81,0,0,1,.8,3.1c0,.5-.1,2.6-.2,3.8-.1,1.5-.4,12.5-.8,20-.2,5.6-.1,6.3,3.1,11.2,1.9,2.9,10.1,14.4,16,22.7a58.43,58.43,0,0,1,4.2,7c1.2.9,3.7-1.8,5.4-6.3,1.4-3.7,2.3-8.7,1.3-12.5s-3.3-4.6-6.8-8.5a86,86,0,0,1-9.4-13s-3.2-23.9-3.2-26.1Z" transform="translate(0 -0.06)"/><path class="cls-7" d="M295.1,312.8a16,16,0,0,1,4.2-1.4,7.37,7.37,0,0,0,4.3-9.1,12.63,12.63,0,0,0-3.2-5.6,8.33,8.33,0,0,1,3,2.6c-.8-3-2.9-5.4-4.5-8.1a14.44,14.44,0,0,1-1.8-4,19.89,19.89,0,0,1-.5-4.9c-.1-7.5-.3-10.2-3-12.8-.2,3.5-1.9,11.1-12.4,19.1-2.3,1.8-7.3,1.5-9-1-.4,1.9-.7,3.8-1.1,5.7s-.6,4.2-1.8,5.7a14.07,14.07,0,0,0-3,7.5,7.51,7.51,0,0,0,3.5,6.9,5.26,5.26,0,0,1,0-3.9c.6,1.9,1.3,3.9,2.9,5,1.9,1.2,4.3.8,6.4,1.5a20.18,20.18,0,0,1,3,1.4,9.12,9.12,0,0,0,6.1.3c3.1-.9,4.5-3.4,6.9-4.9Z" transform="translate(0 -0.06)"/></g><path class="cls-10" d="M278.6,396.7c3.4-.2,6.1-2.7,14.3-6.1,15.1-6.3,26.4-11.3,30.7-19.2s7.4-43.4,6.3-53.2a13.58,13.58,0,0,0-.7-3.3l1.1-.2-2.8-2.3h0c-2.8-2.3-7.4-.2-10.9,1.6-9.9,5.4-17.6,10.6-23.7,29.5-4.6,14.2-7.6,39.8-14,46.7" transform="translate(0 -0.06)"/><path class="cls-24" d="M329.1,314.8l1.1-.2-2.8-2.3h0c-2.8-2.3-7.4-.2-10.9,1.6-9.9,5.4-17.6,10.6-23.7,29.5-4.6,14.2-7.6,39.8-14,46.7l-.3,6.5c3.4-.2,6.1-2.7,14.3-6.1,15.1-6.3,26.4-11.3,30.7-19.2s7.4-43.4,6.3-53.2a10.09,10.09,0,0,0-.7-3.3Z" transform="translate(0 -0.06)"/><path class="cls-10" d="M319.2,315.2c-9.9,5.4-19.2,11.2-24.4,30.6-5.2,19.1-8.5,48.2-20.6,51.4,0,0,5.4,2.2,22.1-4.9,5.3-2.2,11.8-6.3,16-8.7,8.3-4.6,13.3-8.5,14.1-9.9,4.4-7.9,7.4-43.4,6.3-53.2s-8.5-7.9-13.5-5.3Z" transform="translate(0 -0.06)"/><path class="cls-11" d="M319.2,315.2c-9.9,5.4-19.2,11.2-24.4,30.6-5.2,19.1-8.5,48.2-20.6,51.4,0,0,5.4,2.2,22.1-4.9,5.3-2.2,11.8-6.3,16-8.7,8.3-4.6,13.3-8.5,14.1-9.9,4.4-7.9,7.4-43.4,6.3-53.2s-8.5-7.9-13.5-5.3Z" transform="translate(0 -0.06)"/></g></g><g id="Character_1" data-name="Character 1"><g id="Chartacter"><g id="Bottom"><polygon points="139.9 294.74 143.9 293.04 142.5 290.24 139.9 292.54 139.9 294.74"/><path class="cls-7" d="M135.4,287.2s.1,2.9,0,3.8,3.6,3.5,4.5,3.9v-2.2a19.69,19.69,0,0,1,2.1,3.2c.7,1.2,1.6,3.5,3.5,5,2.9,2.3,7.4,3.5,11.9,3.7s7.2-.9,8.5-1.8,1.7-2.1,1.4-3.2-32-12.4-31.9-12.4Z" transform="translate(0 -0.06)"/><path class="cls-6" d="M147.7,278.2l.1-1.5c.9,0,.9,2.2,2.1,4.2a41.5,41.5,0,0,0,6.4,8.1c4.6,4.2,8.8,6.8,10.8,8.6,2.8,2.5-2.2,6.4-9.6,5.9-3.7-.2-10.3-2.1-12.1-4.3s-2.9-5.5-4.4-7-4.6-3.1-5.6-5c-.5-1-.2-3.4.1-5.5.3-1.9.4-4.8,1.5-4.5l.1,1c.4.8,1.5,2.2,4.4,2.7,1.5.2,5.9.4,6.2-2.7Z" transform="translate(0 -0.06)"/><path class="cls-33" d="M143.9,280.9c1.4-.1,3-.5,3.6-1.8h0a3.52,3.52,0,0,0,.9,3c1.3,1.5,9.7,12.3,9.7,12.3l-9.3-10.6c-2.2-2.5-2.9-2.8-4.9-2.9Z" transform="translate(0 -0.06)"/><path class="cls-33" d="M145.7,283.8c0,.2-.3.4-.5.4a.46.46,0,0,1-.4-.5c0-.3.3-.4.5-.4S145.7,283.6,145.7,283.8Z" transform="translate(0 -0.06)"/><path class="cls-33" d="M147.9,286.2c0,.2-.3.4-.5.4a.46.46,0,0,1-.4-.5c0-.3.3-.4.5-.4S147.9,286,147.9,286.2Z" transform="translate(0 -0.06)"/><path class="cls-33" d="M150.1,288.6c0,.2-.3.4-.5.4a.46.46,0,0,1-.4-.5c0-.3.3-.4.5-.4A.46.46,0,0,1,150.1,288.6Z" transform="translate(0 -0.06)"/><path class="cls-33" d="M152.3,291c0,.2-.3.4-.5.4a.46.46,0,0,1-.4-.5c0-.3.3-.4.5-.4A.46.46,0,0,1,152.3,291Z" transform="translate(0 -0.06)"/><path class="cls-33" d="M154.5,293.4c0,.2-.3.4-.5.4a.46.46,0,0,1-.4-.5c0-.3.3-.4.5-.4A.46.46,0,0,1,154.5,293.4Z" transform="translate(0 -0.06)"/><path class="cls-7" d="M145.2,283.9h-.1c-.1-.1-.1-.2,0-.2a7.55,7.55,0,0,1,5.2-1.9h0a.2.2,0,0,1,0,.4,7.37,7.37,0,0,0-4.9,1.8c-.1-.1-.1-.1-.2-.1Z" transform="translate(0 -0.06)"/><path class="cls-7" d="M147.4,286.3h-.1c-.1-.1-.1-.2,0-.2a7.55,7.55,0,0,1,5.2-1.9h0a.2.2,0,0,1,0,.4,7.37,7.37,0,0,0-4.9,1.8c-.1-.1-.1-.1-.2-.1Z" transform="translate(0 -0.06)"/><path class="cls-7" d="M149.6,288.7h-.1c-.1-.1-.1-.2,0-.2a7.55,7.55,0,0,1,5.2-1.9h0a.2.2,0,1,1,0,.4,7.37,7.37,0,0,0-4.9,1.8c-.1-.1-.1-.1-.2-.1Z" transform="translate(0 -0.06)"/><path class="cls-7" d="M151.8,291.1h-.1c-.1-.1-.1-.2,0-.2a7.55,7.55,0,0,1,5.2-1.9h0a.2.2,0,1,1,0,.4,7.37,7.37,0,0,0-4.9,1.8c-.1-.1-.1-.1-.2-.1Z" transform="translate(0 -0.06)"/><path class="cls-7" d="M154,293.5h-.1c-.1-.1-.1-.2,0-.2a7.55,7.55,0,0,1,5.2-1.9h0a.2.2,0,1,1,0,.4,7.37,7.37,0,0,0-4.9,1.8.31.31,0,0,0-.2-.1Z" transform="translate(0 -0.06)"/><path class="cls-7" d="M106.3,307.7a16,16,0,0,1-2.6,7.8c-1.4,2-4.2,2.4-6.2,2.1a8.78,8.78,0,0,1-7.2-6.1c-.8-2.4-.5-5.1.3-8.4Z" transform="translate(0 -0.06)"/><path class="cls-6" d="M96.8,281.5c-1,0-1.6,4.7-2.5,9.4-1,5-2.7,7.8-3.5,11.1-1,4.7-.8,6.8.7,9.8s8.8,6.3,12,2.4c2.7-3.2,3-6.9,3.1-11.7a106.12,106.12,0,0,1,.6-12.1c.4-3.5.9-7,.1-7.4-.1.5-.2,1.2-.3,1.7s-.3,2.3-.9,2.3a5.28,5.28,0,0,1,.1-1.3,1.32,1.32,0,0,0-.2-1.2,1.27,1.27,0,0,0-1.1-.5c-1-.2-2-.5-3-.6a7.57,7.57,0,0,0-1.5-.1,12.19,12.19,0,0,0-2.7,0c-.2.1-.5.2-.6.5a1.09,1.09,0,0,0-.1.5,4.4,4.4,0,0,1-.2,1c-.1.1-.2.3-.3.3s-.2-.2-.2-.3a8.75,8.75,0,0,1,.2-1.6c0-.3.1-.7.1-1a7.38,7.38,0,0,0,.2-1.2Z" transform="translate(0 -0.06)"/><path class="cls-33" d="M94.4,303.5c0,.2.1.4.3.4s.4-.1.4-.3-.1-.4-.3-.4A.54.54,0,0,0,94.4,303.5Z" transform="translate(0 -0.06)"/><path class="cls-33" d="M95,300.2c0,.2.1.4.3.4s.4-.1.4-.3-.1-.4-.3-.4A.45.45,0,0,0,95,300.2Z" transform="translate(0 -0.06)"/><path class="cls-33" d="M95.5,297.2c0,.2.1.4.3.4s.4-.1.4-.3-.1-.4-.3-.4S95.6,297,95.5,297.2Z" transform="translate(0 -0.06)"/><path class="cls-33" d="M96,294.1c0,.2.1.4.3.4s.4-.1.4-.3-.1-.4-.3-.4S96.1,294,96,294.1Z" transform="translate(0 -0.06)"/><path class="cls-33" d="M104,295.1c0,.2.1.4.3.4s.4-.1.4-.3-.1-.4-.3-.4S104,294.9,104,295.1Z" transform="translate(0 -0.06)"/><path class="cls-33" d="M103.5,298.2c0,.2.1.4.3.4s.4-.1.4-.3-.1-.4-.3-.4S103.5,298,103.5,298.2Z" transform="translate(0 -0.06)"/><path class="cls-33" d="M103,301.2c0,.2.1.4.3.4s.4-.1.4-.3-.1-.4-.3-.4A.45.45,0,0,0,103,301.2Z" transform="translate(0 -0.06)"/><path class="cls-33" d="M102.4,304.5c0,.2.1.4.3.4s.4-.1.4-.3-.1-.4-.3-.4S102.5,304.3,102.4,304.5Z" transform="translate(0 -0.06)"/><polygon class="cls-33" points="99.3 305.84 103.6 283.14 102.2 283.04 99.3 305.84"/><path class="cls-7" d="M94.8,303.7h0c2.4-.4,6.4.1,7.9.9.1,0,.2,0,.2-.1s0-.2-.1-.2c-1.6-.9-5.6-1.4-8.1-1a.22.22,0,0,0-.2.2C94.6,303.7,94.7,303.7,94.8,303.7Z" transform="translate(0 -0.06)"/><path class="cls-7" d="M95.3,300.5h0c1.9-.7,6.2,0,7.9.9.1,0,.2,0,.2-.1s0-.2-.1-.2c-1.8-1-6.2-1.7-8.1-1-.1,0-.1.1-.1.2l.2.2Z" transform="translate(0 -0.06)"/><path class="cls-7" d="M95.8,297.4h0c1.9-.7,6.2,0,7.9.9.1,0,.2,0,.2-.1s0-.2-.1-.2c-1.8-1-6.2-1.7-8.1-1-.1,0-.1.1-.1.2s.2.2.2.2Z" transform="translate(0 -0.06)"/><path class="cls-7" d="M96.4,294.4h0c1.9-.7,6.2,0,7.9.9.1,0,.2,0,.2-.1s0-.2-.1-.2c-1.8-1-6.2-1.7-8.1-1-.1,0-.1.1-.1.2A.22.22,0,0,0,96.4,294.4Z" transform="translate(0 -0.06)"/><path class="cls-7" d="M104.5,165.9c-2.7,28.9-4.7,68.2-4.7,68.2-.2,2.2-2.5,11.5-3.8,22.3-1.3,11.4-2.5,32.8-2.5,32.8s8.2,4.4,14.9,2.4c0,0,7.6-35.9,11.2-49.3,3.4-12.7,8.8-36.7,8.8-36.7l3.1,23.9s-.6,8.2-.4,14c.2,6.7,4.2,39,4.2,39s8.9,5.2,15.9.2c0,0,1-44.2,1.2-52.2.4-16.2.8-44.2.5-64.6Z" transform="translate(0 -0.06)"/><path d="M116.2,199.3q-1,10.35-2.4,20.7c-.4,3.4-.9,6.9-1.3,10.3l-.7,5.2-.3,2.6c-.1.9-.3,1.7-.4,2.6-1.3,6.8-3.2,19.3-4.6,26.1s-2.8,13.6-4.4,20.4c1-6.9,2.1-13.7,3.3-20.6s3.1-19.3,4.4-26.1c.2-.9.3-1.7.5-2.6l.4-2.6.7-5.2c.5-3.4,1-6.9,1.5-10.3,1-6.8,2.1-13.6,3.3-20.5Z" transform="translate(0 -0.06)"/><path d="M147.6,197.8c.7,6.5,1,13,1.2,19.5s.4,13,0,19.5c-.2,6.5-.6,17.4-.9,23.9s-.7,13-1.2,19.5c0-6.5.1-13,.2-19.5s.4-17.4.6-23.9l.2-4.9.1-1.2V207.6c-.1-3.3-.1-6.5-.2-9.8Z" transform="translate(0 -0.06)"/><path d="M128.4,205.5l3.1-15.8s8.1-1,12.3-4.6c0,0-2.7,4.7-10.4,6.5l-3.1,13.9,1.2,23.9-3.1-23.9Z" transform="translate(0 -0.06)"/></g><g id="Top-3"><g id="Arm"><path class="cls-8" d="M145.4,109.4c4.9,1.5,5.6,2.6,14.5,10.1a138.31,138.31,0,0,0,11.2,8.8s7.6,9,7.9,10.8a9.71,9.71,0,0,1-3.7,8.6c-1.9,1.4-4,.9-6.1-.2-2.5-1.3-3.7-2-4.9-2.7-8.2-4.8-14.9-9.1-14.9-9.1l-4-26.3Z" transform="translate(0 -0.06)"/><path class="cls-23" d="M197.7,103.7c-1.2-.7-1.4.4-1.9.6,0,0,1.2-1.5-.9-2.7-1.3-.8-1.9,1.1-1.9.8,0-.1,1.5-3.8,2.8-7,1.2-3,.1-3.9-.4-4.1s-1,0-2.1,2.2-4.3,8.8-5.1,10.1-1.3,2-1.8.2-.9-3.2-1.9-4.2c-1.6-1.7-2.9-.9-2.6.4.4,1.8.4,4,.7,6.9.2,1.6.2,3,.4,4.1.6,3.7-1.6,5.5-4.1,8.4-2.1,2.4-4.2,4.4-9,9.3-4.6,4.6-3.9,14.8.4,17.2,4.8,2.7,6.1,1.1,11-6.6,3.2-4.9,7.4-14,8.6-16.1s1.6-3.4,3.2-4.4a13,13,0,0,0,4.5-5.1c.6-1.1,1.7-3,2.4-4.6s.8-2.7-.1-3.3c-1.2-.9-1.6.5-1.7.3s1.3-1.4-.5-2.4Z" transform="translate(0 -0.06)"/><path class="cls-28" d="M196.1,111.6c-.4-.6,0-1.7,0-1.7a3,3,0,0,1-1,.9,1.48,1.48,0,0,1-1.7-.8,2.21,2.21,0,0,1,.2-1.4,2.73,2.73,0,0,1-1.1.6,1.18,1.18,0,0,1-1.5-1c-.2-.8.7-2.8,1.6-4.7a9.82,9.82,0,0,0-1.5,2.1,4.55,4.55,0,0,0-.8,2.5,5.26,5.26,0,0,0-2-1.6c1.7,1.6,3,6.1,2.3,9.1a6.52,6.52,0,0,0,.6-5.9,1.53,1.53,0,0,0,1.6-.1,1.63,1.63,0,0,0,.9,1.7,1.45,1.45,0,0,0,1.7,0s-.2.7.7,1.1,1.6-.1,2.1-.9a1.45,1.45,0,0,1-2.1.1Z" transform="translate(0 -0.06)"/></g><g id="Chest"><path class="cls-6" d="M106.6,111s-4.5,4-3.3,14.8c1,9.4,1.5,17.3,1.6,21,.2,5.6-1.2,24.4-1.2,24.4,8.1,10.4,44.5,9.3,49.2.3V146c0-9.2.3-17.6-.9-23-1.6-7.2-3.9-11.5-6.6-13.6l-11.9-3.3-10.9-.5-16,5.4Z" transform="translate(0 -0.06)"/></g><g id="Head"><path class="cls-7" d="M119.5,101c-.7-3.6-4.4-7.2-6.1-10.3s-2.6-5.3-2.5-8.2a6.35,6.35,0,0,1,1.9-4.6c-.3-6.2,5.9-9.4,10.1-10.5,4.9-1.3,8.8-1.6,13.9.5a10.94,10.94,0,0,1,6.2,5.9,13.42,13.42,0,0,1,.8,5.9,3.7,3.7,0,0,1-.5,1.1,2.2,2.2,0,0,0-.1.8,3.14,3.14,0,0,1-.6,1.6,5.2,5.2,0,0,1-2,1.9c-2.6,1.3-5.6,1.8-8.4,2.5-1.1.3-2.2.5-3.4.8-.2.1-1.2.1-1.3.3l-8,12.3Z" transform="translate(0 -0.06)"/><path class="cls-23" d="M115.2,96.5a3.5,3.5,0,0,0,4.2-.2l-.7,10.8c2.1,4.9,8,2.8,14.8,11.2,0,0,2.1-3.5.4-10.6l.3-3.6s2.6-.1,4.3-.3c3-.5,4.6-3.1,5.5-7.1a24.93,24.93,0,0,0,.1-10.9,10.12,10.12,0,0,1-.2-3,12.91,12.91,0,0,0-1.1-6.3c-3.2-2.4-10.4-3.1-17,1.2.9,4-.6,7.2-3.4,8.8.2,1.1.4,3.8-1.4,3.8-1.3,0-1.4-1.6-2.8-3s-4.4-1.7-5.5.4c-1.6,3-.4,7.3,2.5,8.8Z" transform="translate(0 -0.06)"/><polygon class="cls-28" points="135.4 83.44 140.8 90.74 135.8 92.14 135.4 83.44"/><path class="cls-7" d="M132,82.3l-2.8,1.4a1.62,1.62,0,0,1,.7-2.1,1.53,1.53,0,0,1,2.1.7Z" transform="translate(0 -0.06)"/><path class="cls-7" d="M142.6,83l-2.7-1.5a1.53,1.53,0,0,1,2.1-.7A1.7,1.7,0,0,1,142.6,83Z" transform="translate(0 -0.06)"/><path class="cls-28" d="M134.2,104.2c-4.5-.4-8.1-.8-10.5-4a28.22,28.22,0,0,1-2.8-5.2,22.58,22.58,0,0,0,2.1,6.6c1.2,2,4,3.9,11.1,4.3Z" transform="translate(0 -0.06)"/><path class="cls-7" d="M132.4,86.1a1.3,1.3,0,1,1-1.4-1.2A1.32,1.32,0,0,1,132.4,86.1Z" transform="translate(0 -0.06)"/><path class="cls-30" d="M131.2,94l5,1.3a2.82,2.82,0,0,1-3.3,1.9A2.47,2.47,0,0,1,131.2,94Z" transform="translate(0 -0.06)"/><path class="cls-28" d="M134.4,97.2a3,3,0,0,0-3.3-2.4,2.55,2.55,0,0,0,1.9,2.5,6.15,6.15,0,0,0,1.4-.1Z" transform="translate(0 -0.06)"/><path class="cls-7" d="M140.4,84.3a1.24,1.24,0,0,1,1.2,1.3,1.32,1.32,0,0,1-1.3,1.3,1.24,1.24,0,0,1-1.2-1.3,1.26,1.26,0,0,1,1.3-1.3" transform="translate(0 -0.06)"/></g><g id="Tie"><path class="cls-8" d="M133.5,118.3a12.1,12.1,0,0,1-2.4-2.1c-1.1-1.2-1.6-1.7-2-1.3a25.2,25.2,0,0,0-2.8,4.9c-.5,1.1-.4,1.1-1.9.1a24.54,24.54,0,0,1-6.7-6.5,20.54,20.54,0,0,1-2.7-5.3s1.7-2.3,2.2-3.2c1-1.7.9-2.4,1.9-2.3v1.2c.2,1.5,2.3,2.8,4.4,4.7s5.5,3.5,6.3,4.3c.5.6,3.7,5.5,3.7,5.5Z" transform="translate(0 -0.06)"/><path class="cls-8" d="M139.5,117.3c-.2.6-2.2-4.2-3.1-4.1-.5,0-1.3,2.4-1.8,3.3s-.8,1.3-1.1,1.9c.6-1.4.7-5.2.9-6.1a16.1,16.1,0,0,0-.5-4.4l.3-3.6h.9a11.22,11.22,0,0,1,1.3,1.6c.9,1.5,2.6,4.3,3,6.1a14.94,14.94,0,0,1,.1,5.3Z" transform="translate(0 -0.06)"/></g><path class="cls-8" d="M108.6,110.4c-6.8,2.2-11.3,3.2-13.7,8.2s-6.6,17.6-8.9,25.1c-2,6.5-3,12.4-1.6,15.3l14.3-5.1,7.8-20.4s6.5-16.2,2.1-23.1Z" transform="translate(0 -0.06)"/><path class="cls-7" d="M100.5,143.9c-1.3,1.6-2.7,2.1-5.7,3.4-2.8,1.1-6.1,2.2-7.9,5.1.6-2.8,2.2-4.1,5.8-5.8s8.7-3.8,8.7-3.8l-.9,1.1Z" transform="translate(0 -0.06)"/><path class="cls-23" d="M100.5,143.9c-1.3,1.6-2.7,2.1-5.7,3.4-2.8,1.1-6.1,2.2-7.9,5.1-1.6,2.6-3.3,4.7-2.5,6.7.6,1.4,4.4,2.4,8.1,2.4s6.3-2.9,10.2-5.4c3.3-2.1,5-3.4,5-3.4l-7.2-8.8Z" transform="translate(0 -0.06)"/><path class="cls-23" d="M106.5,147.7c-1.3-1.4-1.6-2.7-3.6-3.9s-3.3-1.1-5.4-2.2-3.9-1.6-5.5-1.1-1.4,1.4-.2,2.2,3.3,1.8,4.7,2.8,2.9,1.7,2.9,3.5a63.66,63.66,0,0,1-.7,8.7c-.4,3.1-1,5.6-.8,5.9s1.6.5,2.4-1.2,1.9-8,1.9-8,.6,4.3.8,7.3.3,5.3.4,5.9,2.2.1,2.6-2.1a78.61,78.61,0,0,0-.1-8.9l2.9,5c1.1,1.9,2.5,4.7,3,5.3s1.8-.5,1.5-2.3-2.6-6.2-2.6-6.2,2.8,2.9,3.3,3.2,2,.1,1.5-1.9c-.3-1.3-1.2-2.2-3.4-4.7a17.54,17.54,0,0,1-2.9-4.8c-1-1.5-1.7-1.5-2.7-2.5Z" transform="translate(0 -0.06)"/><path class="cls-28" d="M92,140.4a2,2,0,0,0-.8.4c-.2.2-.4.5-.3.7a2.16,2.16,0,0,0,1.2,1.1l3.1,1.7,1.5.9a7.1,7.1,0,0,1,1.4,1,4.07,4.07,0,0,1,1.2,1.4,4,4,0,0,1,.3,1.8c-.1,2.4-.3,4.7-.6,7-.2,1.2-.3,2.3-.6,3.5l-.3,1.7a5.24,5.24,0,0,0-.2,1.7,5.46,5.46,0,0,1,.1-1.8l.2-1.8c.2-1.2.3-2.3.4-3.5.2-2.3.4-4.7.5-7a4.14,4.14,0,0,0-.2-1.6,2.54,2.54,0,0,0-1.1-1.2,7.1,7.1,0,0,0-1.4-1c-.5-.3-.9-.7-1.4-1l-3-1.8a2.54,2.54,0,0,1-1.2-1.3.74.74,0,0,1,.4-.8,1.18,1.18,0,0,0,.8-.1Z" transform="translate(0 -0.06)"/><path class="cls-28" d="M101,148.7c2.2,1,4.4,0,4.7-.6C105.5,149.7,102.5,150.6,101,148.7Z" transform="translate(0 -0.06)"/><path class="cls-28" d="M115.5,160.8c-.2.3-.8.4-1.4-.1s-1.9-2-2.6-2.7-2.8-3.3-2.8-3.3l1.9,3.7s2.8,2.9,3.3,3.2a1.18,1.18,0,0,0,1.6-.8Z" transform="translate(0 -0.06)"/></g><path d="M147.8,97.6l-1.3-.6s1.1-1.4.5-2.4a11.27,11.27,0,0,0-2.4-2.1c0-.6.1-1.2.1-1.8a21.48,21.48,0,0,1,3.1,2.4,3.46,3.46,0,0,1,0,4.5Z" transform="translate(0 -0.06)"/><path class="cls-10" d="M147.4,96.7c-.9-.8-1.6-.2-2.8,1.4s-.8,2.3.1,2.9,1.7.2,2.6-1.2c1-1.7,1.1-2.3.1-3.1Z" transform="translate(0 -0.06)"/><path class="cls-11" d="M147.4,96.7c-.9-.8-1.6-.2-2.8,1.4s-.8,2.3.1,2.9,1.7.1,2.6-1.2c1-1.7,1.1-2.3.1-3.1Z" transform="translate(0 -0.06)"/></g></g><g id="Speech_Bubbles" data-name="Speech Bubbles"><g id="Speech_Bubble" data-name="Speech Bubble"><path class="cls-2" d="M101.8,70.6c0-13.8-15.6-24.9-34.8-24.9S32.3,56.8,32.3,70.6,47.8,95.4,67,95.4c1.2,0,2.3,0,3.4-.1,3.8,7.1,10.2,8.4,15.3,7.8a9.52,9.52,0,0,1-5.4-9.6C92.9,89.8,101.8,80.9,101.8,70.6Z" transform="translate(0 -0.06)"/><path class="cls-11" d="M83.6,103.6a14.47,14.47,0,0,1-13.4-7.9c-1.1.1-2.2.1-3.2.1-19.4,0-35.1-11.3-35.1-25.2S47.7,45.3,67,45.3s35.1,11.3,35.1,25.2c0,10.2-8.4,19.3-21.4,23.3a9.17,9.17,0,0,0,5.2,9c.2.1.2.2.2.4a.32.32,0,0,1-.3.3,15.48,15.48,0,0,1-2.2.1ZM70.4,95c.1,0,.3.1.3.2a13.93,13.93,0,0,0,13.7,7.7,9.88,9.88,0,0,1-4.5-9.3.27.27,0,0,1,.3-.3c12.8-3.8,21.2-12.7,21.2-22.6C101.4,57.2,86,46.2,67,46.2s-34.4,11-34.4,24.5S48.1,95.1,67,95.1c1.1,0,2.3,0,3.4-.1Z" transform="translate(0 -0.06)"/><path class="cls-10" d="M55.4,71.3a3.5,3.5,0,1,1-3.5-3.5A3.48,3.48,0,0,1,55.4,71.3Z" transform="translate(0 -0.06)"/><path class="cls-10" d="M70.6,71.3a3.5,3.5,0,1,1-3.5-3.5A3.48,3.48,0,0,1,70.6,71.3Z" transform="translate(0 -0.06)"/><path class="cls-10" d="M85.7,71.3a3.5,3.5,0,1,1-3.5-3.5A3.48,3.48,0,0,1,85.7,71.3Z" transform="translate(0 -0.06)"/><path class="cls-11" d="M55.4,71.3a3.5,3.5,0,1,1-3.5-3.5A3.48,3.48,0,0,1,55.4,71.3Z" transform="translate(0 -0.06)"/><path class="cls-11" d="M70.6,71.3a3.5,3.5,0,1,1-3.5-3.5A3.48,3.48,0,0,1,70.6,71.3Z" transform="translate(0 -0.06)"/><path class="cls-11" d="M85.7,71.3a3.5,3.5,0,1,1-3.5-3.5A3.48,3.48,0,0,1,85.7,71.3Z" transform="translate(0 -0.06)"/></g><g id="Speech_Bubble-2" data-name="Speech Bubble-2"><g id="Speech_Bubble-3" data-name="Speech Bubble-3"><path class="cls-2" d="M298.1,222.5a18.29,18.29,0,0,1-5,12.6l-1.5,1.4a18.44,18.44,0,0,1-30.4-14,18,18,0,0,1,4.4-11.9l1.5-1.5a18.39,18.39,0,0,1,31,13.4Z" transform="translate(0 -0.06)"/><path class="cls-4" d="M279.6,202.6a20,20,0,0,0-3.3,39.8l2.3,5.8a1.18,1.18,0,0,0,2.2,0l2.2-5.8a20,20,0,0,0-3.4-39.8Zm18.5,19.9a18.29,18.29,0,0,1-5,12.6l-1.5,1.4a18.44,18.44,0,0,1-30.4-14,18,18,0,0,1,4.4-11.9l1.5-1.5a18.39,18.39,0,0,1,31,13.4Z" transform="translate(0 -0.06)"/><path class="cls-34" d="M298.1,222.5a18.29,18.29,0,0,1-5,12.6l-1.5,1.4a18.44,18.44,0,0,1-30.4-14,18,18,0,0,1,4.4-11.9l1.5-1.5a18.39,18.39,0,0,1,31,13.4Z" transform="translate(0 -0.06)"/></g><path class="cls-11" d="M272.1,211.6a7.55,7.55,0,0,1,1.4-1.1c.5-.3,1.1-.6,1.7-.9a6.64,6.64,0,0,1,2-.6,16.41,16.41,0,0,1,2.3-.2,8.08,8.08,0,0,1,3.1.5,9.21,9.21,0,0,1,2.4,1.3,5.11,5.11,0,0,1,1.5,2.1,5.92,5.92,0,0,1,.5,2.7,6.25,6.25,0,0,1-.4,2.5,7.24,7.24,0,0,1-1.1,1.9,9.27,9.27,0,0,1-1.4,1.4c-.5.4-1,.8-1.4,1.1s-.8.7-1.2,1a2.38,2.38,0,0,0-.6,1.1l-.4,2.8h-3.3l-.3-3.1a2.22,2.22,0,0,1,.3-1.6,2.94,2.94,0,0,1,1-1.2,7.55,7.55,0,0,1,1.4-1.1,15.76,15.76,0,0,0,1.5-1.2,6.73,6.73,0,0,0,1.1-1.4,3.56,3.56,0,0,0,.5-1.9,2.13,2.13,0,0,0-.3-1.2,2.18,2.18,0,0,0-.7-.9,2.38,2.38,0,0,0-1.1-.6,5.9,5.9,0,0,0-1.4-.2,10.07,10.07,0,0,0-1.9.2c-.5.2-.9.3-1.3.5a9,9,0,0,1-.9.5,1,1,0,0,1-.7.2,1,1,0,0,1-1-.6l-1.3-2Zm3.7,20.6a3.59,3.59,0,0,1,.2-1.1,2.84,2.84,0,0,1,.6-.9,2.36,2.36,0,0,1,.9-.6,5,5,0,0,1,1.2-.2,3.59,3.59,0,0,1,1.1.2,2,2,0,0,1,.9.6,2.36,2.36,0,0,1,.6.9,4.25,4.25,0,0,1,.2,1.1,3.59,3.59,0,0,1-.2,1.1,2,2,0,0,1-.6.9,2.36,2.36,0,0,1-.9.6,4.25,4.25,0,0,1-1.1.2,5,5,0,0,1-1.2-.2,2,2,0,0,1-.9-.6,2.84,2.84,0,0,1-.6-.9A3.59,3.59,0,0,1,275.8,232.2Z" transform="translate(0 -0.06)"/></g><g id="Speech_Bubble-4" data-name="Speech Bubble-4"><g id="Speech_Bubble-5" data-name="Speech Bubble-5"><path class="cls-2" d="M430.7,145.6a18.29,18.29,0,0,1-5,12.6l-1.5,1.4a18.44,18.44,0,0,1-30.4-14,18,18,0,0,1,4.4-11.9l1.5-1.5a18.29,18.29,0,0,1,12.6-5,18.54,18.54,0,0,1,18.4,18.4Z" transform="translate(0 -0.06)"/><path class="cls-4" d="M412.2,125.6a20,20,0,0,0-3.3,39.8l2.3,5.8a1.18,1.18,0,0,0,2.2,0l2.2-5.8a20,20,0,0,0-3.4-39.8Zm18.5,20a18.29,18.29,0,0,1-5,12.6l-1.5,1.4a18.44,18.44,0,0,1-30.4-14,18,18,0,0,1,4.4-11.9l1.5-1.5a18.29,18.29,0,0,1,12.6-5,18.54,18.54,0,0,1,18.4,18.4Z" transform="translate(0 -0.06)"/><path class="cls-34" d="M430.7,145.6a18.29,18.29,0,0,1-5,12.6l-1.5,1.4a18.44,18.44,0,0,1-30.4-14,18,18,0,0,1,4.4-11.9l1.5-1.5a18.29,18.29,0,0,1,12.6-5,18.54,18.54,0,0,1,18.4,18.4Z" transform="translate(0 -0.06)"/></g><path class="cls-11" d="M402.8,143.2a2.4,2.4,0,1,0,2.4,2.4A2.43,2.43,0,0,0,402.8,143.2Zm18.9,0a2.4,2.4,0,1,0,2.4,2.4A2.43,2.43,0,0,0,421.7,143.2Zm-9.5,0a2.4,2.4,0,1,0,2.4,2.4A2.37,2.37,0,0,0,412.2,143.2Z" transform="translate(0 -0.06)"/></g></g></svg>